<svg xmlns="http://www.w3.org/2000/svg" xmlns:xlink="http://www.w3.org/1999/xlink" width="1080" zoomAndPan="magnify" viewBox="0 0 810 809.999993" height="1080" preserveAspectRatio="xMidYMid meet" version="1.0"><path fill="#309ae0" d="M 70.308594 202.660156 C 82.78125 185.167969 94.445312 167.183594 108.539062 150.820312 C 134.136719 121.175781 163.132812 95.578125 196.34375 74.519531 C 226.152344 55.566406 257.578125 40.660156 291.113281 30.292969 C 343.441406 14.09375 396.898438 9.234375 451.171875 15.390625 C 490.859375 19.925781 529.253906 30.132812 565.703125 46.492188 C 587.734375 56.375 608.632812 68.6875 628.882812 81.972656 C 669.871094 108.703125 702.757812 143.53125 730.296875 183.382812 C 759.617188 225.828125 778.734375 273.132812 789.101562 323.839844 C 796.390625 359.476562 799.46875 395.441406 796.390625 431.566406 C 792.503906 476.117188 782.621094 519.210938 764.152344 560.519531 C 748.441406 595.511719 729.160156 627.589844 704.375 656.585938 C 680.238281 684.9375 652.859375 709.722656 621.59375 730.296875 C 600.210938 744.226562 578.015625 756.703125 554.527344 765.9375 C 515.160156 781.324219 474.496094 791.855469 431.730469 793.636719 C 401.761719 794.933594 371.789062 794.449219 342.144531 789.101562 C 316.710938 784.566406 291.925781 777.925781 267.460938 768.851562 C 243.808594 759.941406 220.96875 749.574219 199.90625 736.289062 C 169.453125 717.175781 142.074219 694.007812 117.773438 667.117188 C 90.558594 637.308594 68.527344 604.261719 51.679688 567.808594 C 27.863281 516.292969 16.199219 461.863281 15.390625 405.160156 C 15.066406 383.777344 17.496094 362.71875 20.410156 341.496094 C 20.574219 340.039062 20.410156 338.417969 20.410156 336.796875 C 22.84375 335.179688 22.679688 332.585938 23.164062 330.15625 C 29.484375 296.945312 40.175781 265.195312 54.59375 234.738281 C 59.777344 224.207031 66.90625 214.324219 70.308594 202.660156 M 526.824219 412.289062 C 537.355469 406.621094 547.398438 403.378906 555.496094 396.253906 C 586.117188 368.875 594.378906 304.398438 544.644531 273.457031 C 529.09375 263.734375 512.566406 256.609375 494.746094 249.316406 C 497.664062 225.503906 507.222656 203.148438 510.300781 178.6875 C 495.558594 175.121094 481.789062 170.261719 467.53125 168.640625 L 450.035156 236.519531 C 439.019531 233.117188 427.679688 233.441406 417.472656 227.609375 C 421.199219 204.28125 430.109375 182.410156 432.539062 159.085938 C 417.472656 156.652344 404.675781 150.820312 389.933594 150.175781 L 372.761719 218.539062 C 343.765625 214.003906 317.035156 204.121094 287.710938 198.773438 C 281.230469 213.191406 278.476562 228.421875 275.886719 244.621094 C 285.445312 246.886719 293.707031 248.832031 302.128906 250.777344 C 323.191406 255.636719 328.859375 267.136719 323.839844 285.445312 C 320.273438 298.566406 317.035156 311.6875 313.792969 324.808594 C 302.128906 372.113281 290.464844 419.257812 278.640625 466.558594 C 276.046875 477.253906 269.40625 480.652344 258.550781 479.035156 C 247.859375 477.414062 237.816406 472.714844 226.152344 473.039062 C 221.128906 489.238281 210.925781 503.65625 207.359375 521.476562 L 290.464844 542.699219 C 288.359375 567.324219 278.152344 589.84375 275.074219 614.628906 L 316.386719 624.511719 C 325.621094 601.828125 327.726562 577.855469 336.148438 554.363281 C 346.519531 559.710938 357.859375 558.089844 367.902344 564.730469 L 351.539062 633.097656 C 366.121094 638.28125 380.375 640.386719 394.957031 644.113281 L 412.128906 575.425781 C 415.53125 573.640625 418.121094 573.964844 420.390625 574.453125 C 443.070312 579.3125 466.398438 580.445312 489.5625 577.855469 C 509.652344 575.585938 527.308594 567.972656 541.566406 552.90625 C 557.441406 536.21875 565.378906 515.644531 569.269531 493.777344 C 572.347656 475.792969 571.535156 457.648438 561.007812 441.773438 C 552.90625 429.460938 541.566406 419.902344 526.824219 412.289062 M 361.421875 505.765625 C 389.609375 512.730469 417.796875 520.34375 447.28125 514.835938 C 462.996094 511.921875 474.820312 503.980469 479.683594 488.105469 C 484.21875 473.203125 481.625 459.59375 470.449219 447.769531 C 458.945312 435.457031 444.042969 429.136719 428.8125 423.792969 C 410.507812 417.472656 392.039062 411.640625 372.113281 410.023438 L 349.433594 502.039062 C 354.457031 503.496094 357.859375 504.792969 361.421875 505.765625 M 461.050781 375.515625 C 476.605469 373.246094 489.5625 363.042969 493.453125 348.949219 C 498.148438 331.777344 492.964844 316.710938 479.035156 306.503906 C 463.320312 294.839844 445.175781 289.007812 426.382812 284.957031 C 419.417969 283.5 412.613281 279.289062 404.027344 282.042969 L 383.617188 364.984375 C 410.347656 371.789062 434.96875 379.242188 461.050781 375.515625 " fill-opacity="1" fill-rule="nonzero"/></svg>