<svg xmlns="http://www.w3.org/2000/svg" xmlns:xlink="http://www.w3.org/1999/xlink" width="1080" zoomAndPan="magnify" viewBox="0 0 810 809.999993" height="1080" preserveAspectRatio="xMidYMid meet" version="1.0"><path fill="#309ae0" d="M 611.226562 265.519531 C 596.320312 256.769531 576.882812 256.769531 560.359375 265.519531 L 443.71875 333.070312 L 364.5 377.136719 L 247.859375 444.691406 C 232.957031 453.4375 213.515625 453.4375 196.992188 444.691406 L 104.328125 391.878906 C 89.425781 383.128906 78.894531 366.929688 78.894531 349.273438 L 78.894531 245.105469 C 78.894531 227.449219 87.804688 211.410156 104.328125 202.5 L 195.535156 151.144531 C 210.4375 142.398438 229.878906 142.398438 246.402344 151.144531 L 337.609375 202.5 C 352.511719 211.246094 363.042969 227.449219 363.042969 245.105469 L 363.042969 312.660156 L 442.261719 267.136719 L 442.261719 199.585938 C 442.261719 181.925781 433.351562 165.886719 416.824219 156.976562 L 248.023438 60.101562 C 233.117188 51.355469 213.679688 51.355469 197.152344 60.101562 L 25.433594 156.976562 C 8.910156 165.726562 0 181.925781 0 199.585938 L 0 394.792969 C 0 412.453125 8.910156 428.488281 25.433594 437.398438 L 197.316406 534.277344 C 212.21875 543.023438 231.660156 543.023438 248.183594 534.277344 L 364.824219 468.179688 L 444.042969 422.65625 L 560.683594 356.5625 C 575.585938 347.8125 595.027344 347.8125 611.550781 356.5625 L 702.757812 407.917969 C 717.660156 416.664062 728.191406 432.863281 728.191406 450.523438 L 728.191406 554.6875 C 728.191406 572.347656 719.28125 588.382812 702.757812 597.292969 L 611.550781 650.105469 C 596.644531 658.855469 577.207031 658.855469 560.683594 650.105469 L 469.476562 598.753906 C 454.570312 590.003906 444.042969 573.804688 444.042969 556.144531 L 444.042969 488.59375 L 364.824219 534.113281 L 364.824219 601.667969 C 364.824219 619.324219 373.734375 635.363281 390.257812 644.273438 L 562.140625 741.148438 C 577.042969 749.898438 596.484375 749.898438 613.007812 741.148438 L 784.890625 644.273438 C 799.792969 635.527344 810.324219 619.324219 810.324219 601.667969 L 810.324219 406.457031 C 810.324219 388.800781 801.414062 372.761719 784.890625 363.851562 Z M 611.226562 265.519531 " fill-opacity="1" fill-rule="nonzero"/></svg>