<svg class="w-32 pb-1 hidden sm:inline-block" viewBox="0 0 137 32" fill="none" xmlns="http://www.w3.org/2000/svg"><path class="dark:text-nektar-green-lime" d="M0 28.7067H17.5571V31.3002H0V28.7067Z" fill="currentColor"></path><path class="dark:text-nektar-green-lime" d="M1.83275 20.643H28.4808V23.2365H1.83275V20.643Z" fill="currentColor"></path><path class="dark:text-nektar-green-lime" d="M3.66965 12.5793H27.2722V15.1728H3.66965V12.5793Z" fill="currentColor"></path><path class="dark:text-nektar-green-lime" d="M5.53907 4.51562H25.9217V7.10914H5.53907V4.51562Z" fill="currentColor"></path><path class="dark:text-nektar-yellow" d="M12.3979 24.6777H32.9815V27.2712H12.3979V24.6777Z" fill="currentColor"></path><path class="dark:text-nektar-yellow" d="M11.2384 16.614H34.8259V19.2076H11.2384V16.614Z" fill="currentColor"></path><path class="dark:text-nektar-yellow" d="M10.0234 8.55037H36.6598V11.1439H10.0234V8.55037Z" fill="currentColor"></path><path class="dark:text-nektar-yellow" d="M20.9397 0.734375H38.4967V3.32789H20.9397V0.734375Z" fill="currentColor"></path><path d="M41.7168 27.7684L45.9514 3.86328H49.1957L58.2796 22.4751L61.5581 3.86328H64.8365L60.636 27.7684H57.3234L48.3078 9.15656L45.0294 27.7684H41.7168Z" fill="currentColor"></path><path fill-rule="evenodd" clip-rule="evenodd" d="M71.099 28.1782C68.959 28.1782 67.2514 27.5294 65.9765 26.2317C64.7016 24.934 64.0641 23.1923 64.0641 21.0067C64.0641 19.3675 64.3373 17.899 64.8837 16.6013C65.4529 15.2808 66.2156 14.1653 67.1718 13.2546C68.128 12.3211 69.2094 11.6154 70.416 11.1373C71.6454 10.6592 72.909 10.4201 74.2067 10.4201C75.8231 10.4201 77.1322 10.7389 78.134 11.3763C79.1585 11.991 79.9098 12.7992 80.3879 13.801C80.8888 14.78 81.1392 15.8272 81.1392 16.9428C81.1392 17.4209 81.0823 17.9559 80.9684 18.5479C80.8774 19.117 80.7749 19.6179 80.6611 20.0505H67.3425L67.2742 20.5286V20.9725C67.2742 22.4524 67.6954 23.5679 68.5378 24.3192C69.3801 25.0478 70.4046 25.4121 71.6113 25.4121C72.7041 25.4121 73.6603 25.1616 74.4799 24.6607C75.3223 24.1371 75.9825 23.4655 76.4606 22.6459H79.7732C79.2723 23.7615 78.5779 24.729 77.69 25.5487C76.8249 26.3683 75.8345 27.0171 74.719 27.4952C73.6034 27.9505 72.3967 28.1782 71.099 28.1782ZM67.8206 17.6941H77.8266C77.8494 17.5803 77.8608 17.4664 77.8608 17.3526C77.8835 17.2388 77.8949 17.1363 77.8949 17.0453C77.8949 15.8386 77.5193 14.8938 76.768 14.2108C76.0167 13.505 75.0263 13.1521 73.7969 13.1521C72.522 13.1521 71.3153 13.5392 70.177 14.3132C69.0386 15.0873 68.2532 16.2143 67.8206 17.6941Z" fill="currentColor"></path><path d="M85.2177 3.86328L80.9831 27.7684H84.2957L85.7641 19.3333L91.9112 27.7684H95.9409L89.0767 18.6845L98.0763 10.8735L97.5721 13.5961H100.236L98.6649 22.3044C98.6194 22.6004 98.5852 22.8849 98.5625 23.1581C98.5397 23.4313 98.5283 23.6818 98.5283 23.9094C98.5283 25.321 98.9381 26.3227 99.7577 26.9147C100.577 27.4838 101.716 27.7684 103.173 27.7684H105.905L106.417 24.9681H104.163C103.366 24.9681 102.786 24.8429 102.421 24.5924C102.08 24.3192 101.909 23.8525 101.909 23.1923V22.8166L101.977 22.3385L103.548 13.5961H108.398L108.91 10.8299H104.026L104.778 6.7319H101.431L100.714 10.8299H93.8577L86.0373 17.9673L88.4962 3.86328H85.2177Z" fill="currentColor"></path><path fill-rule="evenodd" clip-rule="evenodd" d="M110.347 27.666C111.167 28.0075 112.066 28.1782 113.045 28.1782C114.093 28.1782 115.026 28.0189 115.846 27.7001C116.665 27.3814 117.371 26.9602 117.963 26.4366C118.285 26.1621 118.579 25.8752 118.845 25.5757L118.381 27.7803H121.934L123.529 18.8266L123.532 18.8278L123.769 17.4892C123.814 17.1705 123.848 16.8973 123.871 16.6696C123.894 16.4192 123.905 16.146 123.905 15.85C123.905 14.6434 123.655 13.6416 123.154 12.8448C122.653 12.0479 121.936 11.4446 121.002 11.0348C120.092 10.625 119.01 10.4201 117.758 10.4201C116.483 10.4201 115.276 10.6364 114.138 11.069C113.023 11.5015 112.044 12.1504 111.201 13.0155C110.382 13.8579 109.756 14.9166 109.323 16.1915H112.67C113.057 15.167 113.671 14.4157 114.514 13.9376C115.379 13.4367 116.301 13.1863 117.28 13.1863C118.35 13.1863 119.17 13.4595 119.739 14.0059C120.308 14.5523 120.593 15.3264 120.593 16.3281C120.593 16.5102 120.581 16.7038 120.558 16.9087C120.536 17.1136 120.513 17.3412 120.49 17.5917H116.051C114.571 17.5917 113.193 17.8193 111.918 18.2747C110.666 18.7072 109.653 19.3789 108.879 20.2895C108.105 21.1774 107.718 22.3044 107.718 23.6704C107.718 24.6494 107.957 25.469 108.435 26.1292C108.913 26.7894 109.551 27.3017 110.347 27.666ZM116.904 24.6607C116.085 25.1844 115.163 25.4462 114.138 25.4462C113.296 25.4462 112.59 25.2755 112.021 24.934C111.474 24.5697 111.201 24.0005 111.201 23.2264C111.201 22.4524 111.418 21.8263 111.85 21.3482C112.305 20.8701 112.886 20.5286 113.592 20.3237C114.298 20.096 115.049 19.9822 115.846 19.9822H120.012C119.83 20.9156 119.466 21.8035 118.919 22.6459C118.396 23.4655 117.724 24.1371 116.904 24.6607Z" fill="currentColor"></path><path d="M124.244 27.7684L127.215 10.8299H130.22L129.947 13.8693C130.698 12.822 131.666 11.991 132.85 11.3763C134.056 10.7389 135.4 10.4201 136.88 10.4201L136.299 13.8693H135.411C134.159 13.8693 133.1 14.0742 132.235 14.484C131.37 14.871 130.676 15.4516 130.152 16.2257C129.651 16.977 129.298 17.8876 129.093 18.9577L127.557 27.7684H124.244Z" fill="currentColor"></path></svg>