<svg xmlns="http://www.w3.org/2000/svg" version="1.1" viewBox="0 0 97.911 72.36486486486487" style="max-height: 500px" width="97.911" height="72.36486486486487">
<path transform="translate(70,7)" fill="#FFB819" d="M0 0 C0.73283203 0.84884766 0.73283203 0.84884766 1.48046875 1.71484375 C1.98191406 2.13894531 2.48335938 2.56304687 3 3 C5.01481463 2.88419197 5.01481463 2.88419197 7.125 2.125 C13.26816081 0.52417633 18.39808649 0.61939283 24.0625 3.625 C26 6 26 6 26.5625 9.3125 C25.91858025 13.53375172 24.84064793 16.80720563 22 20 C20.62483254 20.74766386 19.22694337 21.45459955 17.8125 22.125 C15.62481642 23.22268979 15.62481642 23.22268979 14 25 C13.39178859 28.20324675 13.37153235 31.25387115 13.3125 34.51171875 C12.58346158 42.64961016 7.91427352 50.09583251 1.9296875 55.53515625 C-8.26200939 63.27176826 -18.54403714 64.07837772 -31 63 C-34.6406753 62.18580495 -38.01081576 61.28958793 -41 59 C-41.74609375 56.859375 -41.74609375 56.859375 -42 55 C-39 53 -39 53 -37.25 53.25 C-35.49364991 53.83545003 -33.74513814 54.44443024 -32 55.0625 C-22.9474426 57.60186835 -14.18974109 56.45381269 -6 52 C-0.13107824 48.12429695 3.31023926 42.78765542 5.6328125 36.20703125 C6.18380033 32.89524268 6.10361008 29.59572769 6.0625 26.25 C6.05798828 25.55261719 6.05347656 24.85523437 6.04882812 24.13671875 C6.0371002 22.42444197 6.01916653 20.71220967 6 19 C6.61488281 18.69707031 7.22976562 18.39414062 7.86328125 18.08203125 C14.17568194 14.84866923 14.17568194 14.84866923 18 9 C0.86742074 11.80861955 -11.09522018 23.88205841 -22.796875 35.84375 C-32.5826351 45.42130243 -44.92050588 55.59826505 -59.1875 56.4375 C-63.66025356 55.9242332 -65.73723883 55.10360209 -69 52 C-70.48339061 47.63223875 -70.26518314 45.64085925 -68.5 41.375 C-66.10875262 37.68398053 -62.92697868 34.97715632 -59 33 C-58.01 33 -57.02 33 -56 33 C-56.06960937 31.76636719 -56.06960937 31.76636719 -56.140625 30.5078125 C-56.48662883 19.80640834 -54.76108572 12.92376069 -47.8125 4.6875 C-35.18243544 -8.43705322 -15.1174849 -11.24634087 0 0 Z M-43 9 C-48.78737789 16.78636078 -51.15240076 24.27159355 -50 34 C-48.94818566 37.17373545 -47.61680872 40.07675209 -46 43 C-45.01 42.34 -44.02 41.68 -43 41 C-43.474375 39.865625 -43.94875 38.73125 -44.4375 37.5625 C-46.1348234 33.08701048 -46.68094105 28.75287814 -47 24 C-45.35 24 -43.7 24 -42 24 C-42 22.68 -42 21.36 -42 20 C-42.99 19.67 -43.98 19.34 -45 19 C-41.30527742 13.76898384 -37.87680356 8.93840178 -32 6 C-31.34 7.32 -30.68 8.64 -30 10 C-29.01 9.67 -28.02 9.34 -27 9 C-27 7.68 -27 6.36 -27 5 C-20.38935934 3.6227832 -15.09035361 4.10364665 -9.25 7.6875 C-7.09428754 9.25410443 -7.09428754 9.25410443 -4.6875 8.6875 C-4.130625 8.460625 -3.57375 8.23375 -3 8 C-3 7.34 -3 6.68 -3 6 C-4.41328129 5.18162558 -5.83078346 4.37053781 -7.25 3.5625 C-8.03890625 3.11003906 -8.8278125 2.65757813 -9.640625 2.19140625 C-20.86509512 -3.47657949 -34.52639268 0.32933205 -43 9 Z M-16 14 C-16 14.99 -16 15.98 -16 17 C-15.34 16.01 -14.68 15.02 -14 14 C-14.66 14 -15.32 14 -16 14 Z M-32 16 C-32.33 17.32 -32.66 18.64 -33 20 C-31.68 20.33 -30.36 20.66 -29 21 C-28.67 19.68 -28.34 18.36 -28 17 C-29.32 16.67 -30.64 16.34 -32 16 Z M-35 32 C-34.67 32.66 -34.34 33.32 -34 34 C-33.67 33.34 -33.34 32.68 -33 32 C-33.66 32 -34.32 32 -35 32 Z M-58.5625 43 C-59.20316406 43.556875 -59.84382813 44.11375 -60.50390625 44.6875 C-60.99761719 45.120625 -61.49132813 45.55375 -62 46 C-61.67 46.66 -61.34 47.32 -61 48 C-56.545 47.505 -56.545 47.505 -52 47 C-52.66 44.69 -53.32 42.38 -54 40 C-55.87824891 40 -57.21518837 41.82416439 -58.5625 43 Z"/>
<path transform="translate(461,9)" fill="#FFB819" d="M0 0 C0.63292969 0.4125 1.26585937 0.825 1.91796875 1.25 C7.92561125 5.75893424 11.36208112 11.77313914 12.48046875 19.18359375 C12.85976816 27.88697746 10.98157304 34.50905727 5.16796875 41.06640625 C-2.21339497 48.04012069 -9.07595966 49.5024118 -19.06640625 49.41992188 C-27.86704945 49.09855007 -33.92471051 45.95506373 -40.26953125 39.96484375 C-45.67755276 33.82435883 -46.73210757 27.25132866 -46.44140625 19.21484375 C-45.34115286 11.20149384 -41.37836072 5.3470193 -35.07421875 0.40625 C-25.24796347 -6.25561798 -9.98185787 -6.61323917 0 0 Z M-31.875 11.6875 C-34.8321628 16.29719495 -36.4875638 20.6117402 -35.69140625 26.14453125 C-33.71935495 32.55063577 -29.2475659 36.16803975 -23.5625 39.375 C-17.21333385 40.92357711 -12.47557819 40.41164269 -6.82421875 37.26953125 C-2.52616725 34.27838192 0.77579078 30.14167874 2 25 C1.81200474 19.07814917 0.83885626 15.69193542 -3 11 C-7.85947526 6.51433053 -12.16165277 4.48459706 -18.8828125 4.6875 C-24.21151813 5.47402482 -28.00363271 8.06861319 -31.875 11.6875 Z"/>
<path transform="translate(324.06884765625,5.67041015625)" fill="#FFB819" d="M0 0 C1.20342041 0.00845947 1.20342041 0.00845947 2.43115234 0.01708984 C3.65584229 0.02554932 3.65584229 0.02554932 4.90527344 0.03417969 C15.90814026 0.25515594 23.59354487 3.04036106 31.46630859 10.85302734 C36.04607518 16.32738391 37.31266761 23.66576042 36.73974609 30.66943359 C35.02185454 38.73269033 29.61862454 44.81663883 22.93115234 49.32958984 C16.34609503 52.46636632 10.71949411 52.73201366 3.49365234 52.57958984 C2.48882812 52.57443359 1.48400391 52.56927734 0.44873047 52.56396484 C-6.91412491 52.48431259 -6.91412491 52.48431259 -8.06884766 51.32958984 C-8.17243544 49.80572754 -8.20735904 48.27711998 -8.21411133 46.74975586 C-8.22049118 45.77526993 -8.22687103 44.800784 -8.23344421 43.79676819 C-8.23455704 42.7363884 -8.23566986 41.67600861 -8.23681641 40.58349609 C-8.24014481 39.50204819 -8.24347321 38.42060028 -8.24690247 37.30638123 C-8.25197643 35.01391019 -8.25431065 32.72143173 -8.25415039 30.42895508 C-8.2563361 26.91068418 -8.27448493 23.39272703 -8.29345703 19.87451172 C-8.29639093 17.65250759 -8.29837575 15.43050196 -8.29931641 13.20849609 C-8.30650192 12.15014053 -8.31368744 11.09178497 -8.3210907 10.00135803 C-8.31801407 9.02371994 -8.31493744 8.04608185 -8.31176758 7.03881836 C-8.3131926 6.17579605 -8.31461761 5.31277374 -8.31608582 4.42359924 C-7.73328338 -0.51250685 -4.13948074 0.05213007 0 0 Z M1.93115234 9.32958984 C1.93115234 20.54958984 1.93115234 31.76958984 1.93115234 43.32958984 C12.93443627 43.42079879 12.93443627 43.42079879 21.50146484 37.83349609 C25.21088801 33.58355698 26.31433578 30.08163267 26.20068359 24.45068359 C25.61326405 19.82794722 23.58166646 16.63850165 20.02490234 13.81787109 C13.51877347 9.58160435 10.05572067 9.32958984 1.93115234 9.32958984 Z"/>
<path transform="translate(388.5625,5.5)" fill="#FFB819" d="M0 0 C3.21407362 0.65929715 3.66144696 1.80779366 5.4375 4.5 C6.15181357 5.88795769 6.82032394 7.30024626 7.44628906 8.73022461 C7.8096637 9.55465561 8.17303833 10.37908661 8.54742432 11.22850037 C8.92880554 12.11086868 9.31018677 12.993237 9.703125 13.90234375 C10.10078064 14.81705948 10.49843628 15.73177521 10.90814209 16.67420959 C11.74476841 18.60534413 12.57838149 20.53778652 13.40917969 22.47143555 C14.68385484 25.4290422 15.97822112 28.37751394 17.2734375 31.32617188 C18.08456044 33.20519994 18.89449678 35.08474075 19.703125 36.96484375 C20.09260315 37.84518784 20.4820813 38.72553192 20.88336182 39.6325531 C21.23412781 40.46013626 21.5848938 41.28771942 21.94628906 42.14038086 C22.25922913 42.86333847 22.57216919 43.58629608 22.89459229 44.3311615 C23.57051505 47.03137604 23.19752221 48.84563499 22.4375 51.5 C21.4375 52.5 21.4375 52.5 17.875 52.5625 C16.740625 52.541875 15.60625 52.52125 14.4375 52.5 C13.59930842 50.87750059 12.7670884 49.25191503 11.9375 47.625 C11.4734375 46.72007813 11.009375 45.81515625 10.53125 44.8828125 C9.4375 42.5 9.4375 42.5 9.4375 40.5 C2.8375 40.5 -3.7625 40.5 -10.5625 40.5 C-11.5525 43.47 -12.5425 46.44 -13.5625 49.5 C-14.2225 50.49 -14.8825 51.48 -15.5625 52.5 C-19.0625 52.8125 -19.0625 52.8125 -22.5625 52.5 C-23.2225 51.84 -23.8825 51.18 -24.5625 50.5 C-24.28290097 44.61432302 -22.23971075 39.77033939 -19.88671875 34.42578125 C-19.33707207 33.15639961 -19.33707207 33.15639961 -18.77632141 31.8613739 C-18.00301394 30.08207373 -17.22535973 28.30465707 -16.44360352 26.52905273 C-15.25156871 23.81607027 -14.07911926 21.09519977 -12.90820312 18.37304688 C-12.15220532 16.64011689 -11.39508187 14.90767744 -10.63671875 13.17578125 C-10.2886467 12.36530838 -9.94057465 11.55483551 -9.58195496 10.71980286 C-5.27543932 1.02935401 -5.27543932 1.02935401 0 0 Z M-1.5625 19.5 C-4.0375 25.44 -4.0375 25.44 -6.5625 31.5 C-2.9325 31.5 0.6975 31.5 4.4375 31.5 C3.74762866 28.05064331 3.25348989 25.74415149 1.875 22.6875 C1.400625 21.635625 0.92625 20.58375 0.4375 19.5 C-0.2225 19.5 -0.8825 19.5 -1.5625 19.5 Z"/>
<path transform="translate(133.6875,5.625)" fill="#FFB819" d="M0 0 C0.96873047 -0.02449219 1.93746094 -0.04898437 2.93554688 -0.07421875 C10.99810642 -0.1069269 16.28538709 1.60551372 22.25 7.0625 C24.8474305 11.2341308 25.59386671 14.48945076 25.3125 19.375 C23.64428897 25.26280365 21.1514666 27.94739866 16.3125 31.375 C13.60533758 32.27738747 12.07473232 32.49351302 9.30078125 32.47265625 C8.27658081 32.46890991 8.27658081 32.46890991 7.23168945 32.46508789 C5.94137817 32.45143188 5.94137817 32.45143188 4.625 32.4375 C1.881875 32.416875 -0.86125 32.39625 -3.6875 32.375 C-3.6875 38.645 -3.6875 44.915 -3.6875 51.375 C-6.45000036 52.75625018 -8.63481099 52.56579306 -11.6875 52.375 C-14.16067292 49.90182708 -13.94352793 49.17909297 -13.9621582 45.7734375 C-13.97169022 44.81904785 -13.98122223 43.8646582 -13.99104309 42.88134766 C-13.99013168 41.84800293 -13.98922028 40.8146582 -13.98828125 39.75 C-13.99256638 38.69216309 -13.9968515 37.63432617 -14.00126648 36.54443359 C-14.00701656 34.30502031 -14.00750508 32.06558835 -14.00317383 29.82617188 C-14.00001288 26.38900097 -14.0234687 22.95268945 -14.04882812 19.515625 C-14.05110084 17.34375109 -14.05180474 15.17187486 -14.05078125 13 C-14.059991 11.96665527 -14.06920074 10.93331055 -14.07868958 9.86865234 C-14.07246078 8.9142627 -14.06623199 7.95987305 -14.05981445 6.9765625 C-14.06044388 6.13432129 -14.0610733 5.29208008 -14.0617218 4.42431641 C-13.93822861 3.74804199 -13.81473541 3.07176758 -13.6875 2.375 C-9.27659916 -0.56560056 -5.19078202 0.00677206 0 0 Z M-3.6875 9.375 C-3.6875 13.995 -3.6875 18.615 -3.6875 23.375 C-0.34625 23.49875 -0.34625 23.49875 3.0625 23.625 C4.94195312 23.69460937 4.94195312 23.69460937 6.859375 23.765625 C10.34784007 23.66025985 10.34784007 23.66025985 12.76171875 21.58203125 C14.64602498 19.33860872 14.64602498 19.33860872 14.375 15.8125 C13.64853522 12.30554547 13.64853522 12.30554547 11.140625 10.671875 C7.84366113 9.16000759 5.60701588 9.06858739 2 9.1875 C-0.8153125 9.2803125 -0.8153125 9.2803125 -3.6875 9.375 Z"/>
<path transform="translate(297,23)" fill="#FFB819" d="M0 0 C0 -0.66 0 -1.32 0 -2 C2.33294775 -2.04241723 4.66702567 -2.04092937 7 -2 C8.76072584 -0.23927416 8.12834784 2.0789629 8.13894653 4.4239502 C8.1369223 5.18123413 8.13489807 5.93851807 8.1328125 6.71875 C8.13376923 7.49182495 8.13472595 8.2648999 8.13571167 9.06140137 C8.13639341 10.69897544 8.13453957 12.33655219 8.13037109 13.97412109 C8.12502271 16.48931921 8.13031626 19.00433873 8.13671875 21.51953125 C8.13605797 23.10677123 8.1347768 24.6940111 8.1328125 26.28125 C8.13483673 27.03853394 8.13686096 27.79581787 8.13894653 28.5760498 C8.11495132 33.88504868 8.11495132 33.88504868 7 35 C3.33655389 35.13568319 0.49384279 35.16461426 -3 34 C-3.99 34.495 -3.99 34.495 -5 35 C-7.24655587 35.14977039 -9.49863768 35.22150174 -11.75 35.25 C-12.96171875 35.27578125 -14.1734375 35.3015625 -15.421875 35.328125 C-20.84582377 34.83073232 -24.75503242 32.86417829 -28.25 28.6875 C-31.86635102 24.14095896 -33.25490023 20.3251369 -32.875 14.5 C-32.07289923 8.95058188 -29.66021168 5.53250309 -25.5625 1.75 C-18.06967149 -3.36705362 -8.27496255 -3.67776113 0 0 Z M-22 12 C-23.33612179 15.69398378 -23.17417014 17.44483267 -22 21.1875 C-19.36903287 24.88729752 -17.36749449 25.8353348 -13 27 C-9.1929645 26.41926577 -6.75427146 25.50284764 -3.5625 23.375 C-1.34083028 19.99806203 -1.21777625 16.86510558 -2 13 C-3.79363911 10.1899654 -5.01880935 8.49059532 -8 7 C-14.64510319 6.33548968 -17.50027359 6.95152646 -22 12 Z"/>
<path transform="translate(188.959228515625,20.886474609375)" fill="#FFB819" d="M0 0 C1.29349365 0.00523682 2.5869873 0.01047363 3.91967773 0.01586914 C4.9496714 0.01799156 4.9496714 0.01799156 6.00047302 0.02015686 C8.20144949 0.0257706 10.40232557 0.03832532 12.60327148 0.05102539 C14.09220231 0.05603863 15.58113473 0.06060184 17.07006836 0.06469727 C20.72700223 0.07574446 24.38387707 0.09301826 28.04077148 0.11352539 C29.10009766 2.48852539 29.10009766 2.48852539 30.04077148 5.11352539 C29.09155273 7.11352539 29.09155273 7.11352539 27.35327148 9.11352539 C26.70745117 9.87793945 26.06163086 10.64235352 25.39624023 11.42993164 C24.61893555 12.31551758 23.84163086 13.20110352 23.04077148 14.11352539 C21.57516234 15.83402308 20.11655563 17.56029021 18.65869141 19.28735352 C17.67236989 20.45255166 16.68171328 21.61409557 15.68652344 22.77172852 C13.09169162 25.75449109 13.09169162 25.75449109 11.04077148 29.11352539 C16.65077148 29.11352539 22.26077148 29.11352539 28.04077148 29.11352539 C28.70077148 30.76352539 29.36077148 32.41352539 30.04077148 34.11352539 C29.38077148 35.10352539 28.72077148 36.09352539 28.04077148 37.11352539 C24.99975586 37.50170898 24.99975586 37.50170898 21.13452148 37.51196289 C20.45401733 37.51483307 19.77351318 37.51770325 19.0723877 37.5206604 C17.63329232 37.52270234 16.19416927 37.51716325 14.75512695 37.50463867 C12.54893089 37.48858476 10.34456664 37.5044807 8.13842773 37.52368164 C6.74128826 37.52169923 5.34414993 37.51785559 3.94702148 37.51196289 C2.67149414 37.5085791 1.3959668 37.50519531 0.08178711 37.50170898 C-0.92174805 37.3736084 -1.9252832 37.24550781 -2.95922852 37.11352539 C-4.95922852 34.11352539 -4.95922852 34.11352539 -4.7434082 32.12866211 C-3.89688489 29.95331857 -2.9534037 28.61661722 -1.41235352 26.87133789 C-0.89672852 26.2796582 -0.38110352 25.68797852 0.15014648 25.07836914 C0.69155273 24.4712207 1.23295898 23.86407227 1.79077148 23.23852539 C2.84842393 22.03311268 3.90571901 20.82738632 4.96264648 19.62133789 C5.47633789 19.03900391 5.9900293 18.45666992 6.51928711 17.85668945 C8.73940209 15.31310457 10.89120831 12.71688523 13.04077148 10.11352539 C12.07655273 10.07614258 11.11233398 10.03875977 10.11889648 10.00024414 C8.22397461 9.90163086 8.22397461 9.90163086 6.29077148 9.80102539 C4.41131836 9.71401367 4.41131836 9.71401367 2.49389648 9.62524414 C-0.98999315 9.10896638 -2.43812647 8.48819979 -4.95922852 6.11352539 C-3.88870554 0.14918308 -3.88870554 0.14918308 0 0 Z"/>
<path transform="translate(234.6875,20.734375)" fill="#FFB819" d="M0 0 C0.65830811 -0.00191345 1.31661621 -0.0038269 1.99487305 -0.00579834 C3.3868854 -0.0071595 4.77891047 -0.00346783 6.17089844 0.00488281 C8.30432589 0.015584 10.43691131 0.00498594 12.5703125 -0.0078125 C13.92187686 -0.00649089 15.2734407 -0.00392847 16.625 0 C18.47544922 0.00338379 18.47544922 0.00338379 20.36328125 0.00683594 C23.3125 0.265625 23.3125 0.265625 25.3125 2.265625 C25.83174651 5.53414512 25.61452094 6.84722247 23.66015625 9.5546875 C22.90605469 10.32554688 22.15195312 11.09640625 21.375 11.890625 C16.39292116 17.14157793 11.84837464 22.62527025 7.3125 28.265625 C8.44429687 28.32621094 9.57609375 28.38679688 10.7421875 28.44921875 C12.22397145 28.53362417 13.7057416 28.61827217 15.1875 28.703125 C15.93386719 28.74244141 16.68023437 28.78175781 17.44921875 28.82226562 C23.0859375 29.15234375 23.0859375 29.15234375 25.3125 30.265625 C25.35504356 32.26517246 25.35330783 34.26604136 25.3125 36.265625 C22.83762289 38.74050211 16.7716888 37.43899732 13.30273438 37.45117188 C12.57658936 37.45109131 11.85044434 37.45101074 11.10229492 37.45092773 C8.88766218 37.45311251 6.67352877 37.47126031 4.45898438 37.49023438 C3.05729338 37.49316856 1.6556 37.49515319 0.25390625 37.49609375 C-1.02798584 37.50020264 -2.30987793 37.50431152 -3.63061523 37.50854492 C-6.6875 37.265625 -6.6875 37.265625 -8.6875 35.265625 C-8.45717507 30.75125633 -6.44724486 28.35997327 -3.5625 25.015625 C0.52839771 20.19163842 4.46066807 15.28167623 8.3125 10.265625 C7.40886719 10.20503906 6.50523437 10.14445312 5.57421875 10.08203125 C4.39472656 9.99824219 3.21523437 9.91445313 2 9.828125 C0.82824219 9.74691406 -0.34351563 9.66570313 -1.55078125 9.58203125 C-4.6875 9.265625 -4.6875 9.265625 -7.6875 8.265625 C-8.3125 5.390625 -8.3125 5.390625 -8.6875 2.265625 C-5.85490425 -0.56697075 -3.9605534 0.00724239 0 0 Z"/>
<path transform="translate(72,27)" fill="#FFB819" d="M0 0 C1.06385483 3.19156448 1.16677982 5.58497476 1.1875 8.9375 C1.20167969 9.97777344 1.21585938 11.01804687 1.23046875 12.08984375 C1.00392282 14.95046613 0.47733619 16.57670151 -1 19 C-2.65 19 -4.3 19 -6 19 C-6 20.32 -6 21.64 -6 23 C-5.34 23.33 -4.68 23.66 -4 24 C-9.07260799 29.36247131 -13.38083414 32.72678936 -20.83984375 33.16796875 C-21.86207031 33.17441406 -22.88429688 33.18085937 -23.9375 33.1875 C-24.95714844 33.20167969 -25.97679687 33.21585938 -27.02734375 33.23046875 C-30.07159667 32.99444914 -32.24737643 32.28252995 -35 31 C-33.62803835 27.8376284 -32.1434878 26.0063782 -29.5 23.8125 C-25.26626407 20.25213706 -21.22881862 16.51187182 -17.19921875 12.72265625 C-15 11 -15 11 -12 11 C-10.66018514 11.3062434 -9.32488113 11.63451555 -8 12 C-8.309375 11.13375 -8.61875 10.2675 -8.9375 9.375 C-9 6 -9 6 -7.578125 4.265625 C-2.6625 0 -2.6625 0 0 0 Z M-22 23 C-22.33 24.32 -22.66 25.64 -23 27 C-21.68 27.33 -20.36 27.66 -19 28 C-18.67 26.68 -18.34 25.36 -18 24 C-19.32 23.67 -20.64 23.34 -22 23 Z"/>
<path transform="translate(171,20.75)" fill="#FFB819" d="M0 0 C3 0.25 3 0.25 5 2.25 C5.18729753 4.81927031 5.25574642 7.27873977 5.23046875 9.84765625 C5.22978142 10.97185219 5.22978142 10.97185219 5.2290802 12.11875916 C5.22605811 13.70329369 5.21817306 15.28782526 5.20581055 16.87231445 C5.18754683 19.30625858 5.18530089 21.73982262 5.18554688 24.17382812 C5.18063201 25.71094081 5.17480382 27.2480509 5.16796875 28.78515625 C5.16685593 29.51742935 5.1657431 30.24970245 5.16459656 31.00416565 C5.11605238 36.13394762 5.11605238 36.13394762 4 37.25 C0.5625 37.4375 0.5625 37.4375 -3 37.25 C-5.46002787 34.78997213 -5.24552005 33.40206161 -5.27789307 30.04333496 C-5.2738446 29.33809692 -5.26979614 28.63285889 -5.265625 27.90625 C-5.26753845 27.18135376 -5.2694519 26.45645752 -5.27142334 25.70959473 C-5.27278487 24.17634738 -5.26909064 22.6430885 -5.26074219 21.10986328 C-5.25004178 18.75917741 -5.26063808 16.40925577 -5.2734375 14.05859375 C-5.2721159 12.57031081 -5.26955349 11.08202834 -5.265625 9.59375 C-5.26967346 8.88851196 -5.27372192 8.18327393 -5.27789307 7.45666504 C-5.21020702 0.43418392 -5.21020702 0.43418392 0 0 Z"/>
<path transform="translate(174,6)" fill="#FFB819" d="M0 0 C2 2 2 2 2.3125 5.5 C2.1578125 7.2325 2.1578125 7.2325 2 9 C-1 11 -1 11 -3.5625 10.75 C-6 10 -6 10 -8 8 C-7.75 4.4375 -7.75 4.4375 -7 1 C-4.48718205 -0.25640898 -2.78302919 -0.20872719 0 0 Z"/>
</svg>