<?xml version="1.0" encoding="UTF-8"?>
<svg id="Layer_1" data-name="Layer 1" xmlns="http://www.w3.org/2000/svg" viewBox="0 0 703.39 501.43">
  <defs>
    <style>
      .cls-1 {
        fill: black;
        stroke-width: 0px;
      }

      .cls-2 {
        fill: none;
        stroke: #2a2c28;
        stroke-miterlimit: 10;
        stroke-width: .25px;
      }
    </style>
  </defs>
  <path class="cls-1" d="m427.97,464.05c1.18-.67,2.34-1.35,3.49-2.04.3-.18.61-.36.91-.55,1.35-.82,2.68-1.64,4-2.48.09-.06.18-.12.28-.17,2.78-1.77,5.48-3.58,8.09-5.43,86.47-60.87,116.29-178.19,65.81-273.94-.05-.09-.08-.18-.13-.26-.03-.05-.06-.1-.09-.15-.13-.24-.25-.48-.37-.72-49.07-91.76-156.06-133.07-251.91-103.04-.38.11-.76.19-1.14.31-.49.16-.97.33-1.46.5-11.19,3.51-22.87,8.4-34.4,14.56-10.04,5.37-19.21,11.3-27.27,17.46-1.81,1.18-3.58,2.43-5.28,3.78-1.83,1.46-3.54,3.03-5.19,4.66-74.7,63.66-97.87,173.06-49.74,263.06.08.15.17.29.25.44.08.14.14.29.22.43.37.69.78,1.35,1.18,2.03,27.05,48.77,71.16,84.49,124.65,100.7,35.88,10.87,73.13,12.13,108.73,4.07,12.2-2.76,24.21-6.65,35.9-11.59.17-.07.34-.15.5-.22,1.72-.73,3.45-1.48,5.16-2.26,1.04-.47,2.09-.98,3.13-1.48.97-.46,1.95-.91,2.92-1.39.75-.37,1.5-.77,2.25-1.15.63-.34.85-.53,1.45-.81.91-.43,1.83-.89,2.63-1.32,1.33-.71,2.29-1.21,3.78-2.05.19-.11.37-.22.56-.32.37-.21.74-.42,1.11-.64Zm2.32-4.18c-.61.37-1.23.72-1.85,1.08.34-.89.63-1.84.88-2.86,2.7-.72,5.34-1.57,7.9-2.57-2.04,1.33-4.09,2.64-6.19,3.9-.25.15-.49.3-.74.44Zm-18.79,10.02c-1.9.9-3.83,1.72-5.75,2.55,1.92-1.39,3.8-2.86,5.62-4.46.86.3,1.69.54,2.5.73-.58.28-1.14.59-1.72.87-.21.1-.43.2-.64.3Zm-223.47-35.44c-3.4-6.35-5.23-13.32-5.7-20.72,6.95,1.72,14.42,2.9,22.32,3.56,1.15.1,2.24.59,3.06,1.4,20.43,20.21,43.88,35.75,68.6,45.96,1.15.47.87,2.15-.37,2.23-41.89,2.69-74.85-7.98-87.92-32.42Zm-51.99-55.43c-8.21-15.58-8.18-34.41-1.3-54.61,4.6,2.94,9.75,5.45,15.45,7.49,1.35.48,2.44,1.51,2.95,2.85,3.53,9.22,7.68,18.35,12.48,27.34,4.73,8.85,9.95,17.24,15.56,25.18,1.02,1.44,1.33,3.25.91,4.96-1.55,6.33-2.32,12.49-2.28,18.4-19.79-5.52-34.88-15.67-43.17-30.56-.2-.36-.41-.7-.6-1.06Zm324.96-233.52c-6.47-1.54-13.42-2.62-20.83-3.24-.72-.06-1.39-.38-1.9-.89-21.56-22.13-47.06-39.37-75.04-50.27-.31-.12-.63-.22-.94-.34,44.23-3.88,79.28,6.66,92.86,32.04,3.67,6.85,5.6,14.48,5.85,22.69Zm47.18,34.67c.07.14.14.27.21.41,7.92,14.99,8.39,33.28,1.76,53.46-5.06-3.44-10.83-6.3-17.23-8.57-1.25-.44-2.25-1.39-2.72-2.63-3.58-9.35-7.77-18.57-12.59-27.59-4.97-9.3-10.5-18.15-16.5-26.55-.39-.55-.51-1.24-.34-1.89,1.51-5.71,2.36-11.24,2.59-16.56.04-.86.86-1.46,1.69-1.23,20.31,5.73,35.12,16.29,43.13,31.16Zm-83.41,282.88c-1.17.65-2.33,1.31-3.52,1.94-1.22.65-2.47,1.24-3.7,1.87-1.3.01-2.73-.24-4.24-.67,1.82-1.72,3.58-3.55,5.29-5.49.09-.05.19-.09.28-.14.34-.18.66-.39,1-.57,2.25-.32,4.47-.69,6.63-1.18.08-.02.16-.04.24-.06-.51,1.68-1.17,3.14-1.99,4.31Zm-39.6,17.03c-13.91,4.28-28.92,3.71-44.37-1.4,13.36.36,26.66-.85,39.66-3.8,9.07-2.05,17.99-4.96,26.68-8.7.56.28,1.1.53,1.64.77-6.85,5.83-14.44,10.18-22.73,12.86-.3.09-.59.18-.89.26Zm-57.5-6.79c-.82-2.35-1.03-4.96-.67-7.81.41-3.22,2.87-5.77,5.98-6.68,5.94-1.72,11.94-3.64,18-5.78,3.75-1.32,7.85-1.33,11.61-.05,12.37,4.2,24.38,6.77,35.75,7.62,2.1,1.56,4.13,2.92,6.06,4.06-22.66,9.4-46.83,12.98-71.05,11.24-1.89-.8-3.78-1.68-5.68-2.61Zm-15.65-9.17c1.12-.24,2.23-.47,3.36-.72,3.35-.76,6.73-1.59,10.14-2.49-1.14,3.94-1.39,7.59-.75,10.89-4.24-2.23-8.49-4.79-12.74-7.67Zm-165.83-164.42c5.82-10.05,13.07-20.23,21.64-30.36,3.61-4.26,10.4-3.25,12.62,1.87,8.33,19.25,19.12,38.83,32.26,58.05-1.27,2.7-1.59,3.38-2.86,6.09-3.82.32-7.6.53-11.31.64-15.9.44-29.98-1.15-41.94-4.58-1.49-.43-2.69-1.58-3.2-3.04-3.08-8.68-5.6-17.41-7.58-26.16-.19-.85-.06-1.74.38-2.5Zm18.29-140.91c11.32-19.72,26.49-36.81,45.19-50.01,1.85-1.31,4.4,0,4.37,2.27,0,.18,0,.36,0,.55,0,.46-.12.92-.35,1.32-6.71,11.58-11.92,25.25-15.52,40.54-8.61,6.21-16.7,12.63-24.23,19.2-4.67-1.37-8.31-3.59-10.64-6.71.32-2.44.72-4.82,1.19-7.16Zm19.84-39.81c1.04-.94,2.11-1.89,3.21-2.83,2.63-2.16,5.31-4.27,8.06-6.32,5.93-3.78,12.48-6.61,19.57-8.45l.26.63c-20.08,12.54-36.54,29.26-49.03,48.86,3.6-12.54,9.54-23.35,17.92-31.89Zm178.02-25.61c24.76,9.64,47.56,24.3,67.36,42.96,2.04,1.92.63,5.32-2.17,5.29-2.75-.04-5.56-.02-8.41.06-9.53.26-19.39,1.18-29.49,2.69-2.45.37-4.9-.65-6.37-2.64-8.7-11.77-18-22.42-27.78-31.7-4.6-4.38-9.24-8.38-13.88-12-1.83-1.43-1.06-4.34,1.23-4.73,3.11-.53,6.18-1,9.21-1.4,3.11-.41,6.28-.03,9.22,1.07.36.13.72.27,1.08.41Zm135.86,164.97c.17.81.04,1.66-.38,2.37-2.66,4.54-5.61,9.14-8.9,13.79-5.16,7.29-10.98,14.5-17.35,21.6-1.46,1.63-4.11,1.12-4.92-.91-8.88-22.45-21.07-45.12-36.06-67.01,1.32-2.79,1.65-3.49,2.97-6.29,20.05-1.66,38.17-.33,53.22,4.02,1.41.41,2.52,1.49,3.02,2.86,3.49,9.75,6.3,19.62,8.41,29.56Zm-19.8,86.43c1.56,9,2.4,17.59,2.62,25.77-3.81,3.76-7.81,7.47-11.96,11.12-.56.49-1.31.69-2.04.54-4.09-.8-8.76-1.09-13.86-.88-1.95.08-3.5-1.6-3.29-3.55,1.8-16.78,1.94-34.58.45-52.96-.19-2.38.72-4.72,2.49-6.33,3.91-3.59,7.69-7.22,11.32-10.9,1.54-1.56,4.18-.99,4.89,1.09,4.17,12.21,7.34,24.31,9.39,36.11Zm.37,54.04c-12.17,21.13-28.58,38.77-48.44,52,.12-2.08.13-4.32.03-6.71,6.53-11.46,11.68-25.1,15.26-40.69,8.22-5.93,16.02-12.1,23.34-18.44,4.82,1.32,8.6,3.5,11.03,6.62-.33,2.47-.74,4.87-1.22,7.23ZM198.31,238.48c8.96-7.88,18.67-15.58,29.05-22.99,6.03-4.3,14.45-1.95,17.32,4.87,7.43,17.7,15.98,36.25,25.45,55.16,1.69,3.37.66,7.44-2.39,9.65-18.53,13.41-34.68,27.82-47.89,42.5-1.06,1.18-2.99.82-3.53-.68-1.55-4.3-3.04-8.65-4.45-13.06-7.71-24.19-12.74-48.13-15.29-70.99-.19-1.68.45-3.34,1.72-4.46Zm1.91-83.53c3.41-2.44,6.9-4.84,10.46-7.2,3.64-2.41,8.59-.58,9.7,3.64.92,3.47,1.93,7.08,3.05,10.83.47,1.57.98,3.18,1.48,4.78-7.76,2.65-15.21,4.6-22.12,5.82-2.98.52-5.55-2.1-5.06-5.09.71-4.37,1.53-8.64,2.49-12.78Zm-9.46,19.26c-5.21.26-9.93,0-14-.84,6.46-5.56,13.34-11.02,20.59-16.32-.94,4.34-1.75,8.8-2.43,13.38-.31,2.09-2.05,3.68-4.16,3.78Zm125.82-83.13c-.13,1.87-.52,3.85-1.19,5.92-9.51,2.58-19.2,5.69-29,9.34-15.59-5.88-30.36-9.16-43.97-9.87-.28-.18-.56-.36-.84-.54-1.75-1.12-1.53-3.76.41-4.52,21-8.19,43.51-11.62,66.51-10.16.82.33,1.65.68,2.47,1.04,3.48,1.52,5.86,5,5.6,8.79Zm8.05,3.55c-2.16.51-4.34,1.05-6.52,1.62,1-3.72,1.2-7.17.58-10.3,2.24,1.18,4.48,2.44,6.72,3.8,2.04,1.23,1.53,4.33-.78,4.88Zm119.99,301.96c-.36,1.84-.77,3.61-1.17,5.4-2.78,1.99-5.6,3.96-8.46,5.9-4.51,3.05-10.7.79-12.17-4.46-1.15-4.11-2.42-8.38-3.82-12.8,5.39-1.83,10.64-3.33,15.65-4.47,2.64-.6,5.21-1.09,7.71-1.49,2.16-.35,4,1.53,3.67,3.69-.42,2.78-.88,5.52-1.41,8.22Zm7.11-12.96c3.08-.19,5.99-.2,8.7-.02,2.16.14,3.07,2.83,1.41,4.21-4.95,4.1-10.1,8.11-15.43,12.02.2-.93.42-1.84.61-2.78.68-3.49,1.26-7.05,1.77-10.66.21-1.5,1.44-2.68,2.94-2.77Zm-232.93-49.88c-.12-.31-.22-.63-.34-.94,13.15-15.17,29.5-30.14,48.48-44.07,3.78-2.78,9.14-1.53,11.31,2.63,1.62,3.1,3.26,6.22,4.93,9.33.51.96,1.03,1.92,1.55,2.88,3.43,6.35.31,14.21-6.51,16.58-20.19,7.03-40.1,11.83-58.98,14.19-.14-.2-.29-.4-.44-.6Zm66.52-34.2c-2.03-3.8-4.03-7.6-6-11.38-1.78-3.43-.7-7.69,2.53-9.82,9.49-6.27,19.51-12.26,30.03-17.89,10.54-5.63,21.11-10.65,31.6-15.07,3.53-1.49,7.63-.04,9.48,3.32,2.07,3.75,4.13,7.54,6.17,11.36.92,1.72,1.83,3.44,2.74,5.16,2.97,5.64,1.16,12.63-4.19,16.07-8.45,5.43-17.25,10.62-26.37,15.49-9.3,4.97-18.68,9.49-28.07,13.57-5.54,2.4-11.98.15-14.87-5.15-1.02-1.88-2.04-3.76-3.05-5.66Zm-59.55-138.04c-1.63-5.43-3.04-10.59-4.25-15.46-.67-2.71.47-5.54,2.86-6.98,5.61-3.39,11.37-6.69,17.3-9.86,6.23-3.33,12.47-6.43,18.71-9.33,1.96-.91,4.3-.46,5.77,1.14,3.6,3.92,7.35,8.21,11.23,12.89,1.02,1.23,2.05,2.52,3.08,3.79-7.73,5.76-16.36,11.22-25.59,16.16-9.36,5.01-18.69,9.12-27.65,12.32-.49-1.56-.99-3.14-1.45-4.67Zm15.99-62.66c4.51,3.05,9.54,7.24,15,12.51,2.52,2.43,1.89,6.64-1.27,8.15-4.98,2.38-9.97,4.9-14.95,7.56-4.36,2.33-8.63,4.74-12.82,7.19-3.89,2.28-8.86-.04-9.61-4.49-1.08-6.4-1.65-12.05-1.71-16.88,1.55-2.59,3.19-5.06,4.9-7.4,2.89-3.96,7.39-6.51,12.29-6.68,2.67-.09,5.39-.08,8.16.05Zm183.04,125.53c-12.3,14.24-27.15,27.99-43.98,40.76-6.07,4.61-14.79,2.72-18.36-4.01-.39-.74-.79-1.48-1.18-2.22-1.68-3.14-3.37-6.25-5.06-9.35-2.24-4.08-.32-9.18,4.05-10.77,22.17-8.06,43.74-13.37,63.69-15.88.2.28.41.56.61.84.08.21.15.41.23.62Zm-77.2,9.77c-10.55-18.51-21.32-36.05-31.99-52.17-3.95-5.96-1.41-14.07,5.27-16.62,12.46-4.75,24.87-8.74,37.08-11.95.89-.23,1.83-.02,2.53.57,18.08,15.16,35.41,32.92,51.25,52.77,2.94,3.68,5.77,7.4,8.54,11.14.95,1.29.18,3.1-1.4,3.33-19.57,2.84-40.54,8.28-62.01,16.26-3.5,1.3-7.42-.1-9.26-3.34Zm-46.23-72.87c-5.9-8.26-11.73-16.02-17.44-23.16,7.11-5.45,13.42-11.14,18.7-16.9,1.97-2.14,5.13-2.73,7.7-1.37,14.31,7.56,28.54,16.92,42.4,27.84,1.8,1.41,1.2,4.26-1,4.88-12.26,3.44-24.69,7.68-37.15,12.64-4.77,1.9-10.23.25-13.21-3.93Zm-8.48-52.4c-1.04-.44-2.07-.81-3.1-1.22,8.3-3.03,16.5-5.67,24.58-7.92-1.36,3.3-3.34,6.8-5.91,10.46-1.77,2.52-5.15,3.37-7.94,2.07-2.54-1.19-5.09-2.33-7.63-3.39Zm-.94,2.25c1.15.48,2.3.98,3.46,1.49,4.19,1.86,5.24,7.3,2.01,10.54-4.44,4.45-9.48,8.84-15.01,13.08-1.05-1.3-2.1-2.61-3.14-3.87-2.92-3.53-5.77-6.84-8.54-9.93-2.28-2.54-1.43-6.59,1.72-7.93,4.65-1.98,9.29-3.84,13.91-5.58,1.86.71,3.72,1.42,5.61,2.2Zm-30.13,1.82c-3.9-3.93-7.61-7.36-11.11-10.28-1.26-1.05-.37-3.09,1.25-2.86,9.82,1.34,20.18,3.95,30.97,7.84-5.15,1.98-10.32,4.11-15.5,6.38-1.91.84-4.14.4-5.61-1.08Zm-5.81,43.06c9.37-5.01,18.12-10.56,25.98-16.42,4.66,5.83,9.4,12.07,14.2,18.67,4.17,5.73,2.07,13.79-4.35,16.8-6.77,3.17-13.52,6.54-20.23,10.13-6.64,3.55-13.1,7.23-19.38,11.03-6.21,3.75-14.27.96-16.78-5.85-2.78-7.56-5.3-14.88-7.54-21.91,9.12-3.22,18.6-7.36,28.1-12.44Zm19.09,123.96c-11.4-22.43-21.55-44.42-30.09-65.16-2.14-5.18-.21-11.13,4.55-14.09,7.47-4.63,15.2-9.11,23.2-13.39,8.02-4.29,16.1-8.27,24.2-11.95,4.99-2.27,10.88-.61,13.94,3.95,11.12,16.56,22.37,34.72,33.39,53.96,2.23,3.9.56,8.88-3.57,10.65-9.97,4.26-20,9.04-30,14.39m21.73,40.62c8.34-4.46,16.42-9.18,24.21-14.1,6.21-3.93,14.46-1.69,17.7,4.9,9.5,19.26,17.94,37.98,25.16,55.59,2.03,4.95.17,10.61-4.37,13.43-7.59,4.71-15.41,9.24-23.47,13.55-7.96,4.26-15.94,8.18-23.89,11.81-5.11,2.32-11.14.64-14.27-4.02-10.67-15.86-21.58-33.36-32.36-52.03-3.48-6.04-.91-13.72,5.47-16.54,8.64-3.81,17.27-8,25.83-12.58Zm40.38,75.51c6.76-3.61,13.35-7.38,19.78-11.28,5.93-3.6,13.65-.93,16.05,5.58,2.62,7.09,4.99,13.93,7.11,20.47-9.2,3.23-18.76,7.42-28.34,12.54-9.45,5.05-18.27,10.66-26.18,16.57-4.15-5.24-8.39-10.83-12.71-16.75s-2.11-14.15,4.47-17.22c6.6-3.09,13.21-6.38,19.81-9.91Zm15.75,29.46c9.46-5.06,18.87-9.19,27.91-12.4,2.02,6.35,3.8,12.41,5.31,18.14.91,3.43-.53,7.06-3.57,8.89-5.45,3.28-11.03,6.46-16.74,9.52-5.58,2.99-11.18,5.78-16.76,8.42-3.45,1.63-7.54.83-10.07-2.03-3.84-4.36-7.82-9.1-11.9-14.2,7.79-5.82,16.49-11.34,25.82-16.33Zm54.03,1.68c-3.13,12.79-7.35,24.2-12.55,34.07-.47-5.31-1.39-11.25-2.73-17.75-.67-3.25.74-6.56,3.52-8.37,4-2.6,7.93-5.24,11.76-7.95Zm-24.36-17.21c-2.61-8.1-5.63-16.65-9.02-25.6-1.78-4.7-.16-10.06,3.98-12.91,8.04-5.54,15.75-11.27,23.08-17.18,4.9-3.95,12.19-.52,12.42,5.77.53,14.11.04,27.79-1.46,40.83-.17,1.47-1.33,2.61-2.8,2.81-8.06,1.07-16.92,3.18-26.19,6.28Zm-18.16-48.45c-7.26-17.28-15.71-35.65-25.22-54.67-2.68-5.36-1.07-11.86,3.75-15.42,17-12.55,32.12-26.1,44.78-40.17,1.07-1.19,3.01-.82,3.56.68,1.61,4.46,3.16,8.97,4.62,13.53,7.75,24.3,12.91,48.67,15.46,72.22.27,2.48-.7,4.95-2.58,6.58-8.69,7.54-18,14.84-27.86,21.85-5.74,4.08-13.78,1.89-16.51-4.6Zm13.54-134.68c-14.65-18.35-30.56-34.95-47.17-49.36-1.73-1.5-1.06-4.32,1.17-4.83,4.26-.99,8.5-1.88,12.69-2.66,2.55-.48,5.16.6,6.63,2.74,13.03,18.92,24.56,40.42,34.09,63.73-2.41-3.22-4.87-6.43-7.41-9.61Zm-54.75-55.73c-14.64-11.98-29.75-22.25-44.97-30.51-3.29-1.79-4.34-6.03-2.28-9.16,2.5-3.8,4.38-7.44,5.62-10.9,5.09-1.37,10.12-2.57,15.08-3.63.73-.16,1.49,0,2.09.43,6.48,4.62,12.95,9.94,19.37,16.04,7.9,7.51,15.49,15.9,22.7,25.07,3.04,3.87.89,9.57-3.92,10.59-3.73.79-7.49,1.66-11.27,2.6-.85.21-1.75,0-2.42-.54Zm-121.19-53.18c-2.51-.02-4.99.05-7.41.21,1.33-.65,2.66-1.32,4.01-1.93,1.09.47,2.23,1.06,3.4,1.72Zm-11.8-.32c-.52.27-1.04.5-1.56.78-.27.14-.53.31-.8.46-1.59.23-3.16.5-4.7.81,1-1.96,2.27-3.43,3.88-4.29.63-.34,1.3-.58,2.02-.75,1.23-.28,2.6-.3,4.08-.08-1,.99-1.97,2.02-2.93,3.08Zm-4.36,5.19c-1.75,2.25-3.44,4.6-5.04,7.08.1-1.58.26-3.07.5-4.42,1.48-.92,3.02-1.79,4.54-2.66Zm-7.57,41.5c-4.4,2.83-8.7,5.72-12.88,8.67,2.71-10.8,6.24-20.73,10.57-29.62.69-1.42,2.79-1.05,2.96.52.46,4.23,1.19,8.84,2.19,13.84.51,2.57-.64,5.18-2.84,6.59Zm-4.03,31.01c5.04-1.14,10.29-2.64,15.68-4.46,2.76,8.67,5.95,17.78,9.53,27.23,1.86,4.92.14,10.5-4.18,13.49-9.65,6.68-18.75,13.61-27.25,20.72-3.26,2.72-8.23.6-8.49-3.64-1.05-16.72-.72-32.72.92-47.64.22-1.97,1.75-3.56,3.71-3.84,3.25-.46,6.62-1.08,10.09-1.86Zm35,158.59c12.52-2.83,25.32-6.65,38.21-11.33,5.32-1.93,11.27.24,14.07,5.15,10.52,18.46,21.09,35.66,31.42,51.29,4.06,6.14,1.29,14.41-5.59,17.02-11.8,4.47-23.46,8.25-34.86,11.31-1.18.32-2.44.04-3.38-.73-18.57-15.3-36.65-33.54-53.31-54.41-2.95-3.69-5.78-7.41-8.54-11.15-.94-1.28-.17-3.08,1.4-3.31,6.75-.98,13.62-2.26,20.58-3.83Zm98.19,66.25c5.47,7.66,10.83,14.8,16.03,21.38-7.57,5.83-14.22,11.94-19.67,18.1-1.01,1.14-2.64,1.48-4,.79-13.59-6.98-27.35-15.71-40.94-26.06-2.46-1.87-1.78-5.77,1.18-6.63,11.11-3.22,22.43-7.09,33.86-11.61,4.89-1.94,10.49-.24,13.54,4.05Zm10.32,51.03c-8.12,2.96-16.16,5.56-24.07,7.78,1.68-3.86,4.17-7.99,7.47-12.31.94-1.23,2.65-1.6,4.05-.94,4.21,1.99,8.4,3.81,12.55,5.46Zm-10.38-11.87c5.02-5.4,10.95-10.75,17.62-15.89,2.73,3.41,5.42,6.67,8.06,9.77,3.75,4.39,2.11,11.19-3.24,13.36-2.92,1.19-5.83,2.33-8.74,3.42-4.2-1.61-8.43-3.4-12.7-5.37-2.05-.95-2.54-3.63-1-5.29Zm39.19,8.64c4.45,4.49,8.68,8.38,12.67,11.6-11.07-1.17-22.74-3.99-34.73-8.31,4.19-1.61,8.39-3.32,12.61-5.12,3.24-1.39,6.99-.67,9.46,1.83Zm7.08,3.43c-4.32-4.08-3.19-11.21,2.14-13.84,3.73-1.84,7.46-3.76,11.18-5.75,3.93-2.1,7.8-4.27,11.61-6.48,4.84-2.81,10.98.04,11.95,5.55.91,5.18,1.51,9.91,1.76,14.12-3.06,5.31-6.43,10.14-10.08,14.45-5.97.74-12.2.9-18.66.46-3.11-2.38-6.42-5.23-9.89-8.52Zm23.86,10.9c-2.03,1-4.07,1.95-6.12,2.85-1.39-.77-2.84-1.68-4.34-2.7,3.56.13,7.05.08,10.46-.15Zm14.91-12.72c0,1.58-.08,3.04-.19,4.43-1.65,1.05-3.32,2.08-5.01,3.07,1.81-2.38,3.56-4.86,5.21-7.51Zm45.81-67.34c2.44-2.23,4.82-4.47,7.16-6.74.02,5.02-.22,9.87-.71,14.54-1.59-1.53-3.53-2.81-5.78-3.84-1.59-.73-1.95-2.79-.66-3.96Zm-8.83-77.48c-6.08,6.32-16.71,2.91-18.12-5.74-2.91-17.89-7.27-36.1-13.06-54.27-1.23-3.87-2.53-7.69-3.87-11.48,15.07,22.32,27.2,45.41,35.85,68.21.41,1.07.16,2.29-.63,3.11-.05.06-.11.11-.16.17Zm-28.42-83.77c-1.82.12-2.96-1.94-1.84-3.39,1.66-2.14,3.26-4.29,4.78-6.44,8.42-11.89,14.6-23.47,18.57-34.51.63-1.75,3.01-2.05,4.06-.51,4.75,6.99,9.18,14.29,13.23,21.88,3.37,6.3,6.44,12.7,9.2,19.17,1.44,3.37-1.51,6.98-5.11,6.23-12.74-2.66-27.21-3.47-42.9-2.44Zm.96-11.24c-2.14,3.03-4.41,6.04-6.79,9.03-2.95-.44-3.69-.55-6.64-1-8.75-21.79-19.24-42.07-31.06-60.21-2.68-4.11-.17-9.64,4.7-10.23,7.28-.88,14.42-1.43,21.37-1.62,6.11-.17,11.95-.04,17.56.33.76.05,1.48.39,2,.94,6.51,6.88,12.65,14.21,18.36,21.97.44.6.58,1.37.37,2.08-3.72,12.23-10.35,25.24-19.87,38.69Zm-104.43-116.22c-5.31-3.63-10.62-6.8-15.91-9.42l.13-.44c9.68,1.13,19.43,3.14,29.15,5.99,1.21.35,1.07,2.1-.17,2.29-3.69.57-7.42,1.24-11.2,1.99-.69.14-1.42-.01-2-.41Zm-24.21-13.08c-8.55-3.4-17-5.46-25.26-6.14,13.5-1.08,23.44,1.18,28.7,6.45-1.15-.1-2.29-.23-3.44-.31Zm-45.99-2.4c12-2.72,24.75-1.96,37.82,2.07-23.16-.38-45.71,4.17-66.62,13.52-.21-.08-.4-.13-.6-.2,6.92-6.14,14.68-10.78,23.28-13.64.68-.21,1.36-.43,2.03-.63,1.36-.4,2.71-.8,4.09-1.11Zm-35.99,14.02c3.47-1.74,6.96-3.38,10.48-4.91-2.27,1.67-4.47,3.48-6.58,5.43-1.38-.34-2.67-.5-3.89-.52Zm-10.98,8.21c-2.47.59-4.88,1.28-7.22,2.1,2.88-1.82,5.82-3.59,8.81-5.29-.61.94-1.14,2-1.6,3.2Zm-44.08,75.74c-2.27,2.01-4.48,4.04-6.63,6.08-1.17,1.11-3.09.25-3.04-1.37.09-3.38.31-6.69.65-9.93,2.3,2.27,5.36,4,9.03,5.21Zm2.74.77c4.18,1.01,9.02,1.44,14.38,1.31,2.67-.06,4.77,2.2,4.5,4.86-1.76,17.29-1.8,35.94-.02,55.43.15,1.6-.47,3.19-1.65,4.28-2.32,2.13-4.58,4.27-6.79,6.41-3.93,3.82-10.57,2.17-12.25-3.04-6.48-20.06-10.04-39.33-10.55-56.95-.01-.5.18-.98.54-1.33,3.77-3.69,7.72-7.35,11.85-10.97Zm11.94,74.13c3.03-2.94,8.13-1.17,8.7,3.01,2.8,20.24,7.51,41.21,14.25,62.35,1.2,3.77,2.47,7.5,3.77,11.2-14.15-20.96-25.47-42.31-33.84-63.14-1.09-2.71-.47-5.83,1.57-7.92,1.8-1.84,3.65-3.68,5.54-5.5Zm12,89.11c2.65-.07,5.34-.21,8.05-.41,1.81-.13,2.89,1.95,1.78,3.39-8.93,11.64-15.95,23.3-20.79,34.61-1.88,4.39-7.97,4.89-10.54.87-3.28-5.13-6.4-10.44-9.33-15.92-3.27-6.11-6.22-12.29-8.89-18.52-1.54-3.59,1.6-7.45,5.43-6.67,10.24,2.08,21.71,3,34.3,2.65Zm13.71,1.76c3.02.45,3.78.56,6.8,1.01,9.26,23.13,20.46,44.58,33.16,63.57,2.38,3.56.17,8.4-4.09,8.93-13.64,1.72-26.58,2.26-38.57,1.6-1.25-.07-2.41-.61-3.28-1.5-6.75-6.94-13.15-14.4-19.12-22.36-1.16-1.55-1.53-3.57-.93-5.41,4.8-14.74,13.69-30.32,26.03-45.85Zm10.01,2.52c2.36,3.15,4.78,6.3,7.27,9.42,15.1,18.92,31.36,35.7,48.11,50.09,2.34,2.01,1.34,5.84-1.67,6.53-4.13.94-8.22,1.79-12.26,2.54-2.2.41-4.43-.51-5.72-2.34-13.71-19.52-25.81-41.92-35.73-66.24Zm54.32,68.35c2.38-.54,4.78-1.14,7.19-1.75,1.14-.29,2.36-.02,3.28.71,15.08,12.04,30.45,22.12,45.63,30.05,1.8.94,2.35,3.24,1.16,4.87-2.02,2.76-3.72,5.45-5.11,8.05-1.85,3.49-5.14,5.95-8.97,6.9-3.53.87-7.03,1.67-10.5,2.38-6.57-4.67-13.14-10.07-19.66-16.26-7.72-7.34-15.14-15.54-22.2-24.47-2.67-3.38-.82-8.37,3.4-9.23,1.92-.39,3.84-.81,5.78-1.25Zm133.3,53.93c.74-.34,1.48-.69,2.22-1.04-.47.45-.92.93-1.39,1.37-.28-.11-.54-.2-.82-.32Zm16.18-8.55c.47-.29.93-.58,1.4-.88-.03.19-.08.37-.11.55-.43.11-.85.22-1.28.32Zm3.97-2.55c18.76-12.17,34.55-28.15,46.76-47.22-4.46,15.38-12.36,27.94-23.62,36.93-6.89,5.5-14.76,9.38-23.36,11.83.08-.51.17-1,.23-1.54Zm41.29-27.97c4.44-7.7,7.69-16.48,9.7-26.21.52-.91.99-1.85,1.5-2.77,1.84,7.58-2.03,17.68-11.2,28.99Zm11.42-34.53l-.29-.09c.8-6.24,1.1-12.85.97-19.74,2.04-2.02,4.02-4.06,5.96-6.11,1.49-1.57,4.08-.03,3.39,2.02-2.81,8.34-6.15,16.33-10.02,23.91Zm.6-23.22c-.31-7.59-1.16-15.53-2.59-23.8-2.29-13.22-5.96-26.8-10.88-40.5-.37-1.03-.13-2.18.61-2.98,7.57-8.18,14.4-16.53,20.38-24.97,1.28-1.8,2.5-3.6,3.68-5.39,1.68-2.55,5.62-1.7,6.07,1.33,3.82,25.51,3.12,51.19-2.32,75.83-.09.42-.19.83-.29,1.24-.68,2.86-2.02,5.52-3.95,7.73-3.39,3.88-6.96,7.71-10.71,11.51Zm17.33-19.96c6.24-28.26,6.32-57.86.56-87.01-.15-.77-.02-1.58.37-2.27,4.02-7.17,7.26-14.19,9.72-21.03,5.84,4.49,10.59,9.85,13.97,16.17,11.9,22.24,5.66,52.54-17.54,85.32-2.27,3.21-4.72,6.4-7.26,9.58.06-.25.13-.5.18-.75Zm-2.55-100.49c-.92-3.53-1.93-7.06-3.03-10.57-1.21-3.89,2.83-7.25,6.47-5.4,2.75,1.4,5.33,2.94,7.74,4.63-1.39,3.93-3.05,7.92-4.97,11.97-1.33,2.8-5.43,2.36-6.22-.63Zm-44.38-88.7c-2.21-2.79-4.48-5.53-6.8-8.2-1.88-2.16-.04-5.43,2.79-5,3.5.53,6.89,1.18,10.14,1.94.62.14,1.06.71,1.04,1.34-.07,2.66-.31,5.39-.72,8.16-.47,3.17-4.47,4.27-6.46,1.76Zm-100.6-71.45c-9.88-3.24-19.8-5.62-29.67-7.12-4.06-.62-7.95-2.14-11.22-4.63-1.72-1.31-3.74-2.41-6.04-3.28-2.1-.8-1.71-3.88.54-4.04,41.36-2.88,82.64,6.56,118.49,26.68-17.18-6.69-39.15-8.89-63.88-6.68-2.78.25-5.57-.08-8.22-.95Zm-182.1,45.38c-4.01,7.4-6.94,15.69-8.79,24.73-.52.91-1.02,1.83-1.52,2.75-1.63-7.54,2.24-17.22,10.31-27.48Zm-10.59,33.19l.35.1c-.75,5.97-1.05,12.23-.97,18.69,0,.47-.18.94-.52,1.27-3.38,3.38-6.62,6.77-9.69,10.19-.44.49-1.23.03-1.04-.6,3.11-10.33,7.07-20.26,11.87-29.66Zm-.35,26.92c1.19,18.79,5.69,39.26,13.26,60.41.94,2.63.36,5.55-1.51,7.63-8.68,9.6-16.22,19.3-22.51,28.93-1.7,2.61-5.71,1.77-6.22-1.3-4.31-26.38-3.73-52.55,1.39-77,1.1-5.22,3.54-10.07,7.11-14.04,1.74-1.93,3.54-3.86,5.39-5.78,1.08-1.13,2.98-.41,3.08,1.15Zm-17.8,108.65c-3.54,6.43-6.47,12.79-8.8,19.04-6.75-4.79-12.05-10.66-15.73-17.55-13.32-24.91-3.26-59.08,23.37-93.08.41-.52,1.23-.14,1.1.51-5.98,28.09-5.99,58.43.41,88.78.16.78.04,1.6-.35,2.3Zm1.33,2.37c1.2,5.14,2.6,10.28,4.19,15.41,1.29,4.17-3.18,7.72-7.04,5.68-1.84-.97-3.6-2.01-5.28-3.1,2.15-5.9,4.86-11.91,8.13-17.99Zm40.88,87.95c3.34,4.5,6.82,8.84,10.43,13.02,3.06,3.55-.11,8.88-4.72,8.04-2.77-.51-5.47-1.09-8.08-1.76-.14-6.17.69-12.64,2.37-19.3Zm38.28,25.83c10.4-.15,21.36-1.1,32.74-2.83,2.12-.32,4.23.54,5.52,2.26,8.44,11.28,17.43,21.51,26.87,30.48,5.98,5.69,12.01,10.74,18.05,15.16-6.56,1.27-12.98,2.26-19.24,2.98-.18.02-.37,0-.54-.06-23.63-8.4-46.31-21.68-66.53-39.29-3.43-2.99-1.41-8.62,3.14-8.69Zm85.87,46.95c5.7,3.99,11.41,7.42,17.09,10.26l-.03.09c-9.79-1.15-19.55-3.15-29.19-5.97-1.2-.35-1.1-2.06.14-2.25,3.94-.61,7.94-1.32,11.99-2.13Zm24.07,13.46c9.22,3.85,18.34,6.17,27.22,6.87-13.61,1.15-24.22-1.12-29.53-7.06.77.07,1.54.13,2.31.19Zm151.13-68.97c1.92-5.76,2.03-10.95.24-15.32,5.88-11.24,10.62-23.35,14.15-36.22.59-2.15,1.62-4.16,3.03-5.89,2.99-3.67,5.82-7.36,8.45-11.08,6.85-9.68,12.25-19.16,16.16-28.31.93-2.18,4.23-1.26,3.83,1.09-5.91,35.26-20.67,68.82-43.24,97.12-1.05,1.31-3.16.21-2.62-1.38Zm48.41-143.15c-1.02-4.65-2.62-9.08-4.84-13.24-3.65-6.83-8.84-12.59-15.26-17.36,3.14-9.32,4.78-18.25,4.93-26.69.03-1.95,2.74-2.44,3.4-.59,6.75,18.96,10.62,38.43,11.77,57.88Zm-65.39-119.09c-2.01-.59-3.5-2.31-3.66-4.4-.58-7.54-2.55-14.58-5.98-21-2.02-3.77-4.53-7.19-7.42-10.33,18.91,14.41,35.6,32.21,49.07,53.08-8.22-7.68-18.98-13.53-32.01-17.37Zm-308.27,4.93c-.58,2.62-.74,5.11-.48,7.45.34,2.98-.06,6.01-1.37,8.71-3.94,8.12-7.29,16.59-10.02,25.36-1.91,6.13-4.88,11.85-8.78,16.95-13.72,17.93-22.89,35.9-26.58,52.58,3.15-40.79,18.1-80.18,43.23-112.89,1.45-1.88,4.51-.49,4,1.84Zm-47.44,140.47c1.01,4.14,2.45,8.14,4.47,11.9,3.97,7.41,9.71,13.68,17.03,18.75-3.54,10.18-5.39,20.03-5.39,29.34,0,1.79-2.5,2.23-3.13.56-7.44-19.79-11.7-40.19-12.97-60.55Zm61.73,118.51c4.05,1.39,6.99,4.94,7.71,9.16.92,5.45,2.64,10.64,5.23,15.48,2.38,4.45,5.42,8.45,9.01,12.03-19.02-14.28-35.54-31.78-48.88-51.95,7.23,6.55,16.33,11.63,26.94,15.28Zm63.48,56.3c14.56,2.7,31.27,3.06,49.36,1.11.16-.02.33,0,.49.06,12.18,4.27,24.61,7.28,37.09,8.9,2.32.3,4.39,1.45,6.07,3.08,4.98,4.82,13.4,7.19,24.01,7.22-30.7,4.68-62.3,2.5-92.89-6.77-8.73-2.64-17.19-5.82-25.38-9.49-2.34-1.05-1.27-4.57,1.25-4.1Z"/>
  <g>
    <path class="cls-1" d="m591.28,230.85c0-114.03,2.19-111.84-111.84-111.84,114.03,0,111.84,2.19,111.84-111.84,0,114.03-2.19,111.84,111.84,111.84-114.03,0-111.84-2.19-111.84,111.84Z"/>
    <path class="cls-2" d="m591.28,230.85c0-114.03,2.19-111.84-111.84-111.84,114.03,0,111.84,2.19,111.84-111.84,0,114.03-2.19,111.84,111.84,111.84-114.03,0-111.84-2.19-111.84,111.84Z"/>
  </g>
  <path class="cls-1" d="m583.34,135.32c-9.61,14.15-20.55,27.24-31.69,40.16-25.31,28.74-51.6,56.76-80.6,81.84-62.83,50.88-133.22,92.35-207.68,123.76-62.67,25.52-128.94,47.31-197.2,48.16-16.83-.39-34.75-1.73-49.38-10.82-25.9-16.71-5.37-48.99,8.25-67.11,15.43-20.33,33.58-38.43,52.13-55.89-18.48,17.53-36.55,35.68-51.9,56.06-13.36,17.98-33.83,50.01-8.17,66.47,25.71,15.73,70.8,10.53,99.75,6.07,117.08-21.2,226.78-75.49,322.53-145.09,13.58-10.15,27.18-20.34,39.64-31.85,31.01-28.9,60.09-60.04,86.73-93.02,5.27-6.63,10.38-13.4,15.07-20.4,0,0,2.5,1.66,2.5,1.66h0Z"/>
</svg>