<svg xmlns="http://www.w3.org/2000/svg" xmlns:xlink="http://www.w3.org/1999/xlink" width="1080" zoomAndPan="magnify" viewBox="0 0 810 809.999993" height="1080" preserveAspectRatio="xMidYMid meet" version="1.0"><path fill="#309ae0" d="M 115.976562 662.726562 L 379.222656 241.160156 L 335.042969 239.320312 C 296.382812 239.320312 255.882812 248.523438 237.476562 279.820312 L 88.363281 511.773438 L 38.65625 589.089844 L 38.65625 618.542969 Z M 115.976562 662.726562 " fill-opacity="1" fill-rule="nonzero"/><path fill="#309ae0" d="M 723.472656 180.410156 L 430.769531 12.886719 C 410.519531 1.84375 384.746094 1.84375 364.496094 12.886719 C 362.65625 14.730469 81 176.726562 81 176.726562 C 57.066406 187.773438 40.5 213.546875 38.660156 241.160156 L 38.660156 589.089844 L 88.363281 511.773438 L 88.363281 243 C 88.363281 235.636719 92.046875 228.273438 99.410156 224.589844 C 101.25 224.589844 386.589844 57.070312 388.429688 57.070312 C 395.792969 53.386719 403.15625 53.386719 410.519531 57.070312 L 699.542969 222.75 C 706.90625 226.433594 710.585938 233.796875 710.585938 243 L 710.585938 524.65625 L 550.429688 276.136719 L 491.519531 377.386719 L 646.15625 627.75 L 616.703125 644.316406 L 469.429688 412.363281 L 401.316406 528.339844 L 513.609375 703.222656 L 408.679688 763.972656 C 403.15625 765.816406 395.792969 765.816406 390.269531 763.972656 L 266.929688 692.179688 L 246.679688 727.15625 L 266.929688 692.179688 L 532.019531 241.160156 L 414.203125 241.160156 L 147.273438 681.132812 L 241.15625 734.519531 L 351.613281 798.953125 L 360.816406 804.472656 C 364.496094 806.316406 368.179688 808.15625 368.179688 808.15625 C 375.542969 811.839844 386.589844 813.679688 397.632812 813.679688 C 406.839844 813.679688 416.042969 811.839844 425.246094 808.15625 L 728.996094 631.429688 C 745.5625 618.542969 756.609375 598.292969 758.449219 576.203125 L 758.449219 239.320312 C 756.609375 215.386719 743.722656 193.296875 723.472656 180.410156 Z M 723.472656 180.410156 " fill-opacity="1" fill-rule="nonzero"/></svg>