<svg xmlns="http://www.w3.org/2000/svg" xmlns:xlink="http://www.w3.org/1999/xlink" width="1080" zoomAndPan="magnify" viewBox="0 0 810 809.999993" height="1080" preserveAspectRatio="xMidYMid meet" version="1.0"><path fill="#309ae0" d="M 405 810 C 628.714844 810 810 628.714844 810 405 C 810 181.285156 628.714844 0 405 0 C 181.285156 0 0 181.285156 0 405 C 0 628.714844 181.285156 810 405 810 " fill-opacity="1" fill-rule="nonzero"/><path fill="#ffffff" d="M 294.105469 518.785156 C 270 518.785156 249.75 513 234.320312 501.429688 C 218.894531 489.855469 211.179688 472.5 211.179688 450.320312 C 211.179688 445.5 212.144531 439.714844 213.105469 432.964844 C 216 417.535156 219.855469 399.214844 224.679688 378 C 238.179688 320.144531 274.820312 291.214844 332.679688 291.214844 C 348.105469 291.214844 362.570312 294.105469 375.105469 299.894531 C 387.644531 304.714844 397.285156 313.394531 405 324 C 411.75 334.605469 415.605469 347.144531 415.605469 361.605469 C 415.605469 366.429688 414.644531 371.25 413.679688 378 C 410.785156 396.320312 406.929688 414.644531 403.070312 432 C 396.320312 460.929688 383.785156 482.144531 365.464844 496.605469 C 347.144531 511.070312 323.035156 518.785156 294.105469 518.785156 Z M 297.964844 473.464844 C 309.535156 473.464844 319.179688 469.605469 326.894531 462.855469 C 335.570312 456.105469 341.355469 445.5 344.25 431.035156 C 349.070312 411.75 352.929688 394.394531 354.855469 378.964844 C 355.820312 374.144531 355.820312 370.285156 355.820312 365.464844 C 355.820312 346.179688 346.179688 336.535156 326.894531 336.535156 C 315.320312 336.535156 305.679688 340.394531 297 347.144531 C 289.285156 353.894531 283.5 364.5 279.644531 378.964844 C 275.785156 393.429688 271.929688 409.820312 269.035156 431.035156 C 268.070312 435.855469 268.070312 439.714844 268.070312 444.535156 C 268.070312 463.820312 278.679688 473.464844 297.964844 473.464844 M 428.144531 514.929688 C 426.214844 514.929688 424.285156 513.964844 423.320312 513 C 422.355469 511.070312 422.355469 509.144531 422.355469 507.214844 L 464.785156 302.785156 C 464.785156 300.855469 466.714844 298.929688 468.644531 297 C 470.570312 296.035156 472.5 295.070312 474.429688 295.070312 L 556.394531 295.070312 C 579.535156 295.070312 597.855469 299.890625 611.355469 309.535156 C 624.855469 319.179688 632.570312 333.640625 632.570312 351 C 632.570312 356.785156 631.605469 361.605469 630.644531 367.390625 C 625.820312 391.5 615.214844 409.820312 599.785156 421.390625 C 584.355469 432.964844 563.144531 438.75 536.144531 438.75 L 494.679688 438.75 L 480.214844 508.179688 C 480.214844 510.105469 478.285156 512.035156 476.355469 513.964844 C 474.429688 514.929688 472.5 515.890625 470.570312 515.890625 Z M 537.105469 395.355469 C 545.785156 395.355469 553.5 392.464844 559.285156 387.644531 C 566.035156 382.820312 569.894531 376.070312 571.820312 366.429688 C 572.785156 362.570312 572.785156 359.679688 572.785156 356.785156 C 572.785156 351 570.855469 346.179688 567.964844 343.285156 C 564.105469 340.394531 558.320312 338.464844 549.644531 338.464844 L 513 338.464844 L 501.429688 394.394531 L 537.105469 394.394531 Z M 537.105469 395.355469 " fill-opacity="1" fill-rule="nonzero"/></svg>