<?xml version="1.0" encoding="utf-8"?>
<!-- Generator: Adobe Illustrator 19.0.0, SVG Export Plug-In . SVG Version: 6.00 Build 0)  -->
<svg version="1.1" id="Layer_1" xmlns="http://www.w3.org/2000/svg" xmlns:xlink="http://www.w3.org/1999/xlink" x="0px" y="0px"
	 viewBox="-681 735 137 32" style="enable-background:new -681 735 137 32;" xml:space="preserve">
<style type="text/css">
	.st0{fill:#65FDEB;}
	.st1{fill:#FFD12E;}
	.st2{fill:#FFFFFF;}
</style>
<path class="st0" d="M-682.8,763.7h17.6v2.6h-17.6V763.7z"/>
<path class="st0" d="M-680.9,755.6h26.6v2.6h-26.6V755.6z"/>
<path class="st0" d="M-679.1,747.6h23.6v2.6h-23.6V747.6z"/>
<path class="st0" d="M-677.2,739.5h20.4v2.6h-20.4V739.5z"/>
<path class="st1" d="M-670.4,759.7h20.6v2.6h-20.6V759.7z"/>
<path class="st1" d="M-671.5,751.6h23.6v2.6h-23.6V751.6z"/>
<path class="st1" d="M-672.7,743.5h26.6v2.6h-26.6V743.5z"/>
<path class="st1" d="M-661.8,735.7h17.6v2.6h-17.6V735.7z"/>
<path class="st2" d="M-641.1,762.8l4.2-23.9h3.2l9.1,18.6l3.3-18.6h3.3l-4.2,23.9h-3.3l-9-18.6l-3.3,18.6H-641.1z"/>
<path class="st2" d="M-611.7,763.2c-2.1,0-3.8-0.6-5.1-1.9c-1.3-1.3-1.9-3-1.9-5.2c0-1.6,0.3-3.1,0.8-4.4c0.6-1.3,1.3-2.4,2.3-3.3
	c1-0.9,2-1.6,3.2-2.1c1.2-0.5,2.5-0.7,3.8-0.7c1.6,0,2.9,0.3,3.9,1c1,0.6,1.8,1.4,2.3,2.4c0.5,1,0.8,2,0.8,3.1c0,0.5-0.1,1-0.2,1.6
	c-0.1,0.6-0.2,1.1-0.3,1.5h-13.3l-0.1,0.5v0.4c0,1.5,0.4,2.6,1.3,3.3c0.8,0.7,1.9,1.1,3.1,1.1c1.1,0,2-0.3,2.9-0.8
	c0.8-0.5,1.5-1.2,2-2h3.3c-0.5,1.1-1.2,2.1-2.1,2.9c-0.9,0.8-1.9,1.5-3,1.9C-609.2,762.9-610.4,763.2-611.7,763.2z M-615,752.7h10
	c0-0.1,0-0.2,0-0.3c0-0.1,0-0.2,0-0.3c0-1.2-0.4-2.2-1.1-2.8c-0.8-0.7-1.7-1.1-3-1.1c-1.3,0-2.5,0.4-3.6,1.2
	C-613.7,750.1-614.5,751.2-615,752.7z"/>
<path class="st2" d="M-597.6,738.8l-4.2,23.9h3.3l1.5-8.4l6.1,8.4h4l-6.9-9.1l9-7.8l-0.5,2.7h2.7l-1.6,8.7c0,0.3-0.1,0.6-0.1,0.9
	c0,0.3,0,0.5,0,0.8c0,1.4,0.4,2.4,1.2,3c0.8,0.6,2,0.9,3.4,0.9h2.7l0.5-2.8h-2.3c-0.8,0-1.4-0.1-1.7-0.4c-0.3-0.3-0.5-0.7-0.5-1.4
	v-0.4l0.1-0.5l1.6-8.7h4.9l0.5-2.8h-4.9l0.8-4.1h-3.3l-0.7,4.1h-6.9l-7.8,7.1l2.5-14.1H-597.6z"/>
<path class="st2" d="M-572.4,762.6c0.8,0.3,1.7,0.5,2.7,0.5c1,0,2-0.2,2.8-0.5c0.8-0.3,1.5-0.7,2.1-1.3c0.3-0.3,0.6-0.6,0.9-0.9
	l-0.5,2.2h3.6l1.6-9l0,0l0.2-1.3c0-0.3,0.1-0.6,0.1-0.8c0-0.3,0-0.5,0-0.8c0-1.2-0.3-2.2-0.8-3c-0.5-0.8-1.2-1.4-2.2-1.8
	c-0.9-0.4-2-0.6-3.2-0.6c-1.3,0-2.5,0.2-3.6,0.6c-1.1,0.4-2.1,1.1-2.9,1.9c-0.8,0.8-1.4,1.9-1.9,3.2h3.3c0.4-1,1-1.8,1.8-2.3
	c0.9-0.5,1.8-0.8,2.8-0.8c1.1,0,1.9,0.3,2.5,0.8c0.6,0.5,0.9,1.3,0.9,2.3c0,0.2,0,0.4,0,0.6c0,0.2,0,0.4-0.1,0.7h-4.4
	c-1.5,0-2.9,0.2-4.1,0.7c-1.3,0.4-2.3,1.1-3,2c-0.8,0.9-1.2,2-1.2,3.4c0,1,0.2,1.8,0.7,2.5C-573.9,761.8-573.2,762.3-572.4,762.6z
	 M-565.9,759.6c-0.8,0.5-1.7,0.8-2.8,0.8c-0.8,0-1.5-0.2-2.1-0.5c-0.5-0.4-0.8-0.9-0.8-1.7c0-0.8,0.2-1.4,0.6-1.9
	c0.5-0.5,1-0.8,1.7-1c0.7-0.2,1.5-0.3,2.3-0.3h4.2c-0.2,0.9-0.5,1.8-1.1,2.7C-564.4,758.4-565,759.1-565.9,759.6z"/>
<path class="st2" d="M-558.5,762.8l3-16.9h3l-0.3,3c0.8-1,1.7-1.9,2.9-2.5c1.2-0.6,2.5-1,4-1l-0.6,3.4h-0.9c-1.3,0-2.3,0.2-3.2,0.6
	c-0.9,0.4-1.6,1-2.1,1.7c-0.5,0.8-0.9,1.7-1.1,2.7l-1.5,8.8H-558.5z"/>
</svg>
