<svg width="490" height="80" viewBox="0 0 490 80" fill="none" xmlns="http://www.w3.org/2000/svg">
<path fill-rule="evenodd" clip-rule="evenodd" d="M97.6819 13.8024C91.8106 10.9143 85.5436 12.4877 79.8359 15.2896C75.1003 10.2687 68.966 6.78585 62.2278 5.29217C55.4896 3.79848 48.4581 4.36287 42.0444 6.91219C35.6307 9.46151 30.1305 13.8783 26.2563 19.5901C22.3822 25.302 20.3128 32.0457 20.3162 38.9475C20.3209 40.4326 20.4202 41.9158 20.6137 43.3882C15.0219 45.4464 9.95064 48.8223 7.64552 54.4647C4.84963 60.9011 10.8132 65.9218 16.9671 65.8386C31.1154 65.1353 42.2508 54.8524 52.3213 45.5528L52.3218 45.5523C53.3256 44.6254 54.3189 43.7081 55.3035 42.8112C56.3348 41.8434 57.3674 40.8617 58.4052 39.8751C64.7382 33.8546 71.2614 27.6531 78.8242 23.339L78.8212 23.3329C80.4864 22.3207 82.234 21.4506 84.0453 20.7317L84.4144 20.5853L84.4175 20.5923C85.5977 20.1205 86.7992 19.7038 88.0183 19.3436C90.0289 18.7933 95.7218 18.02 94.9366 21.4018V21.39C93.468 24.778 90.8164 26.7244 87.7465 28.0827L87.7508 28.0922L85.2239 29.1226L82.494 29.9697C83.3153 32.5003 83.7896 35.1429 83.8939 37.8253C84.0975 43.0604 82.8844 48.2535 80.3827 52.8566C77.881 57.4598 74.1834 61.3025 69.6799 63.9795C65.1764 66.6564 60.0339 68.0683 54.7948 68.0663C48.5071 68.0663 40.6875 66.365 39.0665 63.8309L34.5574 66.716C37.9422 72.0074 48.8699 73.4202 54.7829 73.4202C59.6582 73.4235 64.4788 72.3925 68.9261 70.3951C73.3735 68.3977 77.3465 65.4795 80.5827 61.8332C83.8188 58.1868 86.2446 53.8954 87.6996 49.2423C89.1547 44.5892 89.6059 39.6803 89.0236 34.8399C94.7165 32.517 99.7312 28.6771 101.477 22.5618C102.468 18.7933 101.099 15.6733 97.6819 13.8024ZM17.672 59.2712C13.6626 59.5389 12.3182 57.091 15.4115 54.3963C17.3328 52.479 19.6035 50.9473 22.1008 49.8842C22.9527 52.4391 24.106 54.8834 25.5362 57.1654C23.0574 58.3256 20.3931 59.0386 17.6661 59.2712H17.672ZM45.5506 42.2133C43.8159 43.4739 42.2495 44.9511 40.8896 46.609C40.6022 46.3039 40.3776 45.9454 40.2283 45.5537C40.0785 45.1606 40.0076 44.7419 40.0196 44.3214C40.0438 43.4721 40.4045 42.6673 41.0221 42.084C41.6398 41.5006 42.4639 41.1865 43.3132 41.2108C44.1624 41.235 44.9672 41.5957 45.5506 42.2133ZM45.6636 32.053C45.012 32.0536 44.3748 31.8612 43.8324 31.5C43.2892 31.1382 42.8654 30.6235 42.6149 30.0209C42.3643 29.4182 42.2981 28.7548 42.4247 28.1146C42.5513 27.4743 42.865 26.886 43.3261 26.4241C43.7872 25.9622 44.3749 25.6475 45.0149 25.5197C45.6549 25.3919 46.3185 25.4569 46.9215 25.7064C47.5246 25.9559 48.0401 26.3787 48.4029 26.9212C48.7656 27.4638 48.9592 28.1018 48.9592 28.7544C48.9596 29.1877 48.8745 29.6168 48.7089 30.0172C48.5433 30.4176 48.3003 30.7814 47.9939 31.0877C47.6875 31.3941 47.3238 31.6371 46.9234 31.8027C46.5239 31.9679 46.0959 32.053 45.6636 32.053ZM59.3129 28.8615C59.0395 28.5414 58.8318 28.1706 58.7016 27.7702C58.5715 27.3699 58.5216 26.9478 58.5546 26.5281C58.5876 26.1085 58.7029 25.6994 58.894 25.3243C59.0851 24.9492 59.3482 24.6154 59.6683 24.342C60.3148 23.7898 61.1541 23.517 62.0017 23.5837C62.4214 23.6167 62.8304 23.732 63.2055 23.9231C63.5806 24.1142 63.9144 24.3773 64.1878 24.6974C62.3922 25.8722 60.7539 27.2716 59.3129 28.8615ZM71.823 19.9712C71.0794 20.4768 70.6124 20.6255 69.8093 19.9712C65.9992 16.8541 61.6031 15.1438 56.6984 14.5906C54.1481 14.3034 51.5677 14.4431 49.0633 15.004C49.4758 15.3688 49.7903 15.8311 49.9781 16.3487C50.1659 16.8664 50.221 17.4228 50.1384 17.9672C50.0558 18.5116 49.8381 19.0266 49.5052 19.4652C49.1723 19.9038 48.7348 20.252 48.2326 20.478C47.7305 20.704 47.1798 20.8005 46.6307 20.7589C46.0816 20.7172 45.5518 20.5386 45.0895 20.2394C44.6272 19.9403 44.2473 19.53 43.9844 19.0462C43.7215 18.5624 43.584 18.0204 43.5845 17.4698C43.5852 17.2883 43.6011 17.1072 43.6321 16.9284C38.4515 19.5028 34.3146 23.7815 31.9162 29.0459C32.0494 29.0294 32.1835 29.0205 32.3177 29.0191C32.8491 29.0233 33.3717 29.1558 33.8408 29.4053C34.31 29.6548 34.712 30.014 35.0125 30.4523C35.313 30.8906 35.5032 31.395 35.5668 31.9226C35.6304 32.4502 35.5656 32.9854 35.378 33.4826C35.1903 33.9797 34.8852 34.4242 34.4888 34.7781C34.0924 35.1321 33.6164 35.385 33.1012 35.5153C32.586 35.6457 32.047 35.6497 31.5299 35.5269C31.0129 35.4041 30.5331 35.1583 30.1316 34.8102C29.8539 36.4604 29.7541 38.1356 29.8341 39.8071C29.8341 39.8071 30.1554 44.5839 31.8716 48.2096C32.269 49.0514 32.6075 49.7095 32.8778 50.2348C33.4436 51.3345 33.7099 51.8521 33.5897 52.2543C33.4828 52.6119 33.0704 52.8781 32.2913 53.3812L32.2255 53.4236C31.5801 53.8401 30.9287 54.2505 30.2654 54.6521C26.4118 48.6464 24.8981 41.4346 26.0117 34.3864C27.1253 27.3381 30.7887 20.9443 36.3061 16.4192C41.8235 11.8942 48.8106 9.55306 55.9405 9.84049C63.0704 10.1279 69.8465 13.0239 74.9817 17.9784C73.8901 18.6446 72.8342 19.3228 71.823 19.9831V19.9712ZM73.4978 54.054C72.9482 53.9806 72.4259 53.7697 71.9794 53.4408C71.5329 53.1119 71.1766 52.6756 70.9435 52.1724C70.7105 51.6692 70.6082 51.1153 70.6461 50.5621C70.684 50.0088 70.8609 49.474 71.1604 49.0073C71.46 48.5406 71.8724 48.1571 72.3596 47.8921C72.8468 47.6272 73.393 47.4895 73.9475 47.4918C74.5021 47.4941 75.0471 47.6363 75.5321 47.9052C76.0171 48.1742 76.4264 48.5611 76.722 49.0303C78.2906 45.7524 79.0466 42.1449 78.926 38.513V38.1472C78.8807 38.0251 78.8488 37.8984 78.8308 37.7694C78.8102 37.6084 78.7899 37.4473 78.7696 37.2864L78.7691 37.2828C78.4971 35.1259 78.2268 32.9832 77.1949 31.0771L76.9243 31.1723C74.3158 33.0938 71.8292 35.1401 69.4051 37.2549C69.8913 37.4904 70.3121 37.8418 70.6305 38.2781C70.9489 38.7145 71.1552 39.2224 71.2312 39.7572C71.3072 40.292 71.2505 40.8373 71.0662 41.3451C70.8819 41.8529 70.5756 42.3076 70.1743 42.6691C69.773 43.0307 69.289 43.2881 68.7648 43.4187C68.2406 43.5492 67.6924 43.5489 67.1684 43.4178C66.6443 43.2866 66.1606 43.0287 65.7597 42.6667C65.3588 42.3046 65.053 41.8496 64.8693 41.3416C63.1879 42.8988 61.5245 44.4749 59.8608 46.0513L59.8607 46.0514C54.5521 51.0814 49.2404 56.1144 43.332 60.544C53.9266 66.1744 66.4843 62.4773 73.4978 54.054ZM57.6505 52.4686C58.303 52.4686 58.9409 52.6622 59.4834 53.0247C60.0259 53.3873 60.4487 53.9027 60.6983 54.5056C60.9478 55.1085 61.013 55.7719 60.8855 56.4118C60.758 57.0517 60.4435 57.6395 59.9819 58.1007C59.5203 58.5619 58.9323 58.8758 58.2922 59.0027C57.6522 59.1297 56.9888 59.0639 56.3862 58.8138C55.7835 58.5637 55.2685 58.1404 54.9064 57.5976C54.5443 57.0548 54.3514 56.4167 54.352 55.7642C54.3528 54.8899 54.7006 54.0517 55.3192 53.4337C55.9377 52.8158 56.7762 52.4686 57.6505 52.4686Z" fill="white"/>
<mask id="path-2-outside-1_1058:68542" maskUnits="userSpaceOnUse" x="124.643" y="6.63843" width="356" height="57" fill="black">
<rect fill="white" x="124.643" y="6.63843" width="356" height="57"/>
<path d="M146.308 10.103C151.294 10.103 155.552 11.6408 159.082 14.7163C162.612 17.7918 164.377 21.5019 164.377 25.8467C164.377 30.1426 162.612 33.8283 159.082 36.9038C155.552 39.9305 151.294 41.4438 146.308 41.4438H135.971V57.3339C135.971 58.4567 135.495 59.4087 134.542 60.1898C133.646 60.9708 132.553 61.3614 131.265 61.3614C129.976 61.3614 128.884 60.9708 127.987 60.1898C127.091 59.4087 126.643 58.4567 126.643 57.3339V14.1305C126.643 13.0077 127.091 12.0557 127.987 11.2746C128.884 10.4936 129.976 10.103 131.265 10.103H146.308ZM135.971 18.2311V33.3157H146.308C148.717 33.3157 150.762 32.5835 152.443 31.1189C154.124 29.6544 154.992 27.897 155.048 25.8467C154.992 23.6987 154.124 21.8924 152.443 20.4279C150.762 18.9634 148.717 18.2311 146.308 18.2311H135.971Z"/>
<path d="M174.207 25.9931C175.104 25.212 176.196 24.8215 177.485 24.8215C178.773 24.8215 179.838 25.212 180.678 25.9931C181.575 26.7254 182.023 27.6773 182.023 28.8489V57.4072C182.023 58.53 181.575 59.4819 180.678 60.263C179.838 60.9953 178.773 61.3614 177.485 61.3614C176.252 61.3614 175.188 60.9708 174.291 60.1898C173.395 59.4087 172.947 58.4811 172.947 57.4072V28.8489C172.947 27.6773 173.367 26.7254 174.207 25.9931ZM182.023 14.0572V15.595C182.023 16.7178 181.575 17.6697 180.678 18.4508C179.838 19.2319 178.773 19.6224 177.485 19.6224C176.252 19.6224 175.188 19.2319 174.291 18.4508C173.395 17.6697 172.947 16.7178 172.947 15.595V14.0572C172.947 12.9832 173.395 12.0557 174.291 11.2746C175.188 10.4936 176.252 10.103 177.485 10.103C178.773 10.103 179.838 10.4936 180.678 11.2746C181.575 12.0069 182.023 12.9344 182.023 14.0572Z"/>
<path d="M191.381 58.8717L191.129 58.2127V57.7001C191.073 57.6513 191.045 57.578 191.045 57.4804V57.4072L191.129 56.8946V56.6017C191.241 56.504 191.297 56.382 191.297 56.2355C191.297 56.0403 191.409 55.845 191.633 55.6497C191.633 55.5521 191.717 55.4301 191.885 55.2836H191.969L210.878 32.5102H195.499C194.322 32.5102 193.286 32.1441 192.389 31.4118C191.493 30.6308 191.045 29.7032 191.045 28.6292C191.045 27.5553 191.493 26.6521 192.389 25.9199C193.286 25.1388 194.322 24.7483 195.499 24.7483H219.786L220.291 24.8215H220.711C220.879 24.8215 220.991 24.8459 221.047 24.8947C221.159 24.9435 221.327 24.9923 221.551 25.0412C221.663 25.1876 221.747 25.2608 221.803 25.2608L222.392 25.5537C222.504 25.5537 222.56 25.6026 222.56 25.7002L222.98 26.0663C223.092 26.0663 223.204 26.1884 223.316 26.4325C223.484 26.6277 223.624 26.7254 223.736 26.7254C223.904 27.1647 223.988 27.4576 223.988 27.6041C223.988 27.7017 224.044 27.7994 224.156 27.897V28.3363L224.24 28.6292V28.7025L224.156 29.0686C224.156 29.4103 224.1 29.6788 223.988 29.8741C223.988 30.0694 223.904 30.1914 223.736 30.2402V30.4599L223.316 30.826V30.8993L204.323 53.5994H219.786C220.963 53.5994 221.999 53.9899 222.896 54.771C223.792 55.5033 224.24 56.4064 224.24 57.4804C224.24 58.5544 223.792 59.4819 222.896 60.263C221.999 60.9953 220.963 61.3614 219.786 61.3614H195.499C195.163 61.3614 194.882 61.337 194.658 61.2882H194.406C194.182 61.1905 194.014 61.1417 193.902 61.1417L193.23 60.8488C193.062 60.7023 192.978 60.6047 192.978 60.5559C192.753 60.5559 192.473 60.385 192.137 60.0433C191.801 59.6528 191.633 59.3843 191.633 59.2378C191.465 59.189 191.381 59.067 191.381 58.8717Z"/>
<path d="M233.026 58.8717L232.773 58.2127V57.7001C232.717 57.6513 232.689 57.578 232.689 57.4804V57.4072L232.773 56.8946V56.6017C232.886 56.504 232.942 56.382 232.942 56.2355C232.942 56.0403 233.054 55.845 233.278 55.6497C233.278 55.5521 233.362 55.4301 233.53 55.2836H233.614L252.523 32.5102H237.144C235.967 32.5102 234.931 32.1441 234.034 31.4118C233.138 30.6308 232.689 29.7032 232.689 28.6292C232.689 27.5553 233.138 26.6521 234.034 25.9199C234.931 25.1388 235.967 24.7483 237.144 24.7483H261.431L261.935 24.8215H262.356C262.524 24.8215 262.636 24.8459 262.692 24.8947C262.804 24.9435 262.972 24.9923 263.196 25.0412C263.308 25.1876 263.392 25.2608 263.448 25.2608L264.036 25.5537C264.148 25.5537 264.205 25.6026 264.205 25.7002L264.625 26.0663C264.737 26.0663 264.849 26.1884 264.961 26.4325C265.129 26.6277 265.269 26.7254 265.381 26.7254C265.549 27.1647 265.633 27.4576 265.633 27.6041C265.633 27.7017 265.689 27.7994 265.801 27.897V28.3363L265.885 28.6292V28.7025L265.801 29.0686C265.801 29.4103 265.745 29.6788 265.633 29.8741C265.633 30.0694 265.549 30.1914 265.381 30.2402V30.4599L264.961 30.826V30.8993L245.968 53.5994H261.431C262.608 53.5994 263.644 53.9899 264.541 54.771C265.437 55.5033 265.885 56.4064 265.885 57.4804C265.885 58.5544 265.437 59.4819 264.541 60.263C263.644 60.9953 262.608 61.3614 261.431 61.3614H237.144C236.807 61.3614 236.527 61.337 236.303 61.2882H236.051C235.827 61.1905 235.659 61.1417 235.547 61.1417L234.874 60.8488C234.706 60.7023 234.622 60.6047 234.622 60.5559C234.398 60.5559 234.118 60.385 233.782 60.0433C233.446 59.6528 233.278 59.3843 233.278 59.2378C233.11 59.189 233.026 59.067 233.026 58.8717Z"/>
<path d="M291.099 61.3614C285.44 61.3614 280.678 59.5795 276.812 56.0159C273.002 52.4522 271.098 48.1562 271.098 43.128C271.098 38.051 273.002 33.7307 276.812 30.167C280.678 26.5545 285.44 24.7483 291.099 24.7483C295.077 24.7483 298.803 25.8222 302.276 27.9702C302.557 27.0427 303.089 26.286 303.873 25.7002C304.658 25.0656 305.61 24.7483 306.731 24.7483C307.907 24.7483 308.916 25.1388 309.756 25.9199C310.652 26.701 311.101 27.6285 311.101 28.7025V57.4804C311.101 58.5544 310.652 59.4819 309.756 60.263C308.916 60.9953 307.907 61.3614 306.731 61.3614C305.61 61.3614 304.658 61.0685 303.873 60.4827C303.089 59.8969 302.557 59.1402 302.276 58.2127C298.859 60.3118 295.133 61.3614 291.099 61.3614ZM280.09 43.128C280.09 46.0571 281.098 48.5224 283.115 50.5239C285.188 52.5254 287.822 53.5262 291.015 53.5262C294.265 53.5262 296.926 52.5254 298.999 50.5239C301.128 48.5224 302.192 46.0571 302.192 43.128C302.192 40.199 301.128 37.7093 298.999 35.659C296.87 33.6086 294.209 32.5835 291.015 32.5835C287.878 32.5835 285.272 33.6086 283.199 35.659C281.126 37.6605 280.09 40.1502 280.09 43.128Z"/>
<path d="M322.353 57.3339V14.1305C322.353 13.0077 322.801 12.0557 323.698 11.2746C324.594 10.4936 325.687 10.103 326.975 10.103H336.892C345.016 10.103 351.935 12.6171 357.65 17.6453C363.365 22.6247 366.222 28.6537 366.222 35.7322C366.222 42.8107 363.365 48.8641 357.65 53.8923C351.935 58.8717 345.016 61.3614 336.892 61.3614H326.975C325.687 61.3614 324.594 60.9708 323.698 60.1898C322.801 59.4087 322.353 58.4567 322.353 57.3339ZM331.681 18.2311V53.2333H336.892C342.439 53.1844 347.145 51.4758 351.011 48.1074C354.933 44.6902 356.893 40.5651 356.893 35.7322C356.893 30.8993 354.933 26.7742 351.011 23.357C347.145 19.9397 342.439 18.2311 336.892 18.2311H331.681Z"/>
<path d="M408.478 58.7985L404.36 49.279H383.939L379.821 58.7985C379.036 60.5071 377.664 61.3614 375.703 61.3614C373.798 61.3614 372.425 60.7756 371.585 59.604C370.744 58.3835 370.576 57.1387 371.08 55.8694L389.653 12.7392C390.045 11.9581 390.634 11.3234 391.418 10.8353C392.258 10.3471 393.155 10.1274 394.107 10.1762C396.236 10.0786 397.721 10.9329 398.562 12.7392L417.134 55.8694C417.639 57.1387 417.471 58.3835 416.63 59.604C415.79 60.7756 414.389 61.3614 412.428 61.3614C410.523 61.3614 409.207 60.5071 408.478 58.7985ZM387.3 41.2242H394.107H400.915L394.107 25.4805L387.3 41.2242Z"/>
<path d="M429.836 53.5993C424.29 48.4247 421.517 42.2249 421.517 34.9999C421.517 27.7749 424.29 21.5751 429.836 16.4004C435.439 11.2258 442.246 8.63843 450.258 8.63843C458.27 8.63843 465.049 11.2746 470.596 16.5469C476.199 21.7703 479 27.9457 479 35.0731C479 42.2005 476.171 48.3515 470.512 53.5261C467.991 55.967 464.965 57.8953 461.436 59.311C457.906 60.6779 454.236 61.3613 450.426 61.3613C442.302 61.3613 435.439 58.774 429.836 53.5993ZM431.097 34.9999C431.097 39.9304 432.974 44.1776 436.728 47.7412C440.482 51.2561 444.992 53.0135 450.258 53.0135C455.581 53.0135 460.091 51.2317 463.789 47.668C467.543 44.0555 469.419 39.8328 469.419 34.9999C469.419 30.1669 467.571 25.9686 463.873 22.405C460.175 18.7925 455.637 16.9862 450.258 16.9862C444.936 16.9862 440.398 18.7681 436.644 22.3317C432.946 25.8466 431.097 30.0693 431.097 34.9999Z"/>
</mask>
<path d="M146.308 10.103C151.294 10.103 155.552 11.6408 159.082 14.7163C162.612 17.7918 164.377 21.5019 164.377 25.8467C164.377 30.1426 162.612 33.8283 159.082 36.9038C155.552 39.9305 151.294 41.4438 146.308 41.4438H135.971V57.3339C135.971 58.4567 135.495 59.4087 134.542 60.1898C133.646 60.9708 132.553 61.3614 131.265 61.3614C129.976 61.3614 128.884 60.9708 127.987 60.1898C127.091 59.4087 126.643 58.4567 126.643 57.3339V14.1305C126.643 13.0077 127.091 12.0557 127.987 11.2746C128.884 10.4936 129.976 10.103 131.265 10.103H146.308ZM135.971 18.2311V33.3157H146.308C148.717 33.3157 150.762 32.5835 152.443 31.1189C154.124 29.6544 154.992 27.897 155.048 25.8467C154.992 23.6987 154.124 21.8924 152.443 20.4279C150.762 18.9634 148.717 18.2311 146.308 18.2311H135.971Z" fill="white"/>
<path d="M174.207 25.9931C175.104 25.212 176.196 24.8215 177.485 24.8215C178.773 24.8215 179.838 25.212 180.678 25.9931C181.575 26.7254 182.023 27.6773 182.023 28.8489V57.4072C182.023 58.53 181.575 59.4819 180.678 60.263C179.838 60.9953 178.773 61.3614 177.485 61.3614C176.252 61.3614 175.188 60.9708 174.291 60.1898C173.395 59.4087 172.947 58.4811 172.947 57.4072V28.8489C172.947 27.6773 173.367 26.7254 174.207 25.9931ZM182.023 14.0572V15.595C182.023 16.7178 181.575 17.6697 180.678 18.4508C179.838 19.2319 178.773 19.6224 177.485 19.6224C176.252 19.6224 175.188 19.2319 174.291 18.4508C173.395 17.6697 172.947 16.7178 172.947 15.595V14.0572C172.947 12.9832 173.395 12.0557 174.291 11.2746C175.188 10.4936 176.252 10.103 177.485 10.103C178.773 10.103 179.838 10.4936 180.678 11.2746C181.575 12.0069 182.023 12.9344 182.023 14.0572Z" fill="white"/>
<path d="M191.381 58.8717L191.129 58.2127V57.7001C191.073 57.6513 191.045 57.578 191.045 57.4804V57.4072L191.129 56.8946V56.6017C191.241 56.504 191.297 56.382 191.297 56.2355C191.297 56.0403 191.409 55.845 191.633 55.6497C191.633 55.5521 191.717 55.4301 191.885 55.2836H191.969L210.878 32.5102H195.499C194.322 32.5102 193.286 32.1441 192.389 31.4118C191.493 30.6308 191.045 29.7032 191.045 28.6292C191.045 27.5553 191.493 26.6521 192.389 25.9199C193.286 25.1388 194.322 24.7483 195.499 24.7483H219.786L220.291 24.8215H220.711C220.879 24.8215 220.991 24.8459 221.047 24.8947C221.159 24.9435 221.327 24.9923 221.551 25.0412C221.663 25.1876 221.747 25.2608 221.803 25.2608L222.392 25.5537C222.504 25.5537 222.56 25.6026 222.56 25.7002L222.98 26.0663C223.092 26.0663 223.204 26.1884 223.316 26.4325C223.484 26.6277 223.624 26.7254 223.736 26.7254C223.904 27.1647 223.988 27.4576 223.988 27.6041C223.988 27.7017 224.044 27.7994 224.156 27.897V28.3363L224.24 28.6292V28.7025L224.156 29.0686C224.156 29.4103 224.1 29.6788 223.988 29.8741C223.988 30.0694 223.904 30.1914 223.736 30.2402V30.4599L223.316 30.826V30.8993L204.323 53.5994H219.786C220.963 53.5994 221.999 53.9899 222.896 54.771C223.792 55.5033 224.24 56.4064 224.24 57.4804C224.24 58.5544 223.792 59.4819 222.896 60.263C221.999 60.9953 220.963 61.3614 219.786 61.3614H195.499C195.163 61.3614 194.882 61.337 194.658 61.2882H194.406C194.182 61.1905 194.014 61.1417 193.902 61.1417L193.23 60.8488C193.062 60.7023 192.978 60.6047 192.978 60.5559C192.753 60.5559 192.473 60.385 192.137 60.0433C191.801 59.6528 191.633 59.3843 191.633 59.2378C191.465 59.189 191.381 59.067 191.381 58.8717Z" fill="white"/>
<path d="M233.026 58.8717L232.773 58.2127V57.7001C232.717 57.6513 232.689 57.578 232.689 57.4804V57.4072L232.773 56.8946V56.6017C232.886 56.504 232.942 56.382 232.942 56.2355C232.942 56.0403 233.054 55.845 233.278 55.6497C233.278 55.5521 233.362 55.4301 233.53 55.2836H233.614L252.523 32.5102H237.144C235.967 32.5102 234.931 32.1441 234.034 31.4118C233.138 30.6308 232.689 29.7032 232.689 28.6292C232.689 27.5553 233.138 26.6521 234.034 25.9199C234.931 25.1388 235.967 24.7483 237.144 24.7483H261.431L261.935 24.8215H262.356C262.524 24.8215 262.636 24.8459 262.692 24.8947C262.804 24.9435 262.972 24.9923 263.196 25.0412C263.308 25.1876 263.392 25.2608 263.448 25.2608L264.036 25.5537C264.148 25.5537 264.205 25.6026 264.205 25.7002L264.625 26.0663C264.737 26.0663 264.849 26.1884 264.961 26.4325C265.129 26.6277 265.269 26.7254 265.381 26.7254C265.549 27.1647 265.633 27.4576 265.633 27.6041C265.633 27.7017 265.689 27.7994 265.801 27.897V28.3363L265.885 28.6292V28.7025L265.801 29.0686C265.801 29.4103 265.745 29.6788 265.633 29.8741C265.633 30.0694 265.549 30.1914 265.381 30.2402V30.4599L264.961 30.826V30.8993L245.968 53.5994H261.431C262.608 53.5994 263.644 53.9899 264.541 54.771C265.437 55.5033 265.885 56.4064 265.885 57.4804C265.885 58.5544 265.437 59.4819 264.541 60.263C263.644 60.9953 262.608 61.3614 261.431 61.3614H237.144C236.807 61.3614 236.527 61.337 236.303 61.2882H236.051C235.827 61.1905 235.659 61.1417 235.547 61.1417L234.874 60.8488C234.706 60.7023 234.622 60.6047 234.622 60.5559C234.398 60.5559 234.118 60.385 233.782 60.0433C233.446 59.6528 233.278 59.3843 233.278 59.2378C233.11 59.189 233.026 59.067 233.026 58.8717Z" fill="white"/>
<path d="M291.099 61.3614C285.44 61.3614 280.678 59.5795 276.812 56.0159C273.002 52.4522 271.098 48.1562 271.098 43.128C271.098 38.051 273.002 33.7307 276.812 30.167C280.678 26.5545 285.44 24.7483 291.099 24.7483C295.077 24.7483 298.803 25.8222 302.276 27.9702C302.557 27.0427 303.089 26.286 303.873 25.7002C304.658 25.0656 305.61 24.7483 306.731 24.7483C307.907 24.7483 308.916 25.1388 309.756 25.9199C310.652 26.701 311.101 27.6285 311.101 28.7025V57.4804C311.101 58.5544 310.652 59.4819 309.756 60.263C308.916 60.9953 307.907 61.3614 306.731 61.3614C305.61 61.3614 304.658 61.0685 303.873 60.4827C303.089 59.8969 302.557 59.1402 302.276 58.2127C298.859 60.3118 295.133 61.3614 291.099 61.3614ZM280.09 43.128C280.09 46.0571 281.098 48.5224 283.115 50.5239C285.188 52.5254 287.822 53.5262 291.015 53.5262C294.265 53.5262 296.926 52.5254 298.999 50.5239C301.128 48.5224 302.192 46.0571 302.192 43.128C302.192 40.199 301.128 37.7093 298.999 35.659C296.87 33.6086 294.209 32.5835 291.015 32.5835C287.878 32.5835 285.272 33.6086 283.199 35.659C281.126 37.6605 280.09 40.1502 280.09 43.128Z" fill="white"/>
<path d="M322.353 57.3339V14.1305C322.353 13.0077 322.801 12.0557 323.698 11.2746C324.594 10.4936 325.687 10.103 326.975 10.103H336.892C345.016 10.103 351.935 12.6171 357.65 17.6453C363.365 22.6247 366.222 28.6537 366.222 35.7322C366.222 42.8107 363.365 48.8641 357.65 53.8923C351.935 58.8717 345.016 61.3614 336.892 61.3614H326.975C325.687 61.3614 324.594 60.9708 323.698 60.1898C322.801 59.4087 322.353 58.4567 322.353 57.3339ZM331.681 18.2311V53.2333H336.892C342.439 53.1844 347.145 51.4758 351.011 48.1074C354.933 44.6902 356.893 40.5651 356.893 35.7322C356.893 30.8993 354.933 26.7742 351.011 23.357C347.145 19.9397 342.439 18.2311 336.892 18.2311H331.681Z" fill="white"/>
<path d="M408.478 58.7985L404.36 49.279H383.939L379.821 58.7985C379.036 60.5071 377.664 61.3614 375.703 61.3614C373.798 61.3614 372.425 60.7756 371.585 59.604C370.744 58.3835 370.576 57.1387 371.08 55.8694L389.653 12.7392C390.045 11.9581 390.634 11.3234 391.418 10.8353C392.258 10.3471 393.155 10.1274 394.107 10.1762C396.236 10.0786 397.721 10.9329 398.562 12.7392L417.134 55.8694C417.639 57.1387 417.471 58.3835 416.63 59.604C415.79 60.7756 414.389 61.3614 412.428 61.3614C410.523 61.3614 409.207 60.5071 408.478 58.7985ZM387.3 41.2242H394.107H400.915L394.107 25.4805L387.3 41.2242Z" fill="white"/>
<path d="M429.836 53.5993C424.29 48.4247 421.517 42.2249 421.517 34.9999C421.517 27.7749 424.29 21.5751 429.836 16.4004C435.439 11.2258 442.246 8.63843 450.258 8.63843C458.27 8.63843 465.049 11.2746 470.596 16.5469C476.199 21.7703 479 27.9457 479 35.0731C479 42.2005 476.171 48.3515 470.512 53.5261C467.991 55.967 464.965 57.8953 461.436 59.311C457.906 60.6779 454.236 61.3613 450.426 61.3613C442.302 61.3613 435.439 58.774 429.836 53.5993ZM431.097 34.9999C431.097 39.9304 432.974 44.1776 436.728 47.7412C440.482 51.2561 444.992 53.0135 450.258 53.0135C455.581 53.0135 460.091 51.2317 463.789 47.668C467.543 44.0555 469.419 39.8328 469.419 34.9999C469.419 30.1669 467.571 25.9686 463.873 22.405C460.175 18.7925 455.637 16.9862 450.258 16.9862C444.936 16.9862 440.398 18.7681 436.644 22.3317C432.946 25.8466 431.097 30.0693 431.097 34.9999Z" fill="white"/>
<path d="M159.082 14.7163L158.228 15.6964L158.228 15.6964L159.082 14.7163ZM159.082 36.9038L159.928 37.8907L159.936 37.8839L159.082 36.9038ZM135.971 41.4438V40.1438C135.253 40.1438 134.671 40.7259 134.671 41.4438H135.971ZM134.542 60.1898L133.718 59.1845C133.708 59.1928 133.698 59.2011 133.688 59.2096L134.542 60.1898ZM127.987 11.2746L128.841 12.2548L128.841 12.2548L127.987 11.2746ZM135.971 18.2311V16.9311C135.253 16.9311 134.671 17.5132 134.671 18.2311H135.971ZM135.971 33.3157H134.671C134.671 34.0337 135.253 34.6157 135.971 34.6157V33.3157ZM155.048 25.8467L156.348 25.8822C156.348 25.859 156.348 25.8359 156.348 25.8128L155.048 25.8467ZM152.443 20.4279L151.589 21.408L151.589 21.408L152.443 20.4279ZM174.207 25.9931L175.061 26.9732L175.061 26.9732L174.207 25.9931ZM180.678 25.9931L179.793 26.9453C179.814 26.9642 179.835 26.9824 179.856 26.9999L180.678 25.9931ZM180.678 60.263L179.824 59.2829L179.824 59.2829L180.678 60.263ZM174.291 60.1898L175.145 59.2096L175.145 59.2096L174.291 60.1898ZM180.678 18.4508L179.824 17.4707C179.814 17.4798 179.804 17.4891 179.793 17.4986L180.678 18.4508ZM174.291 18.4508L173.437 19.4309L173.437 19.4309L174.291 18.4508ZM174.291 11.2746L175.145 12.2548L175.145 12.2548L174.291 11.2746ZM180.678 11.2746L179.793 12.2269C179.814 12.2457 179.835 12.2639 179.856 12.2814L180.678 11.2746ZM191.381 58.8717H192.681C192.681 58.7129 192.652 58.5555 192.595 58.4072L191.381 58.8717ZM191.129 58.2127H189.829C189.829 58.3714 189.858 58.5289 189.914 58.6771L191.129 58.2127ZM191.129 57.7001H192.429C192.429 57.3243 192.266 56.9668 191.983 56.7199L191.129 57.7001ZM191.045 57.4072L189.762 57.1968C189.75 57.2664 189.745 57.3367 189.745 57.4072H191.045ZM191.129 56.8946L192.411 57.1049C192.423 57.0354 192.429 56.965 192.429 56.8946H191.129ZM191.129 56.6017L190.275 55.6215C189.991 55.8684 189.829 56.2259 189.829 56.6017H191.129ZM191.633 55.6497L192.487 56.6299C192.77 56.383 192.933 56.0255 192.933 55.6497H191.633ZM191.885 55.2836V53.9836C191.571 53.9836 191.268 54.0972 191.031 54.3035L191.885 55.2836ZM191.969 55.2836V56.5836C192.356 56.5836 192.722 56.4115 192.969 56.1141L191.969 55.2836ZM210.878 32.5102L211.878 33.3407C212.2 32.9529 212.269 32.414 212.055 31.9578C211.841 31.5016 211.382 31.2102 210.878 31.2102V32.5102ZM192.389 31.4118L191.535 32.392C191.546 32.401 191.556 32.4099 191.567 32.4186L192.389 31.4118ZM192.389 25.9199L193.212 26.9267C193.222 26.918 193.233 26.9091 193.243 26.9L192.389 25.9199ZM219.786 24.7483L219.973 23.4618C219.911 23.4528 219.849 23.4483 219.786 23.4483V24.7483ZM220.291 24.8215L220.104 26.108C220.166 26.117 220.228 26.1215 220.291 26.1215V24.8215ZM221.047 24.8947L220.193 25.8748C220.293 25.9621 220.406 26.0335 220.528 26.0865L221.047 24.8947ZM221.551 25.0412L222.584 24.2512C222.397 24.0067 222.129 23.8365 221.828 23.771L221.551 25.0412ZM221.803 25.2608L222.383 24.0971C222.203 24.0075 222.004 23.9608 221.803 23.9608V25.2608ZM222.392 25.5537L221.812 26.7175C221.992 26.8071 222.19 26.8537 222.392 26.8537V25.5537ZM222.56 25.7002H221.26C221.26 26.076 221.422 26.4334 221.706 26.6803L222.56 25.7002ZM222.98 26.0663L222.126 27.0464C222.363 27.2527 222.666 27.3663 222.98 27.3663V26.0663ZM223.316 26.4325L222.135 26.9748C222.185 27.0854 222.251 27.1883 222.331 27.2805L223.316 26.4325ZM223.736 26.7254L224.95 26.2609C224.758 25.7577 224.275 25.4254 223.736 25.4254V26.7254ZM224.156 27.897H225.456C225.456 27.5212 225.294 27.1637 225.01 26.9169L224.156 27.897ZM224.156 28.3363H222.856C222.856 28.4576 222.873 28.5783 222.907 28.6948L224.156 28.3363ZM224.24 28.6292H225.54C225.54 28.508 225.523 28.3873 225.49 28.2708L224.24 28.6292ZM224.24 28.7025L225.508 28.9933C225.529 28.8979 225.54 28.8003 225.54 28.7025H224.24ZM224.156 29.0686L222.889 28.7778C222.867 28.8732 222.856 28.9707 222.856 29.0686H224.156ZM223.988 29.8741L222.861 29.2271C222.748 29.424 222.688 29.6471 222.688 29.8741H223.988ZM223.736 30.2402L223.374 28.9918C222.818 29.1531 222.436 29.6619 222.436 30.2402H223.736ZM223.736 30.4599L224.59 31.44C224.874 31.1931 225.036 30.8357 225.036 30.4599H223.736ZM223.316 30.826L222.462 29.8459C222.179 30.0928 222.016 30.4502 222.016 30.826H223.316ZM223.316 30.8993L224.313 31.7335C224.509 31.4996 224.616 31.2043 224.616 30.8993H223.316ZM204.323 53.5994L203.326 52.7652C203.002 53.1524 202.931 53.6922 203.145 54.1496C203.359 54.6071 203.818 54.8994 204.323 54.8994V53.5994ZM222.896 54.771L222.042 55.7512C222.052 55.7602 222.063 55.7691 222.073 55.7778L222.896 54.771ZM222.896 60.263L223.718 61.2698C223.729 61.2611 223.739 61.2522 223.75 61.2431L222.896 60.263ZM194.658 61.2882L194.935 60.0179C194.844 59.9981 194.751 59.9882 194.658 59.9882V61.2882ZM194.406 61.2882L193.887 62.48C194.051 62.5513 194.228 62.5882 194.406 62.5882V61.2882ZM193.902 61.1417L193.383 62.3335C193.547 62.4049 193.723 62.4417 193.902 62.4417V61.1417ZM193.23 60.8488L192.376 61.8289C192.476 61.9162 192.589 61.9876 192.71 62.0406L193.23 60.8488ZM192.978 60.5559H194.278C194.278 59.8379 193.695 59.2559 192.978 59.2559V60.5559ZM192.137 60.0433L191.152 60.8914C191.171 60.9132 191.19 60.9344 191.21 60.955L192.137 60.0433ZM191.633 59.2378H192.933C192.933 58.6595 192.551 58.1507 191.995 57.9894L191.633 59.2378ZM233.026 58.8717H234.326C234.326 58.7129 234.297 58.5555 234.24 58.4072L233.026 58.8717ZM232.773 58.2127H231.473C231.473 58.3714 231.503 58.5288 231.559 58.6771L232.773 58.2127ZM232.773 57.7001H234.073C234.073 57.3243 233.911 56.9668 233.628 56.7199L232.773 57.7001ZM232.689 57.4072L231.407 57.1968C231.395 57.2663 231.389 57.3367 231.389 57.4072H232.689ZM232.773 56.8946L234.056 57.105C234.068 57.0354 234.073 56.9651 234.073 56.8946H232.773ZM232.773 56.6017L231.919 55.6215C231.636 55.8684 231.473 56.2259 231.473 56.6017H232.773ZM233.278 55.6497L234.132 56.6299C234.415 56.383 234.578 56.0255 234.578 55.6497H233.278ZM233.53 55.2836V53.9836C233.216 53.9836 232.913 54.0972 232.676 54.3035L233.53 55.2836ZM233.614 55.2836V56.5836C234.001 56.5836 234.367 56.4115 234.614 56.1141L233.614 55.2836ZM252.523 32.5102L253.523 33.3407C253.845 32.9529 253.914 32.414 253.7 31.9578C253.486 31.5016 253.027 31.2102 252.523 31.2102V32.5102ZM234.034 31.4118L233.18 32.392C233.19 32.401 233.201 32.4099 233.212 32.4186L234.034 31.4118ZM234.034 25.9199L234.857 26.9267C234.867 26.918 234.878 26.9091 234.888 26.9L234.034 25.9199ZM261.431 24.7483L261.618 23.4618C261.556 23.4528 261.494 23.4483 261.431 23.4483V24.7483ZM261.935 24.8215L261.749 26.108C261.81 26.117 261.873 26.1215 261.935 26.1215V24.8215ZM262.692 24.8947L261.838 25.8748C261.938 25.9621 262.051 26.0335 262.173 26.0865L262.692 24.8947ZM263.196 25.0412L264.228 24.2512C264.041 24.0067 263.774 23.8365 263.473 23.771L263.196 25.0412ZM263.448 25.2608L264.028 24.0971C263.848 24.0075 263.649 23.9608 263.448 23.9608V25.2608ZM264.036 25.5537L263.457 26.7175C263.637 26.8071 263.835 26.8537 264.036 26.8537V25.5537ZM264.205 25.7002H262.905C262.905 26.076 263.067 26.4334 263.35 26.6803L264.205 25.7002ZM264.625 26.0663L263.771 27.0465C264.007 27.2527 264.311 27.3663 264.625 27.3663V26.0663ZM264.961 26.4325L263.779 26.9748C263.83 27.0854 263.896 27.1883 263.976 27.2805L264.961 26.4325ZM265.381 26.7254L266.595 26.2609C266.403 25.7577 265.92 25.4254 265.381 25.4254V26.7254ZM265.801 27.897H267.101C267.101 27.5212 266.939 27.1637 266.655 26.9169L265.801 27.897ZM265.801 28.3363H264.501C264.501 28.4576 264.518 28.5783 264.552 28.6948L265.801 28.3363ZM265.885 28.6292H267.185C267.185 28.508 267.168 28.3873 267.135 28.2708L265.885 28.6292ZM265.885 28.7025L267.152 28.9933C267.174 28.8979 267.185 28.8003 267.185 28.7025H265.885ZM265.801 29.0686L264.534 28.7778C264.512 28.8732 264.501 28.9707 264.501 29.0686H265.801ZM265.633 29.8741L264.506 29.2271C264.393 29.424 264.333 29.6471 264.333 29.8741H265.633ZM265.381 30.2402L265.018 28.9918C264.463 29.1531 264.081 29.6619 264.081 30.2402H265.381ZM265.381 30.4599L266.235 31.44C266.518 31.1931 266.681 30.8357 266.681 30.4599H265.381ZM264.961 30.826L264.107 29.8459C263.824 30.0928 263.661 30.4502 263.661 30.826H264.961ZM264.961 30.8993L265.958 31.7335C266.154 31.4996 266.261 31.2043 266.261 30.8993H264.961ZM245.968 53.5994L244.971 52.7652C244.647 53.1524 244.576 53.6922 244.79 54.1496C245.004 54.6071 245.463 54.8994 245.968 54.8994V53.5994ZM264.541 54.771L263.687 55.7512C263.697 55.7602 263.708 55.7691 263.718 55.7778L264.541 54.771ZM264.541 60.263L265.363 61.2698C265.374 61.2611 265.384 61.2522 265.395 61.2431L264.541 60.263ZM236.303 61.2882L236.58 60.0179C236.489 59.9981 236.396 59.9882 236.303 59.9882V61.2882ZM236.051 61.2882L235.532 62.48C235.696 62.5513 235.872 62.5882 236.051 62.5882V61.2882ZM235.547 61.1417L235.028 62.3335C235.191 62.4049 235.368 62.4417 235.547 62.4417V61.1417ZM234.874 60.8488L234.02 61.8289C234.121 61.9162 234.233 61.9875 234.355 62.0406L234.874 60.8488ZM234.622 60.5559H235.922C235.922 59.8379 235.34 59.2559 234.622 59.2559V60.5559ZM233.782 60.0433L232.797 60.8914C232.816 60.9132 232.835 60.9344 232.855 60.955L233.782 60.0433ZM233.278 59.2378H234.578C234.578 58.6595 234.196 58.1507 233.64 57.9894L233.278 59.2378ZM276.812 56.0159L275.924 56.9653L275.931 56.9717L276.812 56.0159ZM276.812 30.167L275.925 29.2172L275.924 29.2176L276.812 30.167ZM302.276 27.9702L301.593 29.0759C301.936 29.2883 302.359 29.329 302.737 29.186C303.114 29.0431 303.404 28.7327 303.521 28.3461L302.276 27.9702ZM303.873 25.7002L304.651 26.7418C304.665 26.7317 304.678 26.7214 304.691 26.7108L303.873 25.7002ZM309.756 25.9199L308.871 26.8721C308.881 26.8816 308.892 26.8909 308.902 26.9L309.756 25.9199ZM309.756 60.263L308.902 59.2829L308.902 59.2829L309.756 60.263ZM303.873 60.4827L303.095 61.5242L303.095 61.5242L303.873 60.4827ZM302.276 58.2127L303.521 57.8368C303.404 57.4508 303.115 57.1408 302.739 56.9975C302.362 56.8542 301.94 56.8939 301.596 57.1049L302.276 58.2127ZM283.115 50.5239L282.2 51.4467C282.204 51.4508 282.208 51.455 282.212 51.4591L283.115 50.5239ZM298.999 50.5239L298.108 49.5767C298.104 49.5807 298.1 49.5847 298.096 49.5887L298.999 50.5239ZM298.999 35.659L298.097 36.5953L298.097 36.5953L298.999 35.659ZM283.199 35.659L284.102 36.5942C284.106 36.5906 284.11 36.5869 284.114 36.5832L283.199 35.659ZM323.698 11.2746L324.552 12.2548L324.552 12.2548L323.698 11.2746ZM357.65 17.6453L356.791 18.6213L356.796 18.6254L357.65 17.6453ZM357.65 53.8923L358.504 54.8724L358.509 54.8683L357.65 53.8923ZM331.681 18.2311V16.9311C330.963 16.9311 330.381 17.5132 330.381 18.2311H331.681ZM331.681 53.2333H330.381C330.381 53.9512 330.963 54.5333 331.681 54.5333V53.2333ZM336.892 53.2333V54.5333L336.903 54.5332L336.892 53.2333ZM351.011 48.1074L350.157 47.1273L350.157 47.1273L351.011 48.1074ZM351.011 23.357L350.15 24.331L350.157 24.3371L351.011 23.357ZM408.478 58.7985L409.674 58.2887L409.671 58.2823L408.478 58.7985ZM404.36 49.279L405.553 48.7629C405.348 48.2871 404.879 47.979 404.36 47.979V49.279ZM383.939 49.279V47.979C383.42 47.979 382.951 48.2871 382.745 48.7629L383.939 49.279ZM379.821 58.7985L381.002 59.3408C381.006 59.3321 381.01 59.3234 381.014 59.3146L379.821 58.7985ZM371.585 59.604L370.514 60.3412C370.519 60.3481 370.523 60.3549 370.528 60.3617L371.585 59.604ZM371.08 55.8694L369.886 55.3552C369.882 55.3666 369.877 55.378 369.872 55.3894L371.08 55.8694ZM389.653 12.7392L388.491 12.1558C388.48 12.1786 388.469 12.2016 388.459 12.225L389.653 12.7392ZM391.418 10.8353L390.765 9.71116C390.754 9.71779 390.742 9.7246 390.731 9.73157L391.418 10.8353ZM394.107 10.1762L394.041 11.4745C394.083 11.4767 394.125 11.4768 394.167 11.4749L394.107 10.1762ZM398.562 12.7392L399.756 12.225C399.751 12.2135 399.745 12.2021 399.74 12.1908L398.562 12.7392ZM417.134 55.8694L418.343 55.3894C418.338 55.378 418.333 55.3666 418.328 55.3552L417.134 55.8694ZM416.63 59.604L417.687 60.3617C417.691 60.3549 417.696 60.3481 417.701 60.3412L416.63 59.604ZM387.3 41.2242L386.107 40.7082C385.933 41.11 385.973 41.5722 386.214 41.9381C386.454 42.3039 386.862 42.5242 387.3 42.5242V41.2242ZM400.915 41.2242V42.5242C401.352 42.5242 401.761 42.3039 402.001 41.9381C402.241 41.5722 402.282 41.11 402.108 40.7082L400.915 41.2242ZM394.107 25.4805L395.301 24.9646C395.095 24.4887 394.626 24.1805 394.107 24.1805C393.589 24.1805 393.12 24.4887 392.914 24.9646L394.107 25.4805ZM429.836 53.5993L428.95 54.5499L428.954 54.5543L429.836 53.5993ZM429.836 16.4004L428.954 15.4454L428.95 15.4498L429.836 16.4004ZM470.596 16.5469L469.7 17.4892L469.71 17.4977L470.596 16.5469ZM470.512 53.5261L469.635 52.5668C469.626 52.5751 469.617 52.5835 469.608 52.5921L470.512 53.5261ZM461.436 59.311L461.905 60.5233C461.91 60.5214 461.915 60.5195 461.92 60.5176L461.436 59.311ZM436.728 47.7412L435.833 48.6841L435.839 48.6902L436.728 47.7412ZM463.789 47.668L462.887 46.7313L462.887 46.732L463.789 47.668ZM463.873 22.405L462.964 23.3349L462.971 23.341L463.873 22.405ZM436.644 22.3317L435.749 21.3889L435.748 21.3895L436.644 22.3317ZM146.308 11.403C151.003 11.403 154.951 12.8413 158.228 15.6964L159.936 13.7361C156.153 10.4402 151.586 8.80301 146.308 8.80301V11.403ZM158.228 15.6964C161.499 18.5467 163.077 21.9094 163.077 25.8467H165.677C165.677 21.0944 163.724 17.0369 159.936 13.7361L158.228 15.6964ZM163.077 25.8467C163.077 29.7304 161.503 33.0701 158.228 35.9237L159.936 37.8839C163.72 34.5865 165.677 30.5548 165.677 25.8467H163.077ZM158.236 35.917C154.96 38.7263 151.008 40.1438 146.308 40.1438V42.7438C151.58 42.7438 156.145 41.1347 159.928 37.8907L158.236 35.917ZM146.308 40.1438H135.971V42.7438H146.308V40.1438ZM134.671 41.4438V57.3339H137.271V41.4438H134.671ZM134.671 57.3339C134.671 58.0263 134.403 58.6232 133.718 59.1845L135.367 61.195C136.587 60.1942 137.271 58.8871 137.271 57.3339H134.671ZM133.688 59.2096C133.049 59.7665 132.268 60.0614 131.265 60.0614V62.6614C132.839 62.6614 134.243 62.1752 135.396 61.1699L133.688 59.2096ZM131.265 60.0614C130.262 60.0614 129.48 59.7665 128.841 59.2096L127.133 61.1699C128.287 62.1752 129.691 62.6614 131.265 62.6614V60.0614ZM128.841 59.2096C128.209 58.6589 127.943 58.0565 127.943 57.3339H125.343C125.343 58.857 125.972 60.1585 127.133 61.1699L128.841 59.2096ZM127.943 57.3339V14.1305H125.343V57.3339H127.943ZM127.943 14.1305C127.943 13.4079 128.209 12.8055 128.841 12.2548L127.133 10.2945C125.972 11.3059 125.343 12.6074 125.343 14.1305H127.943ZM128.841 12.2548C129.48 11.6979 130.262 11.403 131.265 11.403V8.80301C129.691 8.80301 128.287 9.28922 127.133 10.2945L128.841 12.2548ZM131.265 11.403H146.308V8.80301H131.265V11.403ZM134.671 18.2311V33.3157H137.271V18.2311H134.671ZM135.971 34.6157H146.308V32.0157H135.971V34.6157ZM146.308 34.6157C149.004 34.6157 151.36 33.7872 153.297 32.0991L151.589 30.1388C150.165 31.3798 148.431 32.0157 146.308 32.0157V34.6157ZM153.297 32.0991C155.225 30.419 156.281 28.3296 156.348 25.8822L153.749 25.8111C153.703 27.4643 153.022 28.8899 151.589 30.1388L153.297 32.0991ZM156.348 25.8128C156.282 23.2857 155.241 21.1413 153.297 19.4478L151.589 21.408C153.007 22.6436 153.702 24.1116 153.749 25.8806L156.348 25.8128ZM153.297 19.4478C151.36 17.7597 149.004 16.9311 146.308 16.9311V19.5311C148.431 19.5311 150.165 20.1671 151.589 21.408L153.297 19.4478ZM146.308 16.9311H135.971V19.5311H146.308V16.9311ZM175.061 26.9732C175.7 26.4164 176.482 26.1215 177.485 26.1215V23.5215C175.911 23.5215 174.507 24.0077 173.353 25.013L175.061 26.9732ZM177.485 26.1215C178.489 26.1215 179.224 26.4158 179.793 26.9453L181.563 25.0409C180.452 24.0082 179.058 23.5215 177.485 23.5215V26.1215ZM179.856 26.9999C180.446 27.4818 180.723 28.062 180.723 28.8489H183.323C183.323 27.2926 182.704 25.969 181.501 24.9863L179.856 26.9999ZM180.723 28.8489V57.4072H183.323V28.8489H180.723ZM180.723 57.4072C180.723 58.1297 180.456 58.7321 179.824 59.2829L181.532 61.2431C182.693 60.2317 183.323 58.9302 183.323 57.4072H180.723ZM179.824 59.2829C179.257 59.7771 178.511 60.0614 177.485 60.0614V62.6614C179.035 62.6614 180.419 62.2134 181.532 61.2431L179.824 59.2829ZM177.485 60.0614C176.554 60.0614 175.796 59.7763 175.145 59.2096L173.437 61.1699C174.58 62.1654 175.951 62.6614 177.485 62.6614V60.0614ZM175.145 59.2096C174.498 58.6458 174.247 58.0624 174.247 57.4072H171.647C171.647 58.8999 172.292 60.1716 173.437 61.1699L175.145 59.2096ZM174.247 57.4072V28.8489H171.647V57.4072H174.247ZM174.247 28.8489C174.247 28.0313 174.52 27.4446 175.061 26.9732L173.353 25.013C172.213 26.0061 171.647 27.3233 171.647 28.8489H174.247ZM180.723 14.0572V15.595H183.323V14.0572H180.723ZM180.723 15.595C180.723 16.3175 180.456 16.9199 179.824 17.4707L181.532 19.4309C182.693 18.4195 183.323 17.118 183.323 15.595H180.723ZM179.793 17.4986C179.224 18.0281 178.489 18.3224 177.485 18.3224V20.9224C179.058 20.9224 180.452 20.4357 181.563 19.403L179.793 17.4986ZM177.485 18.3224C176.554 18.3224 175.796 18.0374 175.145 17.4707L173.437 19.4309C174.58 20.4264 175.951 20.9224 177.485 20.9224V18.3224ZM175.145 17.4707C174.513 16.9199 174.247 16.3175 174.247 15.595H171.647C171.647 17.118 172.276 18.4195 173.437 19.4309L175.145 17.4707ZM174.247 15.595V14.0572H171.647V15.595H174.247ZM174.247 14.0572C174.247 13.402 174.498 12.8186 175.145 12.2548L173.437 10.2945C172.292 11.2928 171.647 12.5645 171.647 14.0572H174.247ZM175.145 12.2548C175.796 11.6881 176.554 11.403 177.485 11.403V8.80301C175.951 8.80301 174.58 9.29904 173.437 10.2945L175.145 12.2548ZM177.485 11.403C178.489 11.403 179.224 11.6974 179.793 12.2269L181.563 10.3224C180.452 9.28974 179.058 8.80301 177.485 8.80301V11.403ZM179.856 12.2814C180.461 12.7756 180.723 13.3384 180.723 14.0572H183.323C183.323 12.5304 182.689 11.2382 181.501 10.2678L179.856 12.2814ZM192.595 58.4072L192.343 57.7482L189.914 58.6771L190.167 59.3362L192.595 58.4072ZM192.429 58.2127V57.7001H189.829V58.2127H192.429ZM191.983 56.7199C192.292 56.9899 192.345 57.3275 192.345 57.4804H189.745C189.745 57.8285 189.853 58.3126 190.275 58.6802L191.983 56.7199ZM192.345 57.4804V57.4072H189.745V57.4804H192.345ZM192.327 57.6175L192.411 57.1049L189.846 56.6843L189.762 57.1968L192.327 57.6175ZM192.429 56.8946V56.6017H189.829V56.8946H192.429ZM191.983 57.5818C192.373 57.2415 192.597 56.7642 192.597 56.2355H189.997C189.997 56.1387 190.016 56.0186 190.073 55.8945C190.13 55.771 190.207 55.6808 190.275 55.6215L191.983 57.5818ZM192.597 56.2355C192.597 56.3977 192.548 56.5209 192.508 56.5897C192.473 56.6504 192.451 56.6611 192.487 56.6299L190.779 54.6696C190.42 54.9823 189.997 55.5043 189.997 56.2355H192.597ZM192.933 55.6497C192.933 55.9682 192.801 56.1716 192.767 56.2223C192.724 56.2838 192.7 56.2975 192.739 56.2637L191.031 54.3035C190.902 54.4161 190.752 54.5641 190.625 54.7477C190.506 54.9204 190.333 55.2336 190.333 55.6497H192.933ZM191.885 56.5836H191.969V53.9836H191.885V56.5836ZM192.969 56.1141L211.878 33.3407L209.878 31.6798L190.969 54.4531L192.969 56.1141ZM210.878 31.2102H195.499V33.8102H210.878V31.2102ZM195.499 31.2102C194.617 31.2102 193.872 30.9443 193.212 30.4051L191.567 32.4186C192.7 33.3439 194.028 33.8102 195.499 33.8102V31.2102ZM193.243 30.4317C192.596 29.8679 192.345 29.2845 192.345 28.6292H189.745C189.745 30.122 190.389 31.3937 191.535 32.392L193.243 30.4317ZM192.345 28.6292C192.345 27.979 192.591 27.434 193.212 26.9267L191.567 24.9131C190.395 25.8703 189.745 27.1316 189.745 28.6292H192.345ZM193.243 26.9C193.906 26.3228 194.64 26.0483 195.499 26.0483V23.4483C194.005 23.4483 192.666 23.9548 191.535 24.9397L193.243 26.9ZM195.499 26.0483H219.786V23.4483H195.499V26.0483ZM219.599 26.0348L220.104 26.108L220.477 23.535L219.973 23.4618L219.599 26.0348ZM220.291 26.1215H220.711V23.5215H220.291V26.1215ZM220.711 26.1215C220.741 26.1215 220.71 26.1244 220.644 26.11C220.592 26.0987 220.396 26.0516 220.193 25.8748L221.901 23.9146C221.642 23.689 221.362 23.6053 221.198 23.5696C221.019 23.5307 220.849 23.5215 220.711 23.5215V26.1215ZM220.528 26.0865C220.758 26.187 221.026 26.2572 221.274 26.3114L221.828 23.771C221.736 23.751 221.668 23.7336 221.62 23.7195C221.568 23.7046 221.555 23.6979 221.566 23.7029L220.528 26.0865ZM220.519 25.8311C220.598 25.935 220.708 26.0673 220.844 26.1861C220.923 26.2547 221.271 26.5608 221.803 26.5608V23.9608C222.067 23.9608 222.262 24.0445 222.358 24.095C222.46 24.148 222.525 24.2021 222.552 24.2258C222.605 24.2714 222.616 24.2938 222.584 24.2512L220.519 25.8311ZM221.224 26.4246L221.812 26.7175L222.971 24.39L222.383 24.0971L221.224 26.4246ZM222.392 26.8537C222.288 26.8537 221.967 26.835 221.664 26.5705C221.326 26.2762 221.26 25.9019 221.26 25.7002H223.86C223.86 25.4008 223.765 24.9534 223.372 24.6102C223.012 24.2969 222.607 24.2537 222.392 24.2537V26.8537ZM221.706 26.6803L222.126 27.0464L223.834 25.0862L223.414 24.7201L221.706 26.6803ZM222.98 27.3663C222.527 27.3663 222.262 27.115 222.19 27.0371C222.116 26.9557 222.105 26.9096 222.135 26.9748L224.497 25.8901C224.415 25.7112 224.292 25.482 224.105 25.2786C223.922 25.0787 223.545 24.7663 222.98 24.7663V27.3663ZM222.331 27.2805C222.454 27.4234 222.611 27.5844 222.804 27.7186C222.985 27.8449 223.308 28.0254 223.736 28.0254V25.4254C224.052 25.4254 224.249 25.5571 224.291 25.5857C224.343 25.6222 224.346 25.6368 224.301 25.5844L222.331 27.2805ZM222.522 27.1899C222.599 27.3912 222.648 27.5362 222.676 27.6331C222.689 27.6811 222.695 27.7055 222.696 27.711C222.698 27.7228 222.688 27.6803 222.688 27.6041H225.288C225.288 27.3384 225.222 27.0816 225.175 26.916C225.119 26.7201 225.041 26.4989 224.95 26.2609L222.522 27.1899ZM222.688 27.6041C222.688 28.2378 223.056 28.6622 223.302 28.8771L225.01 26.9169C225.033 26.9365 225.288 27.1656 225.288 27.6041H222.688ZM222.856 27.897V28.3363H225.456V27.897H222.856ZM222.907 28.6948L222.991 28.9877L225.49 28.2708L225.406 27.9779L222.907 28.6948ZM222.94 28.6292V28.7025H225.54V28.6292H222.94ZM222.973 28.4117L222.889 28.7778L225.423 29.3594L225.508 28.9933L222.973 28.4117ZM222.856 29.0686C222.856 29.171 222.848 29.232 222.842 29.2607C222.836 29.2891 222.836 29.2708 222.861 29.2271L225.116 30.5211C225.385 30.0526 225.456 29.5292 225.456 29.0686H222.856ZM222.688 29.8741C222.688 29.791 222.706 29.5899 222.855 29.3748C223.012 29.1459 223.224 29.0352 223.374 28.9918L224.099 31.4886C224.416 31.3964 224.754 31.2003 224.996 30.8494C225.228 30.5122 225.288 30.1524 225.288 29.8741H222.688ZM222.436 30.2402V30.4599H225.036V30.2402H222.436ZM222.882 29.4798L222.462 29.8459L224.17 31.8061L224.59 31.44L222.882 29.4798ZM222.016 30.826V30.8993H224.616V30.826H222.016ZM222.319 30.065L203.326 52.7652L205.32 54.4336L224.313 31.7335L222.319 30.065ZM204.323 54.8994H219.786V52.2994H204.323V54.8994ZM219.786 54.8994C220.645 54.8994 221.379 55.1739 222.042 55.7512L223.75 53.7909C222.619 52.806 221.28 52.2994 219.786 52.2994V54.8994ZM222.073 55.7778C222.694 56.2851 222.94 56.8301 222.94 57.4804H225.54C225.54 55.9827 224.89 54.7214 223.718 53.7642L222.073 55.7778ZM222.94 57.4804C222.94 58.1357 222.689 58.719 222.042 59.2829L223.75 61.2431C224.896 60.2448 225.54 58.9731 225.54 57.4804H222.94ZM222.073 59.2562C221.413 59.7955 220.669 60.0614 219.786 60.0614V62.6614C221.257 62.6614 222.586 62.1951 223.718 61.2698L222.073 59.2562ZM219.786 60.0614H195.499V62.6614H219.786V60.0614ZM195.499 60.0614C195.217 60.0614 195.037 60.0401 194.935 60.0179L194.382 62.5584C194.728 62.6338 195.108 62.6614 195.499 62.6614V60.0614ZM194.658 59.9882H194.406V62.5882H194.658V59.9882ZM194.925 60.0964C194.686 59.992 194.304 59.8417 193.902 59.8417V62.4417C193.869 62.4417 193.842 62.4399 193.821 62.4379C193.801 62.4359 193.784 62.4335 193.773 62.4316C193.752 62.4279 193.743 62.4249 193.749 62.4267C193.755 62.4284 193.77 62.4329 193.794 62.4419C193.818 62.4509 193.849 62.4633 193.887 62.48L194.925 60.0964ZM194.421 59.9499L193.749 59.657L192.71 62.0406L193.383 62.3335L194.421 59.9499ZM194.084 59.8687C194.018 59.8114 194.008 59.7974 194.026 59.8176C194.034 59.8267 194.075 59.8748 194.121 59.9546C194.145 59.9963 194.18 60.0638 194.211 60.1533C194.241 60.2406 194.278 60.38 194.278 60.5559H191.678C191.678 60.9056 191.814 61.1588 191.866 61.2487C191.933 61.3652 192.005 61.4559 192.055 61.5138C192.157 61.6316 192.273 61.7397 192.376 61.8289L194.084 59.8687ZM192.978 59.2559C193.087 59.2559 193.169 59.2768 193.216 59.2926C193.262 59.3082 193.283 59.3217 193.276 59.3179C193.271 59.3144 193.249 59.3002 193.21 59.2681C193.172 59.2364 193.123 59.192 193.064 59.1316L191.21 60.955C191.422 61.1704 191.66 61.3775 191.922 61.5376C192.177 61.6932 192.54 61.8559 192.978 61.8559V59.2559ZM193.122 59.1952C193.051 59.1122 192.994 59.0418 192.949 58.9833C192.904 58.924 192.876 58.8833 192.861 58.8592C192.844 58.8322 192.853 58.8421 192.869 58.8825C192.878 58.9042 192.893 58.9436 192.906 58.9981C192.918 59.0518 192.933 59.1341 192.933 59.2378H190.333C190.333 59.7097 190.562 60.0877 190.657 60.2388C190.791 60.4522 190.964 60.6731 191.152 60.8914L193.122 59.1952ZM191.995 57.9894C192.145 58.0328 192.357 58.1435 192.514 58.3724C192.663 58.5876 192.681 58.7886 192.681 58.8717H190.081C190.081 59.15 190.141 59.5098 190.373 59.847C190.615 60.1979 190.953 60.394 191.27 60.4862L191.995 57.9894ZM234.24 58.4072L233.988 57.7482L231.559 58.6771L231.811 59.3362L234.24 58.4072ZM234.073 58.2127V57.7001H231.473V58.2127H234.073ZM233.628 56.7199C233.937 56.9897 233.989 57.3272 233.989 57.4804H231.389C231.389 57.8288 231.498 58.3128 231.919 58.6802L233.628 56.7199ZM233.989 57.4804V57.4072H231.389V57.4804H233.989ZM233.972 57.6175L234.056 57.105L231.491 56.6842L231.407 57.1968L233.972 57.6175ZM234.073 56.8946V56.6017H231.473V56.8946H234.073ZM233.628 57.5818C234.018 57.2414 234.242 56.7641 234.242 56.2355H231.642C231.642 56.1388 231.661 56.0187 231.718 55.8946C231.775 55.771 231.851 55.6808 231.919 55.6215L233.628 57.5818ZM234.242 56.2355C234.242 56.3977 234.193 56.5209 234.153 56.5897C234.118 56.6504 234.096 56.6611 234.132 56.6299L232.424 54.6696C232.065 54.9823 231.642 55.5043 231.642 56.2355H234.242ZM234.578 55.6497C234.578 55.9682 234.446 56.1717 234.411 56.2223C234.369 56.2838 234.345 56.2975 234.384 56.2637L232.676 54.3035C232.547 54.4161 232.397 54.5641 232.27 54.7476C232.151 54.9203 231.978 55.2336 231.978 55.6497H234.578ZM233.53 56.5836H233.614V53.9836H233.53V56.5836ZM234.614 56.1141L253.523 33.3407L251.523 31.6798L232.614 54.4531L234.614 56.1141ZM252.523 31.2102H237.144V33.8102H252.523V31.2102ZM237.144 31.2102C236.261 31.2102 235.517 30.9443 234.857 30.4051L233.212 32.4186C234.344 33.3439 235.673 33.8102 237.144 33.8102V31.2102ZM234.888 30.4317C234.241 29.8679 233.989 29.2845 233.989 28.6292H231.389C231.389 30.122 232.034 31.3937 233.18 32.392L234.888 30.4317ZM233.989 28.6292C233.989 27.979 234.235 27.434 234.857 26.9267L233.212 24.9131C232.04 25.8703 231.389 27.1316 231.389 28.6292H233.989ZM234.888 26.9C235.551 26.3228 236.285 26.0483 237.144 26.0483V23.4483C235.649 23.4483 234.31 23.9548 233.18 24.9397L234.888 26.9ZM237.144 26.0483H261.431V23.4483H237.144V26.0483ZM261.244 26.0348L261.749 26.108L262.122 23.535L261.618 23.4618L261.244 26.0348ZM261.935 26.1215H262.356V23.5215H261.935V26.1215ZM262.356 26.1215C262.385 26.1215 262.355 26.1244 262.289 26.11C262.237 26.0987 262.041 26.0516 261.838 25.8748L263.546 23.9146C263.287 23.689 263.006 23.6053 262.842 23.5696C262.664 23.5307 262.494 23.5215 262.356 23.5215V26.1215ZM262.173 26.0865C262.403 26.1871 262.671 26.2573 262.919 26.3114L263.473 23.771C263.381 23.751 263.313 23.7336 263.264 23.7195C263.213 23.7046 263.2 23.6979 263.211 23.7029L262.173 26.0865ZM262.164 25.8311C262.243 25.935 262.353 26.0673 262.489 26.1861C262.568 26.2547 262.916 26.5608 263.448 26.5608V23.9608C263.712 23.9608 263.907 24.0445 264.003 24.095C264.104 24.148 264.17 24.2021 264.197 24.2258C264.249 24.2714 264.261 24.2938 264.228 24.2512L262.164 25.8311ZM262.869 26.4246L263.457 26.7175L264.616 24.39L264.028 24.0971L262.869 26.4246ZM264.036 26.8537C263.933 26.8537 263.612 26.835 263.308 26.5705C262.971 26.2761 262.905 25.9019 262.905 25.7002H265.505C265.505 25.4009 265.41 24.9534 265.017 24.6103C264.657 24.2969 264.252 24.2537 264.036 24.2537V26.8537ZM263.35 26.6803L263.771 27.0465L265.479 25.0862L265.059 24.7201L263.35 26.6803ZM264.625 27.3663C264.172 27.3663 263.907 27.1149 263.835 27.0371C263.76 26.9557 263.749 26.9096 263.779 26.9748L266.142 25.8901C266.06 25.7113 265.937 25.4821 265.75 25.2786C265.567 25.0787 265.189 24.7663 264.625 24.7663V27.3663ZM263.976 27.2805C264.099 27.4234 264.256 27.5844 264.449 27.7186C264.63 27.8449 264.953 28.0254 265.381 28.0254V25.4254C265.697 25.4254 265.894 25.5571 265.935 25.5857C265.988 25.6222 265.991 25.6368 265.946 25.5844L263.976 27.2805ZM264.167 27.1899C264.244 27.3912 264.293 27.5362 264.321 27.6331C264.334 27.6812 264.34 27.7055 264.341 27.7111C264.343 27.7228 264.333 27.6803 264.333 27.6041H266.933C266.933 27.3384 266.867 27.0816 266.82 26.916C266.764 26.7201 266.686 26.4988 266.595 26.2609L264.167 27.1899ZM264.333 27.6041C264.333 28.2378 264.701 28.6621 264.947 28.8771L266.655 26.9169C266.678 26.9366 266.933 27.1657 266.933 27.6041H264.333ZM264.501 27.897V28.3363H267.101V27.897H264.501ZM264.552 28.6948L264.636 28.9877L267.135 28.2708L267.051 27.9779L264.552 28.6948ZM264.585 28.6292V28.7025H267.185V28.6292H264.585ZM264.618 28.4117L264.534 28.7778L267.068 29.3594L267.152 28.9933L264.618 28.4117ZM264.501 29.0686C264.501 29.171 264.493 29.232 264.487 29.2607C264.481 29.2891 264.481 29.2708 264.506 29.2271L266.761 30.5211C267.03 30.0525 267.101 29.5291 267.101 29.0686H264.501ZM264.333 29.8741C264.333 29.791 264.351 29.5899 264.499 29.3747C264.657 29.1458 264.869 29.0352 265.018 28.9918L265.744 31.4886C266.061 31.3964 266.399 31.2004 266.641 30.8494C266.873 30.5122 266.933 30.1525 266.933 29.8741H264.333ZM264.081 30.2402V30.4599H266.681V30.2402H264.081ZM264.527 29.4798L264.107 29.8459L265.815 31.8061L266.235 31.44L264.527 29.4798ZM263.661 30.826V30.8993H266.261V30.826H263.661ZM263.964 30.065L244.971 52.7652L246.965 54.4336L265.958 31.7335L263.964 30.065ZM245.968 54.8994H261.431V52.2994H245.968V54.8994ZM261.431 54.8994C262.29 54.8994 263.024 55.1739 263.687 55.7512L265.395 53.7909C264.264 52.806 262.925 52.2994 261.431 52.2994V54.8994ZM263.718 55.7778C264.339 56.2851 264.585 56.8301 264.585 57.4804H267.185C267.185 55.9827 266.535 54.7214 265.363 53.7642L263.718 55.7778ZM264.585 57.4804C264.585 58.1357 264.334 58.719 263.687 59.2829L265.395 61.2431C266.54 60.2448 267.185 58.9731 267.185 57.4804H264.585ZM263.718 59.2562C263.058 59.7955 262.313 60.0614 261.431 60.0614V62.6614C262.902 62.6614 264.23 62.1951 265.363 61.2698L263.718 59.2562ZM261.431 60.0614H237.144V62.6614H261.431V60.0614ZM237.144 60.0614C236.862 60.0614 236.682 60.0401 236.58 60.0179L236.026 62.5584C236.373 62.6338 236.753 62.6614 237.144 62.6614V60.0614ZM236.303 59.9882H236.051V62.5882H236.303V59.9882ZM236.57 60.0964C236.331 59.992 235.949 59.8417 235.547 59.8417V62.4417C235.514 62.4417 235.487 62.4399 235.466 62.4379C235.445 62.4359 235.429 62.4335 235.418 62.4316C235.397 62.4279 235.388 62.4249 235.394 62.4267C235.4 62.4284 235.414 62.4329 235.439 62.4419C235.463 62.4509 235.494 62.4633 235.532 62.48L236.57 60.0964ZM236.066 59.9499L235.394 59.657L234.355 62.0406L235.028 62.3335L236.066 59.9499ZM235.729 59.8687C235.663 59.8114 235.653 59.7974 235.671 59.8176C235.678 59.8267 235.72 59.8747 235.766 59.9546C235.79 59.9962 235.825 60.0637 235.855 60.1532C235.886 60.2406 235.922 60.38 235.922 60.5559H233.322C233.322 60.9056 233.459 61.1588 233.511 61.2487C233.577 61.3652 233.65 61.4559 233.7 61.5138C233.802 61.6317 233.918 61.7397 234.02 61.8289L235.729 59.8687ZM234.622 59.2559C234.732 59.2559 234.814 59.2768 234.861 59.2926C234.907 59.3082 234.927 59.3217 234.921 59.3179C234.915 59.3144 234.893 59.3002 234.855 59.2681C234.817 59.2364 234.768 59.192 234.709 59.1316L232.855 60.955C233.067 61.1704 233.305 61.3775 233.567 61.5376C233.822 61.6932 234.185 61.8559 234.622 61.8559V59.2559ZM234.767 59.1952C234.696 59.1122 234.639 59.0418 234.594 58.9833C234.548 58.924 234.521 58.8833 234.506 58.8592C234.489 58.8322 234.498 58.8421 234.514 58.8825C234.523 58.9042 234.538 58.9436 234.55 58.9981C234.563 59.0518 234.578 59.1341 234.578 59.2378H231.978C231.978 59.7097 232.207 60.0877 232.302 60.2388C232.435 60.4522 232.609 60.6731 232.797 60.8914L234.767 59.1952ZM233.64 57.9894C233.79 58.0328 234.002 58.1435 234.159 58.3724C234.308 58.5876 234.326 58.7886 234.326 58.8717H231.726C231.726 59.15 231.786 59.5098 232.018 59.847C232.26 60.1979 232.598 60.394 232.915 60.4862L233.64 57.9894ZM291.099 60.0614C285.74 60.0614 281.3 58.3846 277.693 55.06L275.931 56.9717C280.056 60.7744 285.141 62.6614 291.099 62.6614V60.0614ZM277.7 55.0665C274.142 51.7382 272.398 47.7815 272.398 43.128H269.798C269.798 48.531 271.863 53.1662 275.924 56.9653L277.7 55.0665ZM272.398 43.128C272.398 38.4219 274.145 34.4419 277.7 31.1164L275.924 29.2176C271.86 33.0194 269.798 37.6801 269.798 43.128H272.398ZM277.7 31.1168C281.307 27.7459 285.745 26.0483 291.099 26.0483V23.4483C285.136 23.4483 280.049 25.3631 275.925 29.2172L277.7 31.1168ZM291.099 26.0483C294.829 26.0483 298.319 27.0514 301.593 29.0759L302.96 26.8645C299.287 24.5931 295.325 23.4483 291.099 23.4483V26.0483ZM303.521 28.3461C303.72 27.6876 304.087 27.1631 304.651 26.7418L303.095 24.6586C302.091 25.4089 301.393 26.3978 301.032 27.5944L303.521 28.3461ZM304.691 26.7108C305.218 26.2843 305.873 26.0483 306.731 26.0483V23.4483C305.347 23.4483 304.097 23.8468 303.056 24.6896L304.691 26.7108ZM306.731 26.0483C307.588 26.0483 308.278 26.3208 308.871 26.8721L310.641 24.9676C309.553 23.9568 308.226 23.4483 306.731 23.4483V26.0483ZM308.902 26.9C309.549 27.4639 309.801 28.0472 309.801 28.7025H312.401C312.401 27.2098 311.756 25.9381 310.61 24.9397L308.902 26.9ZM309.801 28.7025V57.4804H312.401V28.7025H309.801ZM309.801 57.4804C309.801 58.1357 309.549 58.719 308.902 59.2829L310.61 61.2431C311.756 60.2448 312.401 58.9731 312.401 57.4804H309.801ZM308.902 59.2829C308.312 59.7967 307.612 60.0614 306.731 60.0614V62.6614C308.202 62.6614 309.519 62.1938 310.61 61.2431L308.902 59.2829ZM306.731 60.0614C305.848 60.0614 305.179 59.8355 304.651 59.4411L303.095 61.5242C304.136 62.3015 305.372 62.6614 306.731 62.6614V60.0614ZM304.651 59.4411C304.087 59.0198 303.72 58.4953 303.521 57.8368L301.032 58.5885C301.393 59.7851 302.091 60.774 303.095 61.5242L304.651 59.4411ZM301.596 57.1049C298.384 59.0776 294.894 60.0614 291.099 60.0614V62.6614C295.372 62.6614 299.333 61.546 302.957 59.3204L301.596 57.1049ZM278.79 43.128C278.79 46.3917 279.928 49.1928 282.2 51.4467L284.031 49.6011C282.268 47.852 281.39 45.7225 281.39 43.128H278.79ZM282.212 51.4591C284.555 53.7209 287.524 54.8262 291.015 54.8262V52.2262C288.119 52.2262 285.822 51.33 284.018 49.5887L282.212 51.4591ZM291.015 54.8262C294.555 54.8262 297.555 53.7252 299.902 51.4591L298.096 49.5887C296.297 51.3257 293.974 52.2262 291.015 52.2262V54.8262ZM299.889 51.4711C302.28 49.2232 303.492 46.4148 303.492 43.128H300.892C300.892 45.6994 299.975 47.8216 298.108 49.5767L299.889 51.4711ZM303.492 43.128C303.492 39.8421 302.282 37.0154 299.901 34.7226L298.097 36.5953C299.974 38.4032 300.892 40.5559 300.892 43.128H303.492ZM299.901 34.7226C297.509 32.4191 294.515 31.2835 291.015 31.2835V33.8835C293.902 33.8835 296.231 34.7981 298.097 36.5953L299.901 34.7226ZM291.015 31.2835C287.564 31.2835 284.621 32.4242 282.285 34.7347L284.114 36.5832C285.923 34.7931 288.191 33.8835 291.015 33.8835V31.2835ZM282.296 34.7237C279.96 36.9793 278.79 39.8107 278.79 43.128H281.39C281.39 40.4896 282.292 38.3417 284.102 36.5942L282.296 34.7237ZM323.653 57.3339V14.1305H321.053V57.3339H323.653ZM323.653 14.1305C323.653 13.4079 323.92 12.8055 324.552 12.2548L322.844 10.2945C321.683 11.3059 321.053 12.6074 321.053 14.1305H323.653ZM324.552 12.2548C325.191 11.6979 325.972 11.403 326.975 11.403V8.80301C325.401 8.80301 323.997 9.28923 322.844 10.2945L324.552 12.2548ZM326.975 11.403H336.892V8.80301H326.975V11.403ZM336.892 11.403C344.723 11.403 351.33 13.8167 356.791 18.6213L358.509 16.6693C352.54 11.4175 345.309 8.80301 336.892 8.80301V11.403ZM356.796 18.6254C362.25 23.3777 364.922 29.0586 364.922 35.7322H367.522C367.522 28.2487 364.479 21.8717 358.504 16.6652L356.796 18.6254ZM364.922 35.7322C364.922 42.4065 362.249 48.1139 356.791 52.9163L358.509 54.8683C364.48 49.6143 367.522 43.215 367.522 35.7322H364.922ZM356.796 52.9122C351.336 57.6698 344.726 60.0614 336.892 60.0614V62.6614C345.305 62.6614 352.535 60.0736 358.504 54.8724L356.796 52.9122ZM336.892 60.0614H326.975V62.6614H336.892V60.0614ZM326.975 60.0614C325.972 60.0614 325.191 59.7665 324.552 59.2096L322.844 61.1699C323.997 62.1752 325.401 62.6614 326.975 62.6614V60.0614ZM324.552 59.2096C323.92 58.6589 323.653 58.0565 323.653 57.3339H321.053C321.053 58.857 321.683 60.1585 322.844 61.1699L324.552 59.2096ZM330.381 18.2311V53.2333H332.981V18.2311H330.381ZM331.681 54.5333H336.892V51.9333H331.681V54.5333ZM336.903 54.5332C342.733 54.4819 347.745 52.6769 351.865 49.0876L350.157 47.1273C346.544 50.2748 342.144 51.887 336.88 51.9333L336.903 54.5332ZM351.865 49.0876C356.045 45.4448 358.193 40.9722 358.193 35.7322H355.593C355.593 40.158 353.82 43.9357 350.157 47.1273L351.865 49.0876ZM358.193 35.7322C358.193 30.4922 356.045 26.0196 351.865 22.3768L350.157 24.3371C353.82 27.5287 355.593 31.3063 355.593 35.7322H358.193ZM351.872 22.3829C347.75 18.7392 342.73 16.9311 336.892 16.9311V19.5311C342.147 19.5311 346.54 21.1403 350.15 24.331L351.872 22.3829ZM336.892 16.9311H331.681V19.5311H336.892V16.9311ZM409.671 58.2823L405.553 48.7629L403.167 49.7952L407.285 59.3146L409.671 58.2823ZM404.36 47.979H383.939V50.579H404.36V47.979ZM382.745 48.7629L378.627 58.2823L381.014 59.3146L385.132 49.7952L382.745 48.7629ZM378.639 58.2561C378.335 58.9175 377.952 59.3452 377.516 59.617C377.076 59.8909 376.492 60.0614 375.703 60.0614V62.6614C376.874 62.6614 377.957 62.4047 378.89 61.8243C379.826 61.2418 380.521 60.3881 381.002 59.3408L378.639 58.2561ZM375.703 60.0614C374.069 60.0614 373.162 59.573 372.641 58.8462L370.528 60.3617C371.688 61.9781 373.526 62.6614 375.703 62.6614V60.0614ZM372.655 58.8667C372.036 57.9677 371.96 57.1764 372.289 56.3494L369.872 55.3894C369.192 57.1009 369.452 58.7994 370.514 60.3412L372.655 58.8667ZM372.274 56.3836L390.847 13.2533L388.459 12.225L369.886 55.3552L372.274 56.3836ZM390.815 13.3225C391.094 12.7676 391.512 12.3082 392.105 11.939L390.731 9.73157C389.756 10.3387 388.997 11.1485 388.491 12.1558L390.815 13.3225ZM392.071 11.9594C392.698 11.5952 393.345 11.4389 394.041 11.4745L394.174 8.87794C392.965 8.81597 391.819 9.09898 390.765 9.71116L392.071 11.9594ZM394.167 11.4749C395.044 11.4346 395.689 11.594 396.169 11.8705C396.643 12.1433 397.057 12.5865 397.383 13.2876L399.74 12.1908C399.226 11.0856 398.477 10.1985 397.466 9.61696C396.462 9.03919 395.299 8.8202 394.048 8.8776L394.167 11.4749ZM397.368 13.2533L415.94 56.3836L418.328 55.3552L399.756 12.225L397.368 13.2533ZM415.926 56.3494C416.255 57.1764 416.179 57.9676 415.559 58.8667L417.701 60.3412C418.763 58.7994 419.023 57.1009 418.343 55.3894L415.926 56.3494ZM415.574 58.8462C415.059 59.5633 414.134 60.0614 412.428 60.0614V62.6614C414.644 62.6614 416.52 61.9879 417.687 60.3617L415.574 58.8462ZM412.428 60.0614C411.673 60.0614 411.126 59.8938 410.72 59.6301C410.315 59.3679 409.956 58.9497 409.674 58.2887L407.282 59.3082C407.729 60.3559 408.392 61.2191 409.304 61.8112C410.215 62.4018 411.279 62.6614 412.428 62.6614V60.0614ZM402.108 40.7082L395.301 24.9646L392.914 25.9965L399.721 41.7401L402.108 40.7082ZM392.914 24.9646L386.107 40.7082L388.493 41.7401L395.301 25.9965L392.914 24.9646ZM430.723 52.6488C425.425 47.7062 422.817 41.8447 422.817 34.9999H420.217C420.217 42.6051 423.154 49.1432 428.95 54.5499L430.723 52.6488ZM422.817 34.9999C422.817 28.1551 425.425 22.2936 430.723 17.351L428.95 15.4498C423.154 20.8566 420.217 27.3947 420.217 34.9999H422.817ZM430.719 17.3554C436.068 12.4146 442.555 9.93843 450.258 9.93843V7.33843C441.938 7.33843 434.81 10.0369 428.954 15.4454L430.719 17.3554ZM450.258 9.93843C457.954 9.93843 464.408 12.4581 469.7 17.4891L471.492 15.6046C465.691 10.091 458.586 7.33843 450.258 7.33843V9.93843ZM469.71 17.4977C475.07 22.4958 477.7 28.3354 477.7 35.0731H480.3C480.3 27.5561 477.327 21.0448 471.483 15.596L469.71 17.4977ZM477.7 35.0731C477.7 41.8056 475.047 47.6174 469.635 52.5668L471.389 54.4855C477.294 49.0855 480.3 42.5953 480.3 35.0731H477.7ZM469.608 52.5921C467.217 54.9062 464.338 56.7462 460.952 58.1044L461.92 60.5176C465.592 59.0444 468.764 57.0277 471.416 54.4601L469.608 52.5921ZM460.966 58.0987C457.587 59.4072 454.077 60.0613 450.426 60.0613V62.6613C454.396 62.6613 458.225 61.9485 461.905 60.5233L460.966 58.0987ZM450.426 60.0613C442.606 60.0613 436.064 57.5818 430.719 52.6443L428.954 54.5543C434.814 59.9662 441.999 62.6613 450.426 62.6613V60.0613ZM429.797 34.9999C429.797 40.3064 431.835 44.8886 435.833 48.684L437.623 46.7984C434.113 43.4665 432.397 39.5545 432.397 34.9999H429.797ZM435.839 48.6902C439.84 52.4366 444.671 54.3135 450.258 54.3135V51.7135C445.313 51.7135 441.123 50.0756 437.616 46.7923L435.839 48.6902ZM450.258 54.3135C455.904 54.3135 460.741 52.4105 464.691 48.6041L462.887 46.732C459.441 50.0529 455.258 51.7135 450.258 51.7135V54.3135ZM464.69 48.6047C468.677 44.7684 470.719 40.2157 470.719 34.9999H468.119C468.119 39.4499 466.408 43.3426 462.887 46.7313L464.69 48.6047ZM470.719 34.9999C470.719 29.7899 468.709 25.2605 464.775 21.4689L462.971 23.341C466.432 26.6768 468.119 30.544 468.119 34.9999H470.719ZM464.781 21.4751C460.83 17.6148 455.961 15.6862 450.258 15.6862V18.2862C455.313 18.2862 459.52 19.9701 462.964 23.3349L464.781 21.4751ZM450.258 15.6862C444.613 15.6862 439.752 17.5888 435.749 21.3889L437.539 23.2745C441.044 19.9473 445.258 18.2862 450.258 18.2862V15.6862ZM435.748 21.3895C431.802 25.1402 429.797 29.6994 429.797 34.9999H432.397C432.397 30.4392 434.09 26.553 437.539 23.274L435.748 21.3895ZM387.3 42.5242H394.107V39.9242H387.3V42.5242ZM394.107 42.5242H400.915V39.9242H394.107V42.5242Z" fill="white" mask="url(#path-2-outside-1_1058:68542)"/>
</svg>
