<svg xmlns="http://www.w3.org/2000/svg" xmlns:xlink="http://www.w3.org/1999/xlink" width="1080" zoomAndPan="magnify" viewBox="0 0 810 809.999993" height="1080" preserveAspectRatio="xMidYMid meet" version="1.0"><path fill="#309ae0" d="M 396.898438 789.75 C 607.5 789.75 781.648438 615.601562 781.648438 405 C 781.648438 194.398438 607.5 20.25 396.898438 20.25 C 186.300781 20.25 12.148438 194.398438 12.148438 405 C 12.148438 615.601562 182.25 789.75 396.898438 789.75 Z M 396.898438 789.75 " fill-opacity="1" fill-rule="nonzero"/><path fill="#ffffff" d="M 396.898438 149.851562 L 396.898438 340.199219 L 558.898438 413.101562 Z M 396.898438 149.851562 " fill-opacity="0.602" fill-rule="nonzero"/><path fill="#ffffff" d="M 396.898438 149.851562 L 234.898438 409.050781 L 396.898438 336.152344 Z M 396.898438 149.851562 " fill-opacity="1" fill-rule="nonzero"/><path fill="#ffffff" d="M 396.898438 530.550781 L 396.898438 660.152344 L 558.898438 437.402344 Z M 396.898438 530.550781 " fill-opacity="0.602" fill-rule="nonzero"/><path fill="#ffffff" d="M 396.898438 660.148438 L 396.898438 530.550781 L 234.898438 437.398438 Z M 396.898438 660.148438 " fill-opacity="1" fill-rule="nonzero"/><path fill="#ffffff" d="M 396.898438 502.199219 L 558.898438 409.050781 L 396.898438 336.152344 Z M 396.898438 502.199219 " fill-opacity="0.2" fill-rule="nonzero"/><path fill="#ffffff" d="M 234.898438 409.050781 L 396.898438 502.199219 L 396.898438 336.148438 Z M 234.898438 409.050781 " fill-opacity="0.602" fill-rule="nonzero"/></svg>