<?xml version="1.0" encoding="utf-8"?>
<!-- Generator: Adobe Illustrator 19.0.0, SVG Export Plug-In . SVG Version: 6.00 Build 0)  -->
<svg version="1.1" id="Layer_1" xmlns="http://www.w3.org/2000/svg" xmlns:xlink="http://www.w3.org/1999/xlink" x="0px" y="0px"
	 viewBox="-234 241 490 80" style="enable-background:new -234 241 490 80;" xml:space="preserve">
<style type="text/css">
	.st0{fill:#FFB819;}
</style>
<path class="st0" d="M-179.1,50.5c-6.8-3.3-14-1.5-20.6,1.7c-5.5-5.8-12.5-9.8-20.3-11.5c-7.8-1.7-15.9-1.1-23.2,1.9
	c-7.4,2.9-13.7,8-18.2,14.6c-4.5,6.6-6.8,14.3-6.8,22.3c0,1.7,0.1,3.4,0.3,5.1c-6.4,2.4-12.3,6.3-14.9,12.8
	c-3.2,7.4,3.6,13.2,10.7,13.1c16.3-0.8,29.1-12.7,40.7-23.4l0,0c1.2-1.1,2.3-2.1,3.4-3.2c1.2-1.1,2.4-2.2,3.6-3.4
	c7.3-6.9,14.8-14.1,23.5-19l0,0c1.9-1.2,3.9-2.2,6-3l0.4-0.2l0,0c1.4-0.5,2.7-1,4.1-1.4c2.3-0.6,8.9-1.5,8,2.4v0
	c-1.7,3.9-4.7,6.1-8.3,7.7l0,0l-2.9,1.2l-3.1,1c0.9,2.9,1.5,6,1.6,9c0.2,6-1.2,12-4,17.3c-2.9,5.3-7.1,9.7-12.3,12.8
	c-5.2,3.1-11.1,4.7-17.1,4.7c-7.2,0-16.3-2-18.1-4.9l-5.2,3.3c3.9,6.1,16.5,7.7,23.3,7.7c5.6,0,11.2-1.2,16.3-3.5
	c5.1-2.3,9.7-5.7,13.4-9.9c3.7-4.2,6.5-9.1,8.2-14.5c1.7-5.4,2.2-11,1.5-16.6c6.6-2.7,12.3-7.1,14.3-14.1
	C-173.6,56.3-175.2,52.7-179.1,50.5z M-271.3,102.9c-4.6,0.3-6.2-2.5-2.6-5.6c2.2-2.2,4.8-4,7.7-5.2c1,2.9,2.3,5.8,4,8.4
	C-265.1,101.8-268.2,102.6-271.3,102.9L-271.3,102.9z M-239.2,83.2c-2,1.5-3.8,3.2-5.4,5.1c-0.3-0.4-0.6-0.8-0.8-1.2
	c-0.2-0.5-0.3-0.9-0.2-1.4c0-1,0.4-1.9,1.2-2.6c0.7-0.7,1.7-1,2.6-1C-240.8,82.1-239.9,82.5-239.2,83.2z M-239.1,71.5
	c-0.8,0-1.5-0.2-2.1-0.6c-0.6-0.4-1.1-1-1.4-1.7c-0.3-0.7-0.4-1.5-0.2-2.2c0.1-0.7,0.5-1.4,1-1.9c0.5-0.5,1.2-0.9,1.9-1
	c0.7-0.1,1.5-0.1,2.2,0.2c0.7,0.3,1.3,0.8,1.7,1.4c0.4,0.6,0.6,1.4,0.6,2.1c0,0.5-0.1,1-0.3,1.5s-0.5,0.9-0.8,1.2
	c-0.4,0.4-0.8,0.6-1.2,0.8C-238.1,71.4-238.6,71.5-239.1,71.5z M-223.3,67.8c-0.3-0.4-0.6-0.8-0.7-1.3c-0.1-0.5-0.2-0.9-0.2-1.4
	c0-0.5,0.2-1,0.4-1.4c0.2-0.4,0.5-0.8,0.9-1.1c0.7-0.6,1.7-1,2.7-0.9c0.5,0,1,0.2,1.4,0.4c0.4,0.2,0.8,0.5,1.1,0.9
	C-219.8,64.4-221.7,66-223.3,67.8z M-208.9,57.6c-0.9,0.6-1.4,0.8-2.3,0c-4.4-3.6-9.5-5.6-15.1-6.2c-2.9-0.3-5.9-0.2-8.8,0.5
	c0.5,0.4,0.8,1,1.1,1.5c0.2,0.6,0.3,1.2,0.2,1.9c-0.1,0.6-0.3,1.2-0.7,1.7s-0.9,0.9-1.5,1.2c-0.6,0.3-1.2,0.4-1.8,0.3
	c-0.6,0-1.2-0.3-1.8-0.6c-0.5-0.3-1-0.8-1.3-1.4c-0.3-0.6-0.5-1.2-0.5-1.8c0-0.2,0-0.4,0.1-0.6c-6,3-10.7,7.9-13.5,14
	c0.2,0,0.3,0,0.5,0c0.6,0,1.2,0.2,1.8,0.4c0.5,0.3,1,0.7,1.3,1.2c0.3,0.5,0.6,1.1,0.6,1.7c0.1,0.6,0,1.2-0.2,1.8
	c-0.2,0.6-0.6,1.1-1,1.5c-0.5,0.4-1,0.7-1.6,0.8c-0.6,0.2-1.2,0.2-1.8,0c-0.6-0.1-1.1-0.4-1.6-0.8c-0.3,1.9-0.4,3.8-0.3,5.8
	c0,0,0.4,5.5,2.3,9.7c0.5,1,0.8,1.7,1.2,2.3c0.7,1.3,1,1.9,0.8,2.3c-0.1,0.4-0.6,0.7-1.5,1.3l-0.1,0c-0.7,0.5-1.5,1-2.3,1.4
	c-4.4-6.9-6.2-15.2-4.9-23.3c1.3-8.1,5.5-15.5,11.9-20.7c6.4-5.2,14.4-7.9,22.6-7.6c8.2,0.3,16,3.7,21.9,9.4
	C-206.5,56.1-207.8,56.9-208.9,57.6L-208.9,57.6z M-207,96.9c-0.6-0.1-1.2-0.3-1.7-0.7c-0.5-0.4-0.9-0.9-1.2-1.5
	c-0.3-0.6-0.4-1.2-0.3-1.9c0-0.6,0.2-1.3,0.6-1.8c0.3-0.5,0.8-1,1.4-1.3c0.6-0.3,1.2-0.5,1.8-0.5c0.6,0,1.3,0.2,1.8,0.5
	c0.6,0.3,1,0.8,1.4,1.3c1.8-3.8,2.7-7.9,2.5-12.1v-0.4c-0.1-0.1-0.1-0.3-0.1-0.4c0-0.2,0-0.4-0.1-0.6l0,0c-0.3-2.5-0.6-5-1.8-7.1
	l-0.3,0.1c-3,2.2-5.9,4.6-8.7,7c0.6,0.3,1,0.7,1.4,1.2c0.4,0.5,0.6,1.1,0.7,1.7c0.1,0.6,0,1.2-0.2,1.8c-0.2,0.6-0.6,1.1-1,1.5
	c-0.5,0.4-1,0.7-1.6,0.9c-0.6,0.2-1.2,0.1-1.8,0c-0.6-0.2-1.2-0.4-1.6-0.9c-0.5-0.4-0.8-0.9-1-1.5c-1.9,1.8-3.9,3.6-5.8,5.4l0,0
	c-6.1,5.8-12.2,11.6-19,16.7C-229.5,110.8-215.1,106.6-207,96.9z M-225.2,95c0.8,0,1.5,0.2,2.1,0.6c0.6,0.4,1.1,1,1.4,1.7
	c0.3,0.7,0.4,1.5,0.2,2.2s-0.5,1.4-1,1.9c-0.5,0.5-1.2,0.9-1.9,1c-0.7,0.1-1.5,0.1-2.2-0.2c-0.7-0.3-1.3-0.8-1.7-1.4
	c-0.4-0.6-0.6-1.4-0.6-2.1c0-1,0.4-2,1.1-2.7C-227.2,95.4-226.3,95-225.2,95z"/>
<path class="st0" d="M-129.9,50.6c5,0,9.2,1.5,12.8,4.6s5.3,6.8,5.3,11.1c0,4.3-1.8,8-5.3,11.1c-3.5,3-7.8,4.5-12.8,4.5h-10.3v15.9
	c0,1.1-0.5,2.1-1.4,2.9c-0.9,0.8-2,1.2-3.3,1.2c-1.3,0-2.4-0.4-3.3-1.2c-0.9-0.8-1.3-1.7-1.3-2.9V54.7c0-1.1,0.4-2.1,1.3-2.9
	c0.9-0.8,2-1.2,3.3-1.2H-129.9z M-140.2,58.8v15.1h10.3c2.4,0,4.5-0.7,6.1-2.2c1.7-1.5,2.5-3.2,2.6-5.3c-0.1-2.1-0.9-4-2.6-5.4
	s-3.7-2.2-6.1-2.2H-140.2z"/>
<path class="st0" d="M-102,66.5c0.9-0.8,2-1.2,3.3-1.2c1.3,0,2.4,0.4,3.2,1.2c0.9,0.7,1.3,1.7,1.3,2.9v28.6c0,1.1-0.4,2.1-1.3,2.9
	c-0.8,0.7-1.9,1.1-3.2,1.1c-1.2,0-2.3-0.4-3.2-1.2c-0.9-0.8-1.3-1.7-1.3-2.8V69.4C-103.2,68.2-102.8,67.2-102,66.5z M-94.2,54.6v1.5
	c0,1.1-0.4,2.1-1.3,2.9c-0.8,0.8-1.9,1.2-3.2,1.2c-1.2,0-2.3-0.4-3.2-1.2c-0.9-0.8-1.3-1.7-1.3-2.9v-1.5c0-1.1,0.4-2,1.3-2.8
	c0.9-0.8,2-1.2,3.2-1.2c1.3,0,2.4,0.4,3.2,1.2C-94.6,52.5-94.2,53.5-94.2,54.6z"/>
<path class="st0" d="M-84.8,99.4l-0.3-0.7v-0.5c-0.1,0-0.1-0.1-0.1-0.2v-0.1l0.1-0.5v-0.3c0.1-0.1,0.2-0.2,0.2-0.4
	c0-0.2,0.1-0.4,0.3-0.6c0-0.1,0.1-0.2,0.3-0.4h0.1L-65.3,73h-15.4c-1.2,0-2.2-0.4-3.1-1.1c-0.9-0.8-1.3-1.7-1.3-2.8
	c0-1.1,0.4-2,1.3-2.7c0.9-0.8,1.9-1.2,3.1-1.2h24.3l0.5,0.1h0.4c0.2,0,0.3,0,0.3,0.1c0.1,0,0.3,0.1,0.5,0.1c0.1,0.1,0.2,0.2,0.3,0.2
	l0.6,0.3c0.1,0,0.2,0,0.2,0.1l0.4,0.4c0.1,0,0.2,0.1,0.3,0.4c0.2,0.2,0.3,0.3,0.4,0.3c0.2,0.4,0.3,0.7,0.3,0.9
	c0,0.1,0.1,0.2,0.2,0.3v0.4l0.1,0.3v0.1l-0.1,0.4c0,0.3-0.1,0.6-0.2,0.8c0,0.2-0.1,0.3-0.3,0.4V71l-0.4,0.4v0.1l-19,22.7h15.5
	c1.2,0,2.2,0.4,3.1,1.2C-52.4,96-52,96.9-52,98s-0.4,2-1.3,2.8c-0.9,0.7-1.9,1.1-3.1,1.1h-24.3c-0.3,0-0.6,0-0.8-0.1h-0.3
	c-0.2-0.1-0.4-0.1-0.5-0.1l-0.7-0.3c-0.2-0.1-0.3-0.2-0.3-0.3c-0.2,0-0.5-0.2-0.8-0.5c-0.3-0.4-0.5-0.7-0.5-0.8
	C-84.7,99.7-84.8,99.6-84.8,99.4z"/>
<path class="st0" d="M-43.2,99.4l-0.3-0.7v-0.5c-0.1,0-0.1-0.1-0.1-0.2v-0.1l0.1-0.5v-0.3c0.1-0.1,0.2-0.2,0.2-0.4
	c0-0.2,0.1-0.4,0.3-0.6c0-0.1,0.1-0.2,0.3-0.4h0.1L-23.7,73h-15.4c-1.2,0-2.2-0.4-3.1-1.1c-0.9-0.8-1.3-1.7-1.3-2.8
	c0-1.1,0.4-2,1.3-2.7c0.9-0.8,1.9-1.2,3.1-1.2h24.3l0.5,0.1h0.4c0.2,0,0.3,0,0.3,0.1c0.1,0,0.3,0.1,0.5,0.1c0.1,0.1,0.2,0.2,0.3,0.2
	l0.6,0.3c0.1,0,0.2,0,0.2,0.1l0.4,0.4c0.1,0,0.2,0.1,0.3,0.4c0.2,0.2,0.3,0.3,0.4,0.3c0.2,0.4,0.3,0.7,0.3,0.9
	c0,0.1,0.1,0.2,0.2,0.3v0.4l0.1,0.3v0.1l-0.1,0.4c0,0.3-0.1,0.6-0.2,0.8c0,0.2-0.1,0.3-0.3,0.4V71l-0.4,0.4v0.1l-19,22.7h15.5
	c1.2,0,2.2,0.4,3.1,1.2c0.9,0.7,1.3,1.6,1.3,2.7s-0.4,2-1.3,2.8c-0.9,0.7-1.9,1.1-3.1,1.1h-24.3c-0.3,0-0.6,0-0.8-0.1h-0.3
	c-0.2-0.1-0.4-0.1-0.5-0.1l-0.7-0.3c-0.2-0.1-0.3-0.2-0.3-0.3c-0.2,0-0.5-0.2-0.8-0.5c-0.3-0.4-0.5-0.7-0.5-0.8
	C-43.1,99.7-43.2,99.6-43.2,99.4z"/>
<path class="st0" d="M14.9,101.9c-5.7,0-10.4-1.8-14.3-5.3c-3.8-3.6-5.7-7.9-5.7-12.9c0-5.1,1.9-9.4,5.7-13
	c3.9-3.6,8.6-5.4,14.3-5.4c4,0,7.7,1.1,11.2,3.2c0.3-0.9,0.8-1.7,1.6-2.3c0.8-0.6,1.7-1,2.9-1c1.2,0,2.2,0.4,3,1.2
	c0.9,0.8,1.3,1.7,1.3,2.8V98c0,1.1-0.4,2-1.3,2.8c-0.8,0.7-1.8,1.1-3,1.1c-1.1,0-2.1-0.3-2.9-0.9c-0.8-0.6-1.3-1.3-1.6-2.3
	C22.7,100.8,18.9,101.9,14.9,101.9z M3.9,83.6c0,2.9,1,5.4,3,7.4c2.1,2,4.7,3,7.9,3c3.3,0,5.9-1,8-3c2.1-2,3.2-4.5,3.2-7.4
	c0-2.9-1.1-5.4-3.2-7.5c-2.1-2.1-4.8-3.1-8-3.1c-3.1,0-5.7,1-7.8,3.1C4.9,78.2,3.9,80.7,3.9,83.6z"/>
<path class="st0" d="M46.2,97.9V54.7c0-1.1,0.4-2.1,1.3-2.9c0.9-0.8,2-1.2,3.3-1.2h9.9c8.1,0,15,2.5,20.8,7.5c5.7,5,8.6,11,8.6,18.1
	s-2.9,13.1-8.6,18.2c-5.7,5-12.6,7.5-20.8,7.5h-9.9c-1.3,0-2.4-0.4-3.3-1.2C46.6,99.9,46.2,99,46.2,97.9z M55.5,58.8v35h5.2
	c5.5,0,10.3-1.8,14.1-5.1c3.9-3.4,5.9-7.5,5.9-12.4s-2-9-5.9-12.4c-3.9-3.4-8.6-5.1-14.1-5.1H55.5z"/>
<path class="st0" d="M132.3,99.3l-4.1-9.5h-20.4l-4.1,9.5c-0.8,1.7-2.2,2.6-4.1,2.6c-1.9,0-3.3-0.6-4.1-1.8c-0.8-1.2-1-2.5-0.5-3.7
	l18.6-43.1c0.4-0.8,1-1.4,1.8-1.9c0.8-0.5,1.7-0.7,2.7-0.7c2.1-0.1,3.6,0.8,4.5,2.6l18.6,43.1c0.5,1.3,0.3,2.5-0.5,3.7
	c-0.8,1.2-2.2,1.8-4.2,1.8C134.3,101.9,133,101,132.3,99.3z M111.1,81.7h6.8h6.8L117.9,66L111.1,81.7z"/>
<path class="st0" d="M153.6,94.1c-5.5-5.2-8.3-11.4-8.3-18.6s2.8-13.4,8.3-18.6c5.6-5.2,12.4-7.8,20.4-7.8s14.8,2.6,20.3,7.9
	c5.6,5.2,8.4,11.4,8.4,18.5c0,7.1-2.8,13.3-8.5,18.5c-2.5,2.4-5.5,4.4-9.1,5.8c-3.5,1.4-7.2,2.1-11,2.1
	C166.1,101.9,159.2,99.3,153.6,94.1z M154.9,75.5c0,4.9,1.9,9.2,5.6,12.7c3.8,3.5,8.3,5.3,13.5,5.3c5.3,0,9.8-1.8,13.5-5.3
	c3.8-3.6,5.6-7.8,5.6-12.7c0-4.8-1.8-9-5.5-12.6c-3.7-3.6-8.2-5.4-13.6-5.4c-5.3,0-9.9,1.8-13.6,5.3
	C156.8,66.4,154.9,70.6,154.9,75.5z"/>
</svg>
